<?xml version="1.0" encoding="utf-8"?>
<!-- Generator: Adobe Illustrator 20.0.0, SVG Export Plug-In . SVG Version: 6.00 Build 0)  -->
<svg version="1.1" id="Layer_1" xmlns="http://www.w3.org/2000/svg" xmlns:xlink="http://www.w3.org/1999/xlink" x="0px" y="0px"
	 viewBox="0 0 500 500" style="enable-background:new 0 0 500 500;" xml:space="preserve">
<style type="text/css">
	.st0{fill:#E92426;}
</style>
<g id="XMLID_19_">
	<path id="XMLID_35_" d="M157.3,393l-3-17.6c-0.8-5.1-1.9-13-2.8-18.5h-0.3c-0.9,5.5-2.1,13.7-3,18.5l-3.2,17.6H157.3z M143.5,404.5
		l-3.9,19.5h-14.3l17.8-81.3h17.5l16.2,81.3h-14.3l-3.8-19.5H143.5z"/>
	<path id="XMLID_32_" d="M209.3,387.7c0-1.1,0-2.3-0.2-3.5c-0.6-4-2.7-7.6-6.1-7.6c-5.9,0-8.1,8.5-8.1,18.4
		c0,11.4,3.1,17.9,7.8,17.9c2.2,0,4.7-1.1,6.1-5.9c0.3-1,0.5-2.2,0.5-3.7V387.7z M224,340.6v66.6c0,5.3,0.3,11.8,0.5,16.8h-12.6
		l-0.8-6.8h-0.3c-2.1,4.2-6.7,7.7-12.3,7.7c-12.1,0-18.1-13.4-18.1-30.3c0-20.5,9-30.6,18.7-30.6c5.1,0,8.4,2.5,10.1,6.1h0.2v-29.7
		H224z"/>
	<path id="XMLID_29_" d="M254.5,413.8c5.6,0,7-10.5,7-19.3c0-8.3-1.4-19.1-7.2-19.1c-6.2,0-7.5,10.8-7.5,19.1
		c0,10,1.6,19.3,7.6,19.3H254.5z M254.2,425c-13.5,0-22-10.9-22-30.2c0-21.2,10.9-30.6,22.3-30.6c13.3,0,21.7,11.4,21.7,30.2
		c0,24.2-13.1,30.6-21.9,30.6H254.2z"/>
	<path id="XMLID_26_" d="M299,403c0,1.5,0.3,2.8,0.6,3.8c1.5,4.9,4,6.1,6,6.1c5.7,0,8-7.2,8-18.7c0-10.4-2.4-17.7-8-17.7
		c-2.8,0-5.1,3-5.9,6.3c-0.3,1-0.5,2.6-0.5,3.7V403z M284.4,340.6H299v30.7h0.2c2.9-4.5,6.7-7.1,12.3-7.1c11.1,0,16.6,12.6,16.6,29
		c0,20.7-8.3,31.9-19,31.9c-5.1,0-8.5-2.3-11.6-8h-0.3l-0.8,7.1h-12.6c0.2-4.9,0.5-11.6,0.5-16.8V340.6z"/>
	<path id="XMLID_23_" d="M363.2,389c0.1-8.3-2.3-14.1-7-14.1c-5.3,0-7.6,7.7-7.7,14.1H363.2z M348.5,399.3
		c0.2,10.6,5.8,14.1,12.7,14.1c4.4,0,8.2-1,11-2l2,10.5c-3.9,1.7-9.9,2.7-15.6,2.7c-15.7,0-24.3-10.7-24.3-29.1
		c0-19.7,9.9-31.5,23-31.5c12.6,0,19.5,10.5,19.5,27.5c0,3.9-0.2,6.1-0.4,7.8L348.5,399.3z"/>
	<polygon id="XMLID_3_" class="st0" points="283,75 376.7,75 376.7,299.3 	"/>
	<polygon id="XMLID_2_" class="st0" points="217,75 123.3,75 123.3,299.3 	"/>
	<polygon id="XMLID_18_" class="st0" points="250,157.7 309.7,299.3 270.6,299.3 252.8,254.2 209.1,254.2 	"/>
</g>
</svg>
