<?xml version="1.0" encoding="utf-8"?>
<!-- Generator: Adobe Illustrator 20.0.0, SVG Export Plug-In . SVG Version: 6.00 Build 0)  -->
<svg version="1.1" xmlns="http://www.w3.org/2000/svg" xmlns:xlink="http://www.w3.org/1999/xlink" x="0px" y="0px"
	 viewBox="0 0 240 240" style="enable-background:new 0 0 240 240;" xml:space="preserve">
<style type="text/css">
	.st0{display:none;}
	.st1{display:inline;}
	.st2{fill:url(#SVGID_1_);}
	.st3{fill:#D3A4FF;}
	.st4{fill:#EE4592;}
	.st5{fill:#2A0F18;}
	.st6{fill:#F47B20;}
	.st7{fill:#27180D;}
</style>
<g id="Layer_1" class="st0">
	<g id="Layer_1_1_" class="st1">
		
			<radialGradient id="SVGID_1_" cx="97.71" cy="-77.286" r="143.432" gradientTransform="matrix(1 0 0 -1 0 4)" gradientUnits="userSpaceOnUse">
			<stop  offset="0" style="stop-color:#100027;stop-opacity:0.85"/>
			<stop  offset="0.767" style="stop-color:#100027"/>
		</radialGradient>
		<path class="st2" d="M10,10h220v214H10V10z"/>
		<path class="st3" d="M0,0v234h240V0H0z M10,10h220v214H10V10z M67.8,132.5l-7.9,29.9c-0.2,0.8-0.5,1.1-1.5,1.1H43.7
			c-1,0-1.2-0.3-1-1.5l28.4-99.3c0.5-1.8,0.8-3.2,1-8.2c0-0.7,0.3-1,0.8-1h21c0.7,0,1,0.2,1.2,1l31.8,107.7c0.2,0.8,0,1.3-0.8,1.3
			h-16.5c-0.8,0-1.3-0.3-1.5-1l-8.3-30H67.8L67.8,132.5z M95.9,116.3c-2.8-11.1-9.6-35.3-12.1-47h-0.2c-2.1,11.7-7.6,31.5-11.7,47
			C72,116.3,95.9,116.3,95.9,116.3z M149.5,126.5c0.2,13.5,6.6,22.6,21.8,22.6c5.9,0,11-0.8,16.3-3.1c0.7-0.3,1.2-0.2,1.2,0.7v12.5
			c0,1-0.3,1.5-1,2c-5.3,2.6-11.9,3.8-20.1,3.8c-26.4,0-36.3-19.5-36.3-41.3c0-23.6,12.2-42.9,33.7-42.9c21.8,0,29.4,18.3,29.4,33.2
			c0,4.8-0.3,8.7-0.8,10.6c-0.2,0.8-0.5,1.1-1.3,1.3c-2,0.3-7.9,0.7-16.7,0.7L149.5,126.5L149.5,126.5z M169.8,112.7
			c5.1,0,6.9,0,7.4-0.2c0-0.7,0.2-1.2,0.2-1.7c0-5.4-2.6-15.4-13-15.4c-9.6,0-13.7,8.4-14.7,17.3H169.8L169.8,112.7z"/>
	</g>
	<g id="Layer_2" class="st1">
		<g>
			<polygon class="st4" points="240,234 0,234 0,0 240,0 			"/>
			<polygon class="st5" points="229.4,223.7 10.6,223.7 10.6,10.3 229.4,10.3 			"/>
			<path class="st4" d="M88.9,160.1c0,1-0.3,1.4-1.3,1.4H72.9c-0.9,0-1.1-0.5-1.1-1.4V57.7c0-1,0.4-1.1,1.1-1.1h14.9
				c0.9,0,1.1,0.2,1.1,1.1V160.1L88.9,160.1z"/>
			<path class="st4" d="M152.9,97.9c-2.1-1-5-1.4-8.2-1.4c-12.6,0-21.1,10.5-21.1,26.6c0,17.9,9.2,25,19.8,25c3.5,0,7-0.6,9.5-1.6
				V97.9L152.9,97.9z M106.3,124c0-23,14.9-42.3,38.7-42.3c3.2,0,5.6,0.3,8,1.1V57.2c0-0.8,0.3-1.1,0.8-1.1H169c0.6,0,0.7,0.3,0.7,1
				v86.8c0,3.3,0.3,7.6,0.4,10.1c0.1,0.8,0,1.1-0.7,1.6c-8.8,4.9-18.7,7.8-27.9,7.8C120.9,163.3,106.3,150.5,106.3,124L106.3,124z"
				/>
		</g>
	</g>
</g>
<g id="Layer_2_1_">
	<g>
		<polygon class="st6" points="240,234 0,234 0,0 240,0 240,234 		"/>
		<polygon class="st7" points="229.4,223.7 10.6,223.7 10.6,10.3 229.4,10.3 229.4,223.7 		"/>
		<path class="st6" d="M111.6,117.4c-2.8-10.8-9.8-32.5-12.6-43.8h-0.1c-2.1,10.6-8,28.8-12.2,43.8H111.6L111.6,117.4z M82.9,133.2
			l-8.7,28c-0.1,1-0.6,1.3-1.4,1.3H58.4c-1,0-1.3-0.5-1-1.6C65,136.3,78,95.2,87.1,67.4c0.4-1.6,0.9-3.2,1.1-8.9c0-0.6,0.4-1,0.9-1
			h19.6c0.7,0,0.9,0.2,1.1,0.8c10.5,33,22,69.4,32.8,102.7c0.3,1,0,1.4-0.9,1.4h-15.9c-0.7,0-1-0.3-1.3-1l-9.1-28.3H82.9L82.9,133.2
			z"/>
		<path class="st6" d="M158,85.5c0-1,0.3-1.3,1-1.3h14.8c0.8,0,1.1,0.2,1.1,1.3v75.7c0,0.8-0.3,1.3-1.1,1.3h-14.5
			c-0.8,0-1.3-0.3-1.3-1.4V85.5L158,85.5z M157,63.6c0-6,4-10,9.5-10c5.7,0,9.2,4,9.2,10c0,6.1-3.8,10-9.3,10
			C160.7,73.6,157,69.7,157,63.6L157,63.6z"/>
	</g>
</g>
</svg>
