<?xml version="1.0" encoding="utf-8"?>
<!-- Generator: Adobe Illustrator 20.0.0, SVG Export Plug-In . SVG Version: 6.00 Build 0)  -->
<svg version="1.1" id="Layer_1" xmlns="http://www.w3.org/2000/svg" xmlns:xlink="http://www.w3.org/1999/xlink" x="0px" y="0px"
	 viewBox="0 0 240 240" style="enable-background:new 0 0 240 240;" xml:space="preserve">
<style type="text/css">
	.st0{display:none;}
	.st1{display:inline;fill:url(#SVGID_1_);}
	.st2{display:inline;fill:#D3A4FF;}
	.st3{fill:#31C5F4;}
	.st4{fill:#071E25;}
</style>
<g id="Layer_1_1_" class="st0">
	
		<radialGradient id="SVGID_1_" cx="153.2508" cy="-111.0424" r="143.432" gradientTransform="matrix(1 0 0 -0.9997 -55.5395 -29.7409)" gradientUnits="userSpaceOnUse">
		<stop  offset="0" style="stop-color:#100027;stop-opacity:0.85"/>
		<stop  offset="0.767" style="stop-color:#100027"/>
	</radialGradient>
	<path class="st1" d="M10,10h220v214H10V10z"/>
	<path class="st2" d="M0,0v234h240V0H0z M10,10h220v214H10V10z M67.8,132.5l-7.9,29.9c-0.2,0.8-0.5,1.1-1.5,1.1H43.7
		c-1,0-1.2-0.3-1-1.5l28.4-99.3c0.5-1.8,0.8-3.2,1-8.2c0-0.7,0.3-1,0.8-1h21c0.7,0,1,0.2,1.2,1l31.8,107.7c0.2,0.8,0,1.3-0.8,1.3
		h-16.5c-0.8,0-1.3-0.3-1.5-1l-8.3-30H67.8L67.8,132.5z M95.9,116.3c-2.8-11.1-9.6-35.3-12.1-47h-0.2c-2.1,11.7-7.6,31.5-11.7,47
		C72,116.3,95.9,116.3,95.9,116.3z M149.5,126.5c0.2,13.5,6.6,22.6,21.8,22.6c5.9,0,11-0.8,16.3-3.1c0.7-0.3,1.2-0.2,1.2,0.7v12.5
		c0,1-0.3,1.5-1,2c-5.3,2.6-11.9,3.8-20.1,3.8c-26.4,0-36.3-19.5-36.3-41.3c0-23.6,12.2-42.9,33.7-42.9c21.8,0,29.4,18.3,29.4,33.2
		c0,4.8-0.3,8.7-0.8,10.6c-0.2,0.8-0.5,1.1-1.3,1.3c-2,0.3-7.9,0.7-16.7,0.7L149.5,126.5L149.5,126.5z M169.8,112.7
		c5.1,0,6.9,0,7.4-0.2c0-0.7,0.2-1.2,0.2-1.7c0-5.4-2.6-15.4-13-15.4c-9.6,0-13.7,8.4-14.7,17.3H169.8L169.8,112.7z"/>
</g>
<g id="Layer_2">
	<g>
		<polygon class="st3" points="240,234 0,234 0,0 240,0 		"/>
		<polygon class="st4" points="229.4,223.7 10.6,223.7 10.6,10.3 229.4,10.3 		"/>
		<path class="st3" d="M75.4,109.2c1.1,0.2,3.3,0.3,9.2,0.3c11.2,0,22-3.1,22-19.2c0-12.9-7.2-19.5-20.6-19.5
			c-5.5,0-9.5,0.2-10.7,0.3L75.4,109.2L75.4,109.2z M58.3,56.5c0-0.8,0.1-1.1,0.9-1.1c5.4-0.2,16-0.3,26.8-0.3
			c27.8,0,38.5,15.8,38.6,34.5c0,25.6-19.6,35.3-40.4,35.3c-4,0-7.8,0-8.8,0v36.6c0,1-0.3,1.3-1,1.3H59.3c-0.7,0-1-0.3-1-1.1V56.5
			L58.3,56.5z"/>
		<path class="st3" d="M160.1,97.2c-6.8,0-8.7,4.2-8.7,7.2c0,3.9,1.8,6,12.3,10.8c14.4,6.8,20.5,12.7,20.5,24.3
			c0,16.1-10.7,25.3-26.1,25.3c-7.4,0-16.7-0.7-22.6-4.9c-0.6-0.3-0.8-0.8-0.8-1.6v-14.8c0-0.8,0.6-1.1,1-0.8
			c7.3,5.3,15.3,6.8,22.6,6.8c6.4,0,8.7-4.2,8.7-7.7c0-4.2-1.6-6.6-11.6-11.3c-14.4-6.8-20.4-12.6-20.4-24.3c0-13,10-23.8,26.5-23.8
			c8.5,0,14.5,0.2,18.4,2.8c0.7,0.6,0.8,1.1,0.8,2.1v13.2c0,1-0.6,1.4-1.3,1C174.4,98.2,167.3,97.2,160.1,97.2L160.1,97.2z"/>
	</g>
</g>
</svg>
