<svg id="Layer_1" data-name="Layer 1" xmlns="http://www.w3.org/2000/svg" viewBox="0 0 540.07 763.81"><defs><style>.cls-1{fill:#fff;}</style></defs><title>Design-brochure</title><path class="cls-1" d="M1206.83,883.78v731.81H698.77V883.78h508.07m16-16H682.77v763.81h540.07V867.78Z" transform="translate(-682.77 -867.78)"/><path class="cls-1" d="M782.56,1064.83H737.07v-5.42l35.08-72.88V959.21H748.79V985H738.54V958.33a7.78,7.78,0,0,1,8.13-8.13h27.61a7.78,7.78,0,0,1,8.13,8.13v24.32a23.68,23.68,0,0,1-2.71,10l-30.32,63.13h33.18Z" transform="translate(-682.77 -867.78)"/><path class="cls-1" d="M809.87,1064.83H799.62V985.36h-4.47V985l6.45-34.79h8.28Z" transform="translate(-682.77 -867.78)"/><path class="cls-1" d="M867.3,1056.55q0,8.28-8.2,8.28H835.95q-8.2,0-8.2-8.28v-54.71q0-8.28,8.2-8.28h23.14q8.2,0,8.2,8.28V1016H857.7v-13.92H837.49v54.13H857.7v-15.89h9.59Z" transform="translate(-682.77 -867.78)"/><path class="cls-1" d="M954.75,1064.83H945v-62.55l-21.24.59v62H914.1v-62.55l-21.24.59v62h-9.74V993.56h9.74v2q5.71-.73,11.43-1.54a95,95,0,0,1,11.5-.88q4.47,0,6.59,2.71,6.15-.81,12.23-1.68a103.29,103.29,0,0,1,12.08-1q8.06,0,8.06,8Z" transform="translate(-682.77 -867.78)"/><path class="cls-1" d="M1048.13,1000.15l-15,14.94,14.94,14.94-6.74,6.74-14.94-15-14.94,15-6.74-6.67,15-15-14.94-14.94,6.74-6.67,14.94,14.94,14.94-15Z" transform="translate(-682.77 -867.78)"/><path class="cls-1" d="M782.56,1244.83H737.07v-5.42l35.08-72.88v-27.32H748.79V1165H738.54v-26.66a7.78,7.78,0,0,1,8.13-8.13h27.61a7.78,7.78,0,0,1,8.13,8.13v24.32a23.68,23.68,0,0,1-2.71,10l-30.32,63.13h33.18Z" transform="translate(-682.77 -867.78)"/><path class="cls-1" d="M843.42,1236.7a8,8,0,0,1-2.23,5.86,7.81,7.81,0,0,1-5.82,2.27H806.73a8.18,8.18,0,0,1-5.93-2.27,7.79,7.79,0,0,1-2.34-5.86v-25.34h10.18v24.46h24.61v-42.41H806.07a7.81,7.81,0,0,1-5.82-2.27,8,8,0,0,1-2.23-5.86v-46.95a8,8,0,0,1,2.23-5.86,7.81,7.81,0,0,1,5.82-2.27h29.3a7.81,7.81,0,0,1,5.82,2.27,8,8,0,0,1,2.23,5.86Zm-10.18-52.15v-45.34h-25v45.34Z" transform="translate(-682.77 -867.78)"/><path class="cls-1" d="M870.89,1244.83H859.75v-12.89h11.13Z" transform="translate(-682.77 -867.78)"/><path class="cls-1" d="M903.84,1244.83h-10l23.88-105.62H893.22v16.85H883V1130.2h45.41v5.27Z" transform="translate(-682.77 -867.78)"/><path class="cls-1" d="M979.72,1236.55q0,8.28-8.2,8.28H948.38q-8.2,0-8.2-8.28v-54.71q0-8.28,8.2-8.28h23.15q8.2,0,8.2,8.28V1196h-9.59v-13.92H949.91v54.13h20.22v-15.89h9.59Z" transform="translate(-682.77 -867.78)"/><path class="cls-1" d="M1067.17,1244.83h-9.74v-62.55l-21.24.59v62h-9.67v-62.55l-21.24.59v62h-9.74v-71.26h9.74v2q5.71-.73,11.43-1.54a95,95,0,0,1,11.5-.88q4.47,0,6.59,2.71,6.15-.81,12.23-1.68a103.29,103.29,0,0,1,12.08-1q8.06,0,8.06,8Z" transform="translate(-682.77 -867.78)"/></svg>