<svg xmlns="http://www.w3.org/2000/svg" viewBox="0 0 540.07 763.81"><defs><style>.cls-1{fill:#fff;}.cls-2{fill:#231f20;}</style></defs><title>Design-Yearbook</title><g id="Layer_1" data-name="Layer 1"><rect class="cls-1" width="540.07" height="763.81"/></g><g id="Layer_3" data-name="Layer 3"><path class="cls-2" d="M876.59,1220.78H831.1v-5.42l35.08-72.88v-27.32H842.82V1141H832.57v-26.66a7.78,7.78,0,0,1,8.13-8.13h27.61a7.78,7.78,0,0,1,8.13,8.13v24.32a23.68,23.68,0,0,1-2.71,10l-30.32,63.13h33.18Z" transform="translate(-776.8 -1023.74)"/><path class="cls-2" d="M903.91,1220.78H893.65v-79.47h-4.47V1141l6.45-34.79h8.28Z" transform="translate(-776.8 -1023.74)"/><path class="cls-2" d="M961.33,1212.51q0,8.28-8.2,8.28H930q-8.2,0-8.2-8.28V1157.8q0-8.28,8.2-8.28h23.14q8.2,0,8.2,8.28V1172h-9.6v-13.92H931.52v54.13h20.21v-15.89h9.6Z" transform="translate(-776.8 -1023.74)"/><path class="cls-2" d="M1048.78,1220.78H1039v-62.55l-21.24.59v62h-9.67v-62.55l-21.24.59v62h-9.74v-71.26h9.74v2q5.71-.73,11.43-1.54a95,95,0,0,1,11.5-.88q4.47,0,6.59,2.71,6.15-.81,12.23-1.68a103.29,103.29,0,0,1,12.08-1q8.06,0,8.06,8Z" transform="translate(-776.8 -1023.74)"/><path class="cls-2" d="M1142.17,1156.11l-15,14.94,14.94,14.94-6.74,6.74-14.94-15-14.94,15-6.74-6.67,15-15-14.94-14.94,6.74-6.67,14.94,14.94,14.94-15Z" transform="translate(-776.8 -1023.74)"/><path class="cls-2" d="M876.59,1400.78H831.1v-5.42l35.08-72.88v-27.32H842.82V1321H832.57v-26.66a7.78,7.78,0,0,1,8.13-8.13h27.61a7.78,7.78,0,0,1,8.13,8.13v24.32a23.68,23.68,0,0,1-2.71,10l-30.32,63.13h33.18Z" transform="translate(-776.8 -1023.74)"/><path class="cls-2" d="M937.45,1392.65a8,8,0,0,1-2.23,5.86,7.81,7.81,0,0,1-5.82,2.27H900.76a8.18,8.18,0,0,1-5.93-2.27,7.79,7.79,0,0,1-2.34-5.86v-25.34h10.18v24.46h24.61v-42.41H900.1a7.81,7.81,0,0,1-5.82-2.27,8,8,0,0,1-2.23-5.86v-46.95a8,8,0,0,1,2.23-5.86,7.81,7.81,0,0,1,5.82-2.27h29.3a7.81,7.81,0,0,1,5.82,2.27,8,8,0,0,1,2.23,5.86Zm-10.18-52.15v-45.34h-25v45.34Z" transform="translate(-776.8 -1023.74)"/><path class="cls-2" d="M964.92,1400.78H953.79v-12.89h11.13Z" transform="translate(-776.8 -1023.74)"/><path class="cls-2" d="M997.88,1400.78h-10l23.88-105.62H987.26V1312H977.08v-25.85h45.41v5.27Z" transform="translate(-776.8 -1023.74)"/><path class="cls-2" d="M1073.76,1392.51q0,8.28-8.2,8.28h-23.14q-8.2,0-8.2-8.28V1337.8q0-8.28,8.2-8.28h23.14q8.2,0,8.2,8.28V1352h-9.59v-13.92h-20.21v54.13h20.21v-15.89h9.59Z" transform="translate(-776.8 -1023.74)"/><path class="cls-2" d="M1161.21,1400.78h-9.74v-62.55l-21.24.59v62h-9.67v-62.55l-21.24.59v62h-9.74v-71.26h9.74v2q5.71-.73,11.43-1.54a95,95,0,0,1,11.5-.88q4.47,0,6.59,2.71,6.15-.81,12.23-1.68a103.29,103.29,0,0,1,12.08-1q8.06,0,8.06,8Z" transform="translate(-776.8 -1023.74)"/></g></svg>