<svg xmlns="http://www.w3.org/2000/svg" viewBox="0 0 762.73 1144.09"><defs><style>.cls-1{fill:#fff;}.cls-2{fill:#231f20;}</style></defs><title>Design-Poster</title><g id="Layer_1" data-name="Layer 1"><path class="cls-1" d="M1277.85,628.55V1736.63H551.13V628.55h726.73m18-18H533.13V1754.63h762.73V610.55Z" transform="translate(-533.13 -610.55)"/><rect class="cls-1" x="162.73" y="244.09" width="600" height="900"/></g><g id="Layer_3" data-name="Layer 3"><path class="cls-2" d="M795.36,1056.65a8,8,0,0,1-2.23,5.86,7.81,7.81,0,0,1-5.82,2.27H758.08a7.78,7.78,0,0,1-8.13-8.13V958.28a7.78,7.78,0,0,1,8.13-8.13H787a7.81,7.81,0,0,1,5.82,2.27,8,8,0,0,1,2.23,5.86v25.34H784.89V959.16H760.13v42.48h27.17a7.66,7.66,0,0,1,8.06,8.06Zm-10.18-.88V1010.5h-25v45.26Z" transform="translate(-533.13 -610.55)"/><path class="cls-2" d="M860.33,1056.65a7.8,7.8,0,0,1-2.34,5.86,8.18,8.18,0,0,1-5.93,2.27h-30.4a7.78,7.78,0,0,1-8.13-8.13V958.28a7.78,7.78,0,0,1,8.13-8.13h30.4a8.19,8.19,0,0,1,5.93,2.27,7.8,7.8,0,0,1,2.34,5.86Zm-10.18-.88V959.16H823.71v96.61Z" transform="translate(-533.13 -610.55)"/><path class="cls-2" d="M917,1056.5q0,8.28-8.2,8.28H885.67q-8.2,0-8.2-8.28v-54.71q0-8.28,8.2-8.28h23.14q8.2,0,8.2,8.28V1016h-9.59v-13.92H887.21v54.13h20.21v-15.89H917Z" transform="translate(-533.13 -610.55)"/><path class="cls-2" d="M1004.47,1064.78h-9.74v-62.55l-21.24.59v62h-9.67v-62.55l-21.24.59v62h-9.74V993.51h9.74v2q5.71-.73,11.43-1.54a95,95,0,0,1,11.5-.88q4.47,0,6.59,2.71,6.15-.8,12.23-1.68a103.4,103.4,0,0,1,12.08-1q8.06,0,8.06,8Z" transform="translate(-533.13 -610.55)"/><path class="cls-2" d="M1097.85,1000.1l-15,14.94,14.94,14.94-6.74,6.74-14.94-15-14.94,15-6.74-6.67,15-15-14.94-14.94,6.74-6.67,14.94,14.94,14.94-15Z" transform="translate(-533.13 -610.55)"/><path class="cls-2" d="M794.92,1222a8,8,0,0,1-2.23,5.86,7.81,7.81,0,0,1-5.82,2.27H758.23a8.18,8.18,0,0,1-5.93-2.27A7.79,7.79,0,0,1,750,1222v-25.34h10.18v24.46h24.61V1178.7H757.57a7.81,7.81,0,0,1-5.82-2.27,8,8,0,0,1-2.23-5.86v-46.95a8,8,0,0,1,2.23-5.86,7.81,7.81,0,0,1,5.82-2.27h29.3a7.81,7.81,0,0,1,5.82,2.27,8,8,0,0,1,2.23,5.86Zm-10.18-52.15V1124.5h-25v45.34Z" transform="translate(-533.13 -610.55)"/><path class="cls-2" d="M860.33,1222a7.8,7.8,0,0,1-2.34,5.86,8.18,8.18,0,0,1-5.93,2.27h-30.4a7.78,7.78,0,0,1-8.13-8.13v-98.36a7.78,7.78,0,0,1,8.13-8.13h30.4a8.19,8.19,0,0,1,5.93,2.27,7.8,7.8,0,0,1,2.34,5.86Zm-10.18-.88V1124.5H823.71v96.61Z" transform="translate(-533.13 -610.55)"/><path class="cls-2" d="M917,1221.83q0,8.28-8.2,8.28H885.67q-8.2,0-8.2-8.28v-54.71q0-8.28,8.2-8.28h23.14q8.2,0,8.2,8.28v14.21h-9.59v-13.92H887.21v54.13h20.21v-15.89H917Z" transform="translate(-533.13 -610.55)"/><path class="cls-2" d="M1004.47,1230.11h-9.74v-62.55l-21.24.59v62h-9.67v-62.55l-21.24.59v62h-9.74v-71.26h9.74v2q5.71-.73,11.43-1.54a95,95,0,0,1,11.5-.88q4.47,0,6.59,2.71,6.15-.81,12.23-1.68a103.29,103.29,0,0,1,12.08-1q8.06,0,8.06,8Z" transform="translate(-533.13 -610.55)"/></g></svg>