<svg id="Layer_2" data-name="Layer 2" xmlns="http://www.w3.org/2000/svg" viewBox="0 0 500 500"><title>icon-design</title><path d="M340.54,365.93,247.43,106.1A11.27,11.27,0,0,0,233,99.29L76.44,155.4a11.27,11.27,0,0,0-6.81,14.42l93.11,259.82a11.27,11.27,0,0,0,14.42,6.81l156.57-56.11A11.27,11.27,0,0,0,340.54,365.93ZM310.2,369.6,188.51,413.21a11.27,11.27,0,0,1-14.42-6.81L93.16,180.56A11.27,11.27,0,0,1,100,166.14l121.69-43.61a11.27,11.27,0,0,1,14.42,6.81L317,355.18A11.27,11.27,0,0,1,310.2,369.6Z"/><rect x="228.36" y="62.4" width="188.87" height="298.55" rx="11.27" ry="11.27"/></svg>