<?xml version="1.0" encoding="utf-8"?>
<!-- Generator: Adobe Illustrator 21.0.0, SVG Export Plug-In . SVG Version: 6.00 Build 0)  -->
<svg version="1.1" xmlns="http://www.w3.org/2000/svg" xmlns:xlink="http://www.w3.org/1999/xlink" x="0px" y="0px"
	 viewBox="0 0 500 500" style="enable-background:new 0 0 500 500;" xml:space="preserve">
<style type="text/css">
	.st0{display:none;}
	.st1{display:inline;fill:#FFFFFF;}
</style>
<g id="图层_2" class="st0">
	<rect x="202.6" y="129.7" class="st1" width="118.5" height="81.4"/>
	<rect x="106.1" y="184.7" class="st1" width="118.5" height="81.4"/>
	<rect x="173.6" y="281.8" class="st1" width="118.5" height="81.4"/>
	<rect x="184.1" y="204.2" class="st1" width="118.5" height="81.4"/>
	<rect x="261.8" y="225.3" class="st1" width="118.5" height="81.4"/>
</g>
<g id="图层_1">
	<g>
		<path d="M382.6,363.2c10.1,0,20.3,0,30.4,0c6.6,0,8.2,2.7,8.3,9.2c-0.2,6.5-0.1,11.7,0.1,17.9c0.2,8.7-0.9,9.3-10.4,10
			c-3.2,0-6.6,0-9.7,0c-53.2,0-106.4,0-159.7,0c-33.1,0-62.8-10.6-89.2-30c-21.9-16-39.4-36.3-50.3-61.4
			c-8.3-19.3-13.6-39.3-14.1-60.8c-0.6-22.7,4.4-44,12.7-64.5c5.8-14.4,14.3-27.4,24.6-39.1c17.2-19.5,37.4-35,61.9-44.1
			c19.2-7.2,39-12.7,59.8-11.3c23.6,1.6,46.2,7.2,67.3,18.3c9.2,4.8,18.1,10,25.9,16.7c18.8,16,34,34.8,44.4,57.5
			c8.6,18.8,12.8,38.5,13.8,58.8c0.7,14.8-1.6,29.4-5.2,43.8c-5.9,23-17.6,42.9-32.4,61.2c-3.8,4.7-8.1,8.8-12.6,12.7
			c-1.2,1-3.3,1.8-2.4,3.8c0.8,1.8,2.8,1.5,4.4,1.5C360.9,363.3,371.8,363.3,382.6,363.2C382.6,363.3,382.6,363.3,382.6,363.2z
			 M128.1,225.3c0,20.1,16.7,37.3,36.4,37.2c22-0.2,37.6-15.9,38-35.7c0.4-22.7-16.4-37.8-36-38.5
			C143.4,187.4,127.1,208.2,128.1,225.3z M223.3,359.3c19.1,1.7,37.6-15.9,37.6-36.8c0-20.6-16.3-37.1-37-37
			c-19.6,0.1-37.3,14.3-37.5,37.6C186.2,343,203.4,360.7,223.3,359.3z M321.2,227.5c-18.8-1.9-37.4,15.2-37.4,36.8
			c0,20.3,16.5,37.9,36.3,37.6c21.1-0.3,38.2-17.9,38.1-38.6C358.1,245.7,338.9,224.9,321.2,227.5z M298.9,166
			c1-23.3-19.8-37.9-38.6-36.1c-21,2-35.7,15.5-34.3,41.7c1,18.2,19.5,34.1,39.1,32.9C281.7,203.4,301.1,187.2,298.9,166z
			 M242.6,227.5c-9.6-1.4-17.2,8.9-16.8,17.5c0.4,9.1,7.8,17.3,16.5,17.4c9.1,0.1,18.3-8.7,18.4-17.7
			C260.9,235.3,252.7,227.5,242.6,227.5z"/>
	</g>
</g>
</svg>
