<?xml version="1.0" encoding="utf-8"?>
<!-- Generator: Adobe Illustrator 19.2.0, SVG Export Plug-In . SVG Version: 6.00 Build 0)  -->
<svg version="1.1" xmlns="http://www.w3.org/2000/svg" xmlns:xlink="http://www.w3.org/1999/xlink" x="0px" y="0px"
	 viewBox="0 0 480 480" style="enable-background:new 0 0 480 480;" xml:space="preserve">
<style type="text/css">
	.st0{display:none;}
	.st1{display:inline;fill-rule:evenodd;clip-rule:evenodd;fill:#434343;}
	.st2{fill-rule:evenodd;clip-rule:evenodd;fill:#434343;}
	.st3{fill-rule:evenodd;clip-rule:evenodd;fill:#8A8A8A;}
	.st4{fill-rule:evenodd;clip-rule:evenodd;fill:#BDBDBD;}
	.st5{fill-rule:evenodd;clip-rule:evenodd;fill:#FFFFFF;}
</style>
<g id="BG" class="st0">
	<rect class="st1" width="480" height="480"/>
</g>
<g id="Layer_4">
	<circle class="st2" cx="240" cy="239.4" r="240.6"/>
</g>
<g id="BG_1_">
	<path class="st3" d="M179.2,203.3c28.7-0.1,32.9,20.6,43.4,38.3c2.6,4.4,11.4,17.1,12,21.7c0,0-33.8,57-50.2,85.1
		c-0.3,0,0.3-1.3,0.3-1.5c4.9-11.8,7.1-31.3,1.7-44.7c-2.4-5.9-6.5-11.2-9.5-16.6c-5.8-10.7-11.2-20.9-17.3-31.4
		c-1.5-2.7-3.8-5-5.1-8c-7.2-16.6,2.1-32.6,12.6-39C170.7,205.1,174.8,205.1,179.2,203.3z"/>
	<path class="st4" d="M201.8,222.5c18.6-0.1,20.7,11.4,27.4,22.9c2.3,3.8,4.9,13.1,5.4,18l-27.9,47.1c10.8-27.2-11.8-44-19.3-62.6
		c-3.9-9.6,2.2-19.3,7.5-22.6C197,223.9,199.4,223.6,201.8,222.5z"/>
	<path class="st5" d="M396.6,307.2c-4-12.5-11-22.7-17.2-33.2c-10.7-18.8-21.3-37.7-32-56.5c-14.4-25.5-28.8-51-43.2-76.5
		c-7.7-13-13.9-27.5-23.1-39.1c-10.1-12.7-26.6-21.3-49.7-21c-3.9,0.6-7.9,1.2-11.8,1.9c-8.4,2.6-15.6,6.1-21.8,10.8
		c-10,7.5-15.6,18.7-22.2,29.7c-6.9,11.9-13.9,23.8-20.8,35.7c-26.3,45.1-52.6,90.2-79,135.3c-2.4,4.6-4,10-5.4,15.4
		c-7.8,30.6,12.3,55.4,29.5,65.7c4.6,2.7,10.3,4.8,16,6.2c35.4,9.1,61.8-15.7,70.9-38.4c2.9-7.4,5.3-19.7,3.1-29.9
		c-4-18.9-13.7-29.3-20.6-43c0,0-5.9-9.4-8.8-13.5c-3.2-6-8.3-14-8.3-22.3c0-17,13.7-30.7,30.7-30.7c13,0,21.8,9.7,29.1,19.6
		c4.2,6.2,6.8,12.3,9.1,16.2c16.8,29.6,33.2,59.1,50,88.7c10,16.9,17.2,35,33,46.1c14.6,10.3,39.2,13.9,58.6,5.4
		C384.4,370.3,407.5,341.1,396.6,307.2z"/>
</g>
<g id="Plus">
	<path class="st5" d="M402.1,103.6h-13.6V90.2c0-5.1-4.2-9.3-9.3-9.3c-5.1,0-9.3,4.2-9.3,9.3v13.9h-13.6c-5.1,0-9.3,4.2-9.3,9.3
		s4.2,9.3,9.3,9.3h13.6v13.4c0,5.1,4.2,9.3,9.3,9.3c5.1,0,9.3-4.2,9.3-9.3v-13.9h13.6c5.1,0,9.3-4.2,9.3-9.3
		C411.3,107.8,407.2,103.6,402.1,103.6z"/>
	<path class="st3" d="M369.8,122.7c-0.1,0-0.2,0-0.3,0L369.8,122.7l0.1,13.4c0,5.1,4.2,9.3,9.3,9.3c5.1,0,9.3-4.2,9.3-9.3v-2
		C385,127.3,377.9,122.7,369.8,122.7z"/>
	<path class="st4" d="M369.8,122.7v13.4c0,5.1,4.2,9.3,9.3,9.3c1.5,0,2.9-0.4,4.2-1c1-2,1.5-4.2,1.5-6.6
		C384.9,129.5,378.1,122.7,369.8,122.7z"/>
</g>
</svg>
