<?xml version="1.0" encoding="utf-8"?>
<!-- Generator: Adobe Illustrator 21.0.0, SVG Export Plug-In . SVG Version: 6.00 Build 0)  -->
<svg version="1.1" id="图层_1" xmlns="http://www.w3.org/2000/svg" xmlns:xlink="http://www.w3.org/1999/xlink" x="0px" y="0px"
	 viewBox="0 0 500 500" style="enable-background:new 0 0 500 500;" xml:space="preserve">
<style type="text/css">
	.st0{display:none;}
</style>
<g>
	<path d="M469.2,248.1c0.6,122.4-97.6,220.3-217.4,222c-127,1.7-221.5-97.6-225.4-213C22,126.9,125.7,25,251.8,27.1
		C373.3,29.1,469.2,127.8,469.2,248.1z M42.9,248.6C40.7,358.6,134,456.6,252.4,454.1c109.8-2.3,201.3-92.4,200.9-206
		c-0.3-115-94.5-205.9-207.5-205C133.3,44,41,138,42.9,248.6z"/>
	<path class="st0" d="M42.9,248.6C41,138,133.3,44,245.8,43.1c113-0.9,207.2,90,207.5,205c0.3,113.6-91.2,203.7-200.9,206
		C134,456.6,40.7,358.6,42.9,248.6z M191.2,293.3c0,7.5-0.2,15,0.1,22.4c0.2,4.3,0.5,8.8,2,12.7c4.4,11.1,19.6,14.6,31.1,7.7
		c12.3-7.4,24.5-14.7,36.9-21.9c25-14.6,50-29.1,74.9-43.7c16.8-9.9,16.9-29.3,0.4-39.5c-6.4-3.9-12.9-7.6-19.3-11.4
		c-30.4-17.9-60.7-35.8-91.1-53.7c-7.3-4.3-15.2-6.3-23.4-3.2c-9.8,3.7-11.5,12.4-11.6,21.3C191.1,220.5,191.2,256.9,191.2,293.3z"
		/>
	<path d="M191.2,293.3c0-36.4-0.1-72.8,0.1-109.2c0-8.9,1.8-17.6,11.6-21.3c8.2-3.1,16.1-1.1,23.4,3.2
		c30.4,17.9,60.7,35.8,91.1,53.7c6.4,3.8,13,7.4,19.3,11.4c16.5,10.2,16.4,29.6-0.4,39.5c-24.9,14.7-50,29.1-74.9,43.7
		c-12.3,7.2-24.6,14.6-36.9,21.9c-11.5,6.9-26.8,3.4-31.1-7.7c-1.5-3.9-1.8-8.4-2-12.7C191,308.3,191.2,300.8,191.2,293.3z
		 M204,251.1C204,251.1,204.1,251.1,204,251.1c0,21.6-0.1,43.2,0.2,64.8c0.1,3.2,1.7,7.5,4.1,9.3c1.7,1.3,6.4,0.1,8.9-1.4
		c23.1-13.4,46.1-27.1,69.1-40.7c14.9-8.8,29.9-17.4,44.6-26.4c6.8-4.2,6.2-9.1-0.7-13.2c-15.9-9.3-31.8-18.7-47.7-28
		c-22.1-13-44.1-26-66.2-38.8c-7.2-4.2-11.2-1.8-12.1,6.5c-0.1,1.3-0.2,2.7-0.2,4C204,208.5,204,229.8,204,251.1z"/>
	<path d="M202.9,251.1c0-21.6,0-43.3,0-64.9c0-1.4,0-2.7,0.2-4.1c1-8.4,5-10.8,12.4-6.6c22.5,13,44.9,26.3,67.4,39.5
		c16.2,9.5,32.3,19,48.5,28.5c7.1,4.1,7.6,9.2,0.7,13.4c-15,9.2-30.2,17.9-45.4,26.8c-23.4,13.8-46.8,27.8-70.4,41.4
		c-2.6,1.5-7.4,2.7-9.1,1.4c-2.4-1.9-4.1-6.2-4.1-9.5C202.7,295.1,202.9,273.1,202.9,251.1C202.9,251.1,202.9,251.1,202.9,251.1z"/>
</g>
</svg>
