<?xml version="1.0" encoding="utf-8"?>
<!-- Generator: Adobe Illustrator 21.0.0, SVG Export Plug-In . SVG Version: 6.00 Build 0)  -->
<svg version="1.1" xmlns="http://www.w3.org/2000/svg" xmlns:xlink="http://www.w3.org/1999/xlink" x="0px" y="0px"
	 viewBox="0 0 500 500" style="enable-background:new 0 0 500 500;" xml:space="preserve">
<style type="text/css">
	.st0{fill:#FFFFFF;stroke:#FFFFFF;stroke-miterlimit:10;}
</style>
<g id="图层_2">
	<polygon class="st0" points="432.4,155.6 156.4,420.9 74.4,340.3 354.4,73.6 	"/>
</g>
<g id="图层_1">
	<g>
		<path d="M405.9,324c-10.3,4.1-18.7,7-26.5,10.9c-2.5,1.2-9.5,20.6-12.4,26.6c-2,4.1-5.6,6.4-10.9,6.4c-11.3,0-21,18.1-21.2,18.3
			c-2.3,4.5-4.6,8.9-7,13.4c-3.5-2.9-251.3-248.7-258.4-256c-1.5-1.5,3.6-23,20.5-48.1"/>
		<path d="M140.1,310.7c5.9,6.2,14.9,12.5,20.6,19c3.6,4.1,6.4,8.5,1.3,14.2c-4.8,5.4-10.8,4.5-15.6,1.3
			c-15.1-13.7-22.5-20.7-22.5-20.7c-3.1,3.2-12,12.6-15.1,15.8c-4.4,4.6-3.2,10.1,0.2,13.6c12,12.6,24.7,24.5,37.1,36.7
			c0.2,0.2,12.4,12.3,24.9,2.2c3.1-2.5,76.9-72.2,76.9-72.2s16.3,16.5,18.5,18.3c0,0-78.7,80.3-94.1,95c-3.4,3.2-7.6,5.6-11.8,7.9
			c-1.5,0.8-4.3,0.9-5.7,0c-4.5-2.9-74.7-72.3-82.9-82.5c-9.4-11.8-8.3-18.2,2.5-28.3c5.7-5.4,76.9-74.7,95.3-92.6
			c3.3-3.2,24.8,19.3,23.5,20l-19.6,20.8c8,8.5,16.9,15.5,20.3,19.9c3.6,4.7,3.2,10.6-1.9,14.2c-4.9,3.4-9.3,2.7-12.8-1.2
			l-22.1-18.8L140.1,310.7z"/>
		<path d="M353.6,60.1c4.6,2.7,8.2,3.9,10.6,6.4c12.6,12.7,63.3,63.3,76.3,75.7c8.3,8,7.9,18.9-0.4,26.7
			c-12.7,12-170.9,171-173.5,170.1c-1.4-0.5-19.5-16.3-18.5-18.3c2.9-6.3,137.2-141.6,142-146.3c5.7-5.5,11.3-11.1,16.5-17.1
			c0.9-1.1,0.4-4.8-0.8-6c-8.8-8.9-41.1-40.3-47.6-47.8c-3.8-4.4-6.7-5.5-10.7-0.5c-3.4,4.2-16.3,19.1-16.3,19.1
			c4.7,4.2,14.8,13.8,18.8,18.7c4,4.9,3.1,12.8-1.4,16.6c-3.9,3.2-11.3,1.7-15.3-2.6c-3.9-4.1-17.3-16.1-17.3-16.1l-17,17.6
			c0.5,1.8,16.2,13.1,19.5,17.6c4.1,5.6,2.6,11-3.3,15.3c-5.2,3.7-9.1,2.6-13.5-2c-5-5.2-11.7-10.9-16.9-16l-19.3,21
			c0,0-21.8-20.8-23.3-23.4C242,168.6,348.7,63.1,353.6,60.1z"/>
		<path d="M417.6,426.6c-5.4-1.4-13.3-3.5-21.3-5.5c-4.9-1.2-9.9-3.1-14.9-3.4c-6.2-0.4-7.4-2.9-6.3-8.6c2.6-13.5,11-23.3,21-31.6
			c4.3-3.5,10.7-4.5,16.2-6.3c5.1-1.7,7.2,1.4,8.4,5.8c3.4,11.9,7,23.8,10.6,35.7C434.4,422.9,431.3,426.9,417.6,426.6z"/>
		<path d="M90.1,95.4c19.2-16.1,39-28.2,49.3-28.2c0,0,255.3,245.6,266.5,256.9"/>
	</g>
</g>
</svg>
