<svg xmlns="http://www.w3.org/2000/svg" viewBox="0 0 500 509"><defs><style>.cls-1,.cls-3{fill:#fff;}.cls-1{opacity:0.59;}.cls-2{opacity:0.56;}.cls-4{fill:none;}</style></defs><title>icon-rotate</title><g id="Layer_2" data-name="Layer 2"><rect class="cls-1" y="9" width="500" height="500" rx="67" ry="67"/></g><g id="Layer_1" data-name="Layer 1"><g class="cls-2"><rect x="104.92" y="81.19" width="134.11" height="257.16" rx="19.19" ry="19.19"/><rect class="cls-3" x="113.51" y="99.81" width="116.93" height="211.35"/></g><rect x="224.93" y="148.25" width="134.11" height="257.16" rx="19.19" ry="19.19" transform="translate(568.81 -15.15) rotate(90)"/><rect class="cls-3" x="237.81" y="171.16" width="116.93" height="211.35" transform="translate(573.11 -19.45) rotate(90)"/><path class="cls-4" d="M276,117.75A64.26,64.26,0,0,1,340.23,182"/><path d="M345,182h-9.57A59.54,59.54,0,0,0,276,122.53V113A69.12,69.12,0,0,1,345,182Z"/><polygon points="338.86 191.64 352.75 172.37 324.97 172.37 338.86 191.64"/><path d="M52.75,382.92h5.58a18.43,18.43,0,0,1,6.53.82A6.68,6.68,0,0,1,68,386.45a8.32,8.32,0,0,1,1.18,4.49,7.65,7.65,0,0,1-1.31,4.56,7.92,7.92,0,0,1-3.94,2.77l6.55,12.3H64.72L58.5,398.86H58v11.71H52.75ZM58,393.73h1.65a6.44,6.44,0,0,0,3.46-.66,2.48,2.48,0,0,0,.95-2.19,2.68,2.68,0,0,0-.47-1.58,2.6,2.6,0,0,0-1.26-1,9.52,9.52,0,0,0-2.89-.29H58Z"/><path d="M87.79,382.22a13.73,13.73,0,0,1,10.09,4.25,14.14,14.14,0,0,1,4.22,10.36,14,14,0,0,1-4.17,10.25A14.44,14.44,0,0,1,77.48,407a14.53,14.53,0,0,1,10.31-24.74Zm-.06,5.15A8.68,8.68,0,0,0,81.27,390a9.3,9.3,0,0,0-2.62,6.79A8.84,8.84,0,0,0,82,404.09a9,9,0,0,0,5.87,2.09,8.57,8.57,0,0,0,6.38-2.71,9.76,9.76,0,0,0,0-13.36A8.65,8.65,0,0,0,87.73,387.37Z"/><path d="M104.34,382.92h15.28v5.19h-5v22.47h-5.34V388.11h-4.91Z"/><path d="M131.67,382.92H137l10.64,27.66h-5.47l-2.16-5.7H128.73l-2.25,5.7H121Zm2.7,7.33-3.71,9.49h7.4Z"/><path d="M149,382.92h15.28v5.19h-5v22.47H153.9V388.11H149Z"/><path d="M167.91,382.92H183v5.15h-9.87v5H183v5.06h-9.87v7.28H183v5.17h-15.1Z"/><path d="M196.72,382.92h5.65l5.16,9.95,5.14-9.95h5.58l-8.09,15.68v12h-5.3v-12Z"/><path d="M235.62,382.22a13.74,13.74,0,0,1,10.09,4.25,14.14,14.14,0,0,1,4.22,10.36,14,14,0,0,1-4.17,10.25,14.44,14.44,0,0,1-20.46-.11,14.53,14.53,0,0,1,10.31-24.74Zm-.06,5.15a8.68,8.68,0,0,0-6.46,2.67,9.3,9.3,0,0,0-2.62,6.79,8.84,8.84,0,0,0,3.29,7.26,9,9,0,0,0,5.87,2.09,8.57,8.57,0,0,0,6.38-2.71,9.76,9.76,0,0,0,0-13.36A8.65,8.65,0,0,0,235.56,387.37Z"/><path d="M254.71,382.92H260V400.8a9.26,9.26,0,0,0,.4,3.27,3.25,3.25,0,0,0,1.33,1.53,4.2,4.2,0,0,0,2.25.57,4.38,4.38,0,0,0,2.4-.64,3.36,3.36,0,0,0,1.39-1.62,12.06,12.06,0,0,0,.39-3.77V382.92h5.28V399.4a23.93,23.93,0,0,1-.47,5.79,8.21,8.21,0,0,1-1.8,3.12,8.34,8.34,0,0,1-3.05,2.23,10.38,10.38,0,0,1-4,.72,9.72,9.72,0,0,1-5.24-1.38,8,8,0,0,1-3.19-3.46q-1-2.08-1-7Z"/><path d="M279.9,382.92h5.58a18.42,18.42,0,0,1,6.52.82,6.69,6.69,0,0,1,3.13,2.72,8.32,8.32,0,0,1,1.18,4.49A7.65,7.65,0,0,1,295,395.5a7.92,7.92,0,0,1-3.94,2.77l6.55,12.3h-5.76l-6.22-11.71h-.48v11.71H279.9Zm5.26,10.81h1.65a6.44,6.44,0,0,0,3.46-.66,2.48,2.48,0,0,0,.95-2.19,2.68,2.68,0,0,0-.47-1.58,2.6,2.6,0,0,0-1.26-1,9.52,9.52,0,0,0-2.89-.29h-1.44Z"/><path d="M327.17,386.68l-3.9,3.44q-2.05-2.86-4.18-2.86a2.54,2.54,0,0,0-1.7.55,1.61,1.61,0,0,0-.66,1.25,2.14,2.14,0,0,0,.47,1.32,35.71,35.71,0,0,0,3.86,3.55q3,2.52,3.65,3.18A11,11,0,0,1,327,400.2a7.72,7.72,0,0,1,.67,3.22,7.39,7.39,0,0,1-2.35,5.62,8.58,8.58,0,0,1-6.14,2.22,9.12,9.12,0,0,1-5.15-1.45,11.43,11.43,0,0,1-3.76-4.55l4.43-2.67q2,3.67,4.59,3.67a3.38,3.38,0,0,0,2.28-.79,2.35,2.35,0,0,0,.92-1.82,3.15,3.15,0,0,0-.7-1.88,20.1,20.1,0,0,0-3.07-2.88,31,31,0,0,1-5.84-5.69,7.23,7.23,0,0,1-1.32-4,6.53,6.53,0,0,1,2.19-4.94,7.61,7.61,0,0,1,5.41-2.06,8.54,8.54,0,0,1,3.94,1A14.37,14.37,0,0,1,327.17,386.68Z"/><path d="M358.1,387.78l-3.68,3.51a11.4,11.4,0,0,0-8.45-4,9.26,9.26,0,0,0-9.39,9.39,9.88,9.88,0,0,0,1.2,4.91,8.62,8.62,0,0,0,3.4,3.37,9.87,9.87,0,0,0,4.88,1.22,10.06,10.06,0,0,0,4.19-.86,15,15,0,0,0,4.17-3.11L358,406a19.6,19.6,0,0,1-5.79,4.15,15.81,15.81,0,0,1-6.22,1.16,14.32,14.32,0,0,1-10.56-4.09,14.16,14.16,0,0,1-4.11-10.48,14.35,14.35,0,0,1,1.87-7.35,13.92,13.92,0,0,1,5.36-5.17,15.12,15.12,0,0,1,7.51-2,15.94,15.94,0,0,1,12.05,5.56Z"/><path d="M363.06,382.92h5.58a18.42,18.42,0,0,1,6.52.82,6.69,6.69,0,0,1,3.13,2.72,8.32,8.32,0,0,1,1.18,4.49,7.65,7.65,0,0,1-1.31,4.56,7.92,7.92,0,0,1-3.94,2.77l6.55,12.3H375l-6.22-11.71h-.48v11.71h-5.26Zm5.26,10.81H370a6.44,6.44,0,0,0,3.46-.66,2.48,2.48,0,0,0,.95-2.19,2.68,2.68,0,0,0-.47-1.58,2.6,2.6,0,0,0-1.26-1,9.52,9.52,0,0,0-2.89-.29h-1.44Z"/><path d="M385.06,382.92h15.1v5.15h-9.87v5h9.87v5.06h-9.87v7.28h9.87v5.17h-15.1Z"/><path d="M405.08,382.92h15.1v5.15h-9.87v5h9.87v5.06h-9.87v7.28h9.87v5.17h-15.1Z"/><path d="M425.1,382.92h5L442,401.12v-18.2h5.26v27.66h-5.06l-11.82-18.14v18.14H425.1Z"/><path d="M111.38,429.12h13.72v5.13h-8.5v5h8.5v5.06h-8.5v12.45h-5.23Z"/><path d="M142.84,428.43a13.73,13.73,0,0,1,10.09,4.25A14.14,14.14,0,0,1,157.16,443,14,14,0,0,1,153,453.28a14.44,14.44,0,0,1-20.46-.11,14.53,14.53,0,0,1,10.31-24.74Zm-.06,5.15a8.68,8.68,0,0,0-6.46,2.67,9.3,9.3,0,0,0-2.62,6.79,8.84,8.84,0,0,0,3.29,7.26,9,9,0,0,0,5.87,2.09,8.57,8.57,0,0,0,6.38-2.71,9.76,9.76,0,0,0,0-13.36A8.65,8.65,0,0,0,142.79,433.58Z"/><path d="M162.48,429.12h5.58a18.43,18.43,0,0,1,6.53.82,6.68,6.68,0,0,1,3.13,2.72,8.32,8.32,0,0,1,1.18,4.49,7.65,7.65,0,0,1-1.31,4.56,7.92,7.92,0,0,1-3.94,2.77l6.55,12.3h-5.75l-6.22-11.71h-.48v11.71h-5.26Zm5.26,10.81h1.65a6.44,6.44,0,0,0,3.46-.66,2.48,2.48,0,0,0,.95-2.19,2.68,2.68,0,0,0-.47-1.58,2.6,2.6,0,0,0-1.26-1,9.52,9.52,0,0,0-2.89-.29h-1.44Z"/><path d="M197.92,429.12H203l6.41,19.29,6.47-19.29h5.13l4.64,27.66H220.6l-3-17.47-5.88,17.47h-4.64l-5.82-17.47-3,17.47h-5.13Z"/><path d="M242.94,428.43A13.74,13.74,0,0,1,253,432.68,14.14,14.14,0,0,1,257.26,443a14,14,0,0,1-4.17,10.25,14.44,14.44,0,0,1-20.46-.11,14.53,14.53,0,0,1,10.31-24.74Zm-.06,5.15a8.68,8.68,0,0,0-6.46,2.67,9.3,9.3,0,0,0-2.62,6.79,8.84,8.84,0,0,0,3.29,7.26,9,9,0,0,0,5.87,2.09,8.57,8.57,0,0,0,6.38-2.71,9.76,9.76,0,0,0,0-13.36A8.66,8.66,0,0,0,242.88,433.58Z"/><path d="M262.58,429.12h5.58a18.42,18.42,0,0,1,6.52.82,6.69,6.69,0,0,1,3.13,2.72,8.32,8.32,0,0,1,1.18,4.49,7.65,7.65,0,0,1-1.31,4.56,7.92,7.92,0,0,1-3.94,2.77l6.55,12.3h-5.76l-6.22-11.71h-.48v11.71h-5.26Zm5.26,10.81h1.65a6.44,6.44,0,0,0,3.46-.66,2.48,2.48,0,0,0,.95-2.19,2.68,2.68,0,0,0-.47-1.58,2.6,2.6,0,0,0-1.26-1,9.52,9.52,0,0,0-2.89-.29h-1.44Z"/><path d="M284.57,429.12h15.1v5.15H289.8v5h9.87v5.06H289.8v7.28h9.87v5.17h-15.1Z"/><path d="M315,429.12h5.23v27.66H315Z"/><path d="M326.14,429.12h5L343,447.32v-18.2h5.26v27.66h-5.06l-11.82-18.14v18.14h-5.26Z"/><path d="M354.68,429.12h13.72v5.13h-8.5v5h8.5v5.06h-8.5v12.45h-5.23Z"/><path d="M386.15,428.43a13.74,13.74,0,0,1,10.09,4.25A14.14,14.14,0,0,1,400.46,443a14,14,0,0,1-4.17,10.25,14.44,14.44,0,0,1-20.46-.11,14.53,14.53,0,0,1,10.31-24.74Zm-.06,5.15a8.68,8.68,0,0,0-6.46,2.67A9.3,9.3,0,0,0,377,443a8.84,8.84,0,0,0,3.29,7.26,9,9,0,0,0,5.87,2.09,8.57,8.57,0,0,0,6.38-2.71,9.76,9.76,0,0,0,0-13.36A8.65,8.65,0,0,0,386.09,433.58Z"/></g></svg>