<svg xmlns="http://www.w3.org/2000/svg" viewBox="0 0 198.98 369.67"><defs><style>.cls-1{fill:none;}.cls-1,.cls-2,.cls-3,.cls-5{stroke:#fff;stroke-miterlimit:10;}.cls-1,.cls-2{stroke-width:4px;}.cls-2{opacity:0.6;}.cls-3,.cls-4,.cls-5{fill:#fff;}.cls-3{stroke-width:2px;}.cls-6{fill:#8821e8;}.cls-7{fill:#ee75df;}.cls-8{fill:#a566eb;}.cls-9{fill:#917cf0;}.cls-10{fill:#937df3;}.cls-11{fill:#f5cb82;}.cls-12{fill:#7acfee;}.cls-13{fill:#6bebaa;}.cls-14{fill:#26e896;}.cls-15{fill:#82f385;}.cls-16{fill:#81f084;}.cls-17{fill:#f89984;}.cls-18{fill:#f36d88;}.cls-19{fill:#ee9e65;}.cls-20{fill:#eb6857;}.cls-21{fill:#e87d58;}.cls-22{fill:#f06c86;}</style></defs><title>logo-p</title><g id="Frame"><rect class="cls-1" x="14.29" y="64.33" width="165.28" height="303.33"/><rect class="cls-2" x="14.29" y="64.33" width="165.28" height="303.33"/></g><g id="STUDIO"><path class="cls-3" d="M91.84,346.2a1.28,1.28,0,0,1-.36.94,1.25,1.25,0,0,1-.93.36H85.94a1.29,1.29,0,0,1-.94-.36,1.26,1.26,0,0,1-.37-.94v-4.65h1.63v4.51h4v-4.37l-5.06-6.12a2.13,2.13,0,0,1-.53-1.39v-3.71a1.26,1.26,0,0,1,.37-.94,1.29,1.29,0,0,1,.94-.36h4.62a1.25,1.25,0,0,1,.93.36,1.28,1.28,0,0,1,.36.94v4.27H90.21V330.6h-4v3.87l5.09,6.12a2.1,2.1,0,0,1,.5,1.37Z" transform="translate(-20.69 -9)"/><path class="cls-3" d="M103.44,330.6h-2.84v16.9H99V330.6H96.12v-1.44h7.32Z" transform="translate(-20.69 -9)"/><path class="cls-3" d="M115.36,346.2a1.26,1.26,0,0,1-.37.94,1.29,1.29,0,0,1-.94.36h-5a1.24,1.24,0,0,1-1.3-1.3v-17h1.63v16.9h4.35v-16.9h1.63Z" transform="translate(-20.69 -9)"/><path class="cls-3" d="M128.25,344.18a3.19,3.19,0,0,1-1,2.38,3.31,3.31,0,0,1-2.41.93h-4.2V329.16h4.2a3.3,3.3,0,0,1,2.41.93,3.2,3.2,0,0,1,.95,2.38Zm-1.63-.16v-11.4a2,2,0,0,0-.57-1.46,2,2,0,0,0-1.47-.56h-2.26v15.46h2.17a2.19,2.19,0,0,0,1.54-.54A1.93,1.93,0,0,0,126.62,344Z" transform="translate(-20.69 -9)"/><path class="cls-3" d="M135.23,347.5H133.6V329.16h1.63Z" transform="translate(-20.69 -9)"/><path class="cls-3" d="M148.43,346.2a1.26,1.26,0,0,1-.37.94,1.29,1.29,0,0,1-.94.36H142a1.24,1.24,0,0,1-1.3-1.3V330.46a1.24,1.24,0,0,1,1.3-1.3h5.13a1.29,1.29,0,0,1,.94.36,1.26,1.26,0,0,1,.37.94Zm-1.63-.14V330.6h-4.49v15.46Z" transform="translate(-20.69 -9)"/></g><g id="ISOTOPE"><path class="cls-4" d="M46.61,241.74H57.35v79.59H46.61Z" transform="translate(-20.69 -9)"/><path class="cls-4" d="M57.06,309.76a11.68,11.68,0,0,0,4.59,1.07A5.86,5.86,0,0,0,66.22,309a7.88,7.88,0,0,0,1.68-5.47,23.52,23.52,0,0,0-.63-5.52,103.5,103.5,0,0,0-4.49-13.55,108.25,108.25,0,0,1-4.83-15.11,38.75,38.75,0,0,1-.88-8.59q0-10.25,4-14.94a13,13,0,0,1,10.38-4.69,23,23,0,0,1,6.84,1.22v10.6a9.63,9.63,0,0,0-4.1-1.07,5.87,5.87,0,0,0-4.64,2.25q-1.9,2.25-1.9,6.54a24.91,24.91,0,0,0,.62,5.57A104,104,0,0,0,72.33,279a123.24,123.24,0,0,1,5.29,17,38.26,38.26,0,0,1,.83,8.15q0,8.59-4.17,13.21A13.48,13.48,0,0,1,63.85,322a23.55,23.55,0,0,1-6.79-1.27Z" transform="translate(-20.69 -9)"/><path class="cls-4" d="M76.57,282.56q0-23,4.93-33.45,3.81-8,9.47-8a8.43,8.43,0,0,1,5.18,2q2.54,2,4.69,7a53.38,53.38,0,0,1,3.27,13.53,137.87,137.87,0,0,1,1.12,18.09q0,24.32-5.91,34.38Q95.86,322,91.17,322q-6.59,0-10.21-9.37Q76.57,301,76.57,282.56ZM91,253.36a17.43,17.43,0,0,0-1.9,4.71,54.52,54.52,0,0,0-.93,9.2q-.44,10.45-.44,16.46,0,13.53,1.07,19.48a23.07,23.07,0,0,0,2.2,6.69,24,24,0,0,0,2-5.44,56.23,56.23,0,0,0,.78-9.2q.34-12.21.34-17.82,0-12.55-1-18A19.76,19.76,0,0,0,91,253.36Z" transform="translate(-20.69 -9)"/><path class="cls-4" d="M100.71,241.74h25.83v10.4H119v69.19H108.28V252.14h-7.57Z" transform="translate(-20.69 -9)"/><path class="cls-4" d="M122,282.56q0-23,4.93-33.45,3.81-8,9.47-8a8.43,8.43,0,0,1,5.18,2q2.54,2,4.69,7a53.4,53.4,0,0,1,3.27,13.53,138,138,0,0,1,1.12,18.09q0,24.32-5.91,34.38-3.47,5.91-8.15,5.91-6.59,0-10.21-9.37Q122,301,122,282.56Zm14.4-29.2a17.43,17.43,0,0,0-1.9,4.71,54.47,54.47,0,0,0-.93,9.2q-.44,10.45-.44,16.46,0,13.53,1.07,19.48a23,23,0,0,0,2.2,6.69,24,24,0,0,0,2-5.44,56.29,56.29,0,0,0,.78-9.2q.34-12.21.34-17.82,0-12.55-1-18A19.77,19.77,0,0,0,136.38,253.36Z" transform="translate(-20.69 -9)"/><path class="cls-4" d="M150.13,241.74h3.42q8.69,0,13.31,2.54a19.3,19.3,0,0,1,7.59,8.08,26,26,0,0,1,3,12.52,28.09,28.09,0,0,1-2.15,11,21.24,21.24,0,0,1-6.35,8.47,23.53,23.53,0,0,1-8.06,4v33H150.13Zm10.74,11.82v23.29q5.37-3.56,5.37-11.72A17,17,0,0,0,164.9,258,9.53,9.53,0,0,0,160.87,253.56Z" transform="translate(-20.69 -9)"/><path class="cls-4" d="M173.88,241.74h18.31v10.55h-7.57v25.1h7.57v10.35h-7.57v23.14h7.57v10.45H173.88Z" transform="translate(-20.69 -9)"/></g><g id="_2015" data-name="2015"><path class="cls-5" d="M106.79,366.23v1.44h-8a2.64,2.64,0,0,1,.17-1,5.46,5.46,0,0,1,1-1.62,15.45,15.45,0,0,1,2-1.84,16.56,16.56,0,0,0,2.68-2.58,3.09,3.09,0,0,0,.7-1.8,2,2,0,0,0-.63-1.5,2.29,2.29,0,0,0-1.66-.61,2.33,2.33,0,0,0-1.73.65,2.45,2.45,0,0,0-.66,1.79L99,359a3.78,3.78,0,0,1,1.19-2.62,4,4,0,0,1,2.76-.9,3.86,3.86,0,0,1,2.77,1,3.19,3.19,0,0,1,1,2.41,3.65,3.65,0,0,1-.3,1.44,5.57,5.57,0,0,1-1,1.49,24.26,24.26,0,0,1-2.3,2.14q-1.34,1.13-1.73,1.53a4.89,4.89,0,0,0-.63.81Z" transform="translate(-20.69 -9)"/><path class="cls-5" d="M108.22,361.66a11.14,11.14,0,0,1,.44-3.47,4.32,4.32,0,0,1,1.32-2,3.38,3.38,0,0,1,2.2-.71,3.6,3.6,0,0,1,1.72.39,3.28,3.28,0,0,1,1.22,1.14,6.09,6.09,0,0,1,.76,1.81,12,12,0,0,1,.27,2.88,11.18,11.18,0,0,1-.44,3.46,4.32,4.32,0,0,1-1.32,2,3.38,3.38,0,0,1-2.21.72,3.34,3.34,0,0,1-2.76-1.26Q108.22,365.09,108.22,361.66Zm1.54,0q0,3,.7,4a2,2,0,0,0,3.46,0q.7-1,.7-4t-.7-4a2.08,2.08,0,0,0-1.75-1,1.91,1.91,0,0,0-1.64.87A7.71,7.71,0,0,0,109.75,361.66Z" transform="translate(-20.69 -9)"/><path class="cls-5" d="M122.45,367.67H121v-9.52a7.7,7.7,0,0,1-1.42,1,10,10,0,0,1-1.57.77V358.5a9,9,0,0,0,2.19-1.43,5.63,5.63,0,0,0,1.33-1.63h1Z" transform="translate(-20.69 -9)"/><path class="cls-5" d="M125.43,364.48l1.57-.13a2.81,2.81,0,0,0,.81,1.72,2.19,2.19,0,0,0,1.53.58,2.38,2.38,0,0,0,1.83-.81,3.07,3.07,0,0,0,.75-2.16,2.77,2.77,0,0,0-.72-2,2.51,2.51,0,0,0-1.88-.74,2.6,2.6,0,0,0-1.3.33,2.54,2.54,0,0,0-.91.85l-1.4-.18,1.18-6.25h6.05v1.43h-4.86l-.66,3.27a4,4,0,0,1,2.3-.76,3.64,3.64,0,0,1,2.69,1.1,3.86,3.86,0,0,1,1.1,2.84,4.43,4.43,0,0,1-1,2.86,3.86,3.86,0,0,1-3.2,1.48,3.94,3.94,0,0,1-2.71-.93A3.63,3.63,0,0,1,125.43,364.48Z" transform="translate(-20.69 -9)"/></g><g id="Blocks"><g id="R"><rect class="cls-6" x="161.49" y="128.72" width="53.89" height="53.89" transform="translate(-18.46 304.99) rotate(-79.93)"/><rect class="cls-7" x="149.48" y="166.26" width="31.57" height="31.57" transform="translate(-46.85 18.74) rotate(-8.89)"/><rect class="cls-8" x="144.19" y="182.62" width="18.59" height="18.59" transform="translate(-60.72 334.38) rotate(-89.4)"/><rect class="cls-9" x="136.68" y="210.38" width="8.58" height="8.58" transform="translate(-119.64 297.27) rotate(-77.61)"/><rect class="cls-4" x="131.3" y="219.7" width="6" height="6" transform="translate(-95.25 58.75) rotate(-22.34)"/><rect class="cls-4" x="108.77" y="218.11" width="3.39" height="3.39"/><rect class="cls-10" x="117.52" y="187.58" width="12.73" height="12.73"/></g><g id="M"><rect class="cls-11" x="70.86" y="19.88" width="88.27" height="88.27" transform="translate(-0.25 146.57) rotate(-73.18)"/><rect class="cls-12" x="56.52" y="82.7" width="24.63" height="24.63"/><rect class="cls-13" x="100.13" y="111.22" width="34.56" height="34.56" transform="matrix(0.99, -0.11, 0.11, 0.99, -34.26, 4.86)"/><rect class="cls-14" x="94.96" y="71.08" width="57.2" height="57.2" transform="translate(-42.75 27.44) rotate(-15.42)"/><rect class="cls-11" x="112.43" y="143.64" width="21.19" height="21.18" transform="translate(-62.27 36.47) rotate(-17.97)"/><rect class="cls-12" x="119.11" y="163.91" width="14.02" height="14.02" transform="translate(-88.12 249.43) rotate(-77.91)"/><rect class="cls-15" x="111.37" y="177.53" width="9" height="9" transform="translate(-58.71 21.78) rotate(-13.02)"/><rect class="cls-4" x="95.19" y="178.86" width="7.68" height="7.68"/><rect class="cls-16" x="111.37" y="195.54" width="5.3" height="5.3" transform="translate(-52.36 12.97) rotate(-9.67)"/><rect class="cls-17" x="112.69" y="199.81" width="6.95" height="5.63" transform="translate(-125.26 269.96) rotate(-79.25)"/><rect class="cls-4" x="115.12" y="207.08" width="5.27" height="5.27" transform="translate(-128.87 283.19) rotate(-80.74)"/></g><g id="L"><rect class="cls-18" x="25.84" y="119.39" width="40.28" height="40.28" transform="translate(-60.74 11.44) rotate(-17.6)"/><rect class="cls-19" x="29.42" y="137.55" width="22.84" height="22.84"/><rect class="cls-18" x="63.97" y="162.93" width="16.53" height="16.53" transform="translate(-131.73 192.78) rotate(-76.6)"/><rect class="cls-20" x="76.76" y="176.4" width="15.3" height="15.3" transform="translate(-67.63 20.95) rotate(-15.81)"/><rect class="cls-4" x="83" y="194.5" width="9" height="9" transform="translate(-150 205.81) rotate(-70.44)"/><rect class="cls-21" x="88.67" y="205.1" width="7.53" height="7.53" transform="translate(-62.07 14.76) rotate(-11.99)"/><rect class="cls-4" x="74.31" y="203.5" width="4.5" height="4.5"/><rect class="cls-4" x="99.36" y="218.02" width="3.56" height="3.56" transform="translate(-154.75 267.58) rotate(-78.86)"/><rect class="cls-22" x="66.97" y="179.75" width="7.52" height="7.52"/></g></g></svg>