<svg xmlns="http://www.w3.org/2000/svg" viewBox="0 0 1000 1000"><defs><style>.cls-1{fill:none;stroke-width:9px;}.cls-1,.cls-2{stroke:#fff;stroke-miterlimit:10;}.cls-2{fill:#fff;stroke-width:4px;}.cls-3{fill:#f36d88;}.cls-4{fill:#f5cb82;}.cls-5{fill:#26e896;}.cls-6{fill:#7acfee;}.cls-7{fill:#ee9e65;}.cls-8{fill:#a566eb;}.cls-9{fill:#ee75df;}</style></defs><title>logo-s</title><g id="Frame"><rect id="_Rectangle_" data-name="&lt;Rectangle&gt;" class="cls-1" x="30.61" y="30.61" width="938.77" height="938.77"/></g><g id="STUDIO"><g id="_Group_" data-name="&lt;Group&gt;"><path class="cls-2" d="M96.07,800.88a4.34,4.34,0,0,1-1.51,3.42,5.74,5.74,0,0,1-3.93,1.33H71.16a5.93,5.93,0,0,1-4-1.33,4.28,4.28,0,0,1-1.56-3.42v-17h6.87v16.45H89.2V784.43L67.84,762.12A7.18,7.18,0,0,1,65.62,757V743.49a4.28,4.28,0,0,1,1.56-3.42,5.93,5.93,0,0,1,4-1.33H90.64a5.74,5.74,0,0,1,3.93,1.33,4.34,4.34,0,0,1,1.51,3.42V759H89.2V744H72.49v14.1l21.46,22.31a7.06,7.06,0,0,1,2.13,5Z"/><path class="cls-2" d="M266.52,744h-12v61.62h-6.87V744H235.62v-5.26h30.9Z"/><path class="cls-2" d="M438.31,800.88a4.28,4.28,0,0,1-1.56,3.42,5.93,5.93,0,0,1-4,1.33H411.71a5.83,5.83,0,0,1-4-1.33,4.31,4.31,0,0,1-1.53-3.42V738.74h6.87v61.62h18.34V738.74h6.87Z"/><path class="cls-2" d="M614.2,793.53a10.86,10.86,0,0,1-4,8.7,15.22,15.22,0,0,1-10.16,3.4h-17.7V738.74H600a15.2,15.2,0,0,1,10.19,3.4,10.89,10.89,0,0,1,4,8.7Zm-6.87-.6V751.35a6.64,6.64,0,0,0-2.4-5.32,9.28,9.28,0,0,0-6.21-2h-9.54v56.37h9.15a10.13,10.13,0,0,0,6.5-2A6.59,6.59,0,0,0,607.32,792.93Z"/><path class="cls-2" d="M765.17,805.62h-6.87V738.74h6.87Z"/><path class="cls-2" d="M942.39,800.88a4.28,4.28,0,0,1-1.56,3.42,5.93,5.93,0,0,1-4,1.33H915.2a5.83,5.83,0,0,1-4-1.33,4.31,4.31,0,0,1-1.53-3.42V743.49a4.31,4.31,0,0,1,1.53-3.42,5.83,5.83,0,0,1,4-1.33h21.66a5.93,5.93,0,0,1,4,1.33,4.28,4.28,0,0,1,1.56,3.42Zm-6.87-.51V744H916.58v56.37Z"/></g></g><g id="ISOTOPE"><path id="_Compound_Path_" data-name="&lt;Compound Path&gt;" class="cls-3" d="M345,224.73l241.6.65-39.78,62.4H501.24v419.4H436.12V287.78H390.24Z"/><path id="_Compound_Path_2" data-name="&lt;Compound Path&gt;" class="cls-4" d="M62.27,224.73h65.12V707.18H62.27Z"/><path id="_Compound_Path_3" data-name="&lt;Compound Path&gt;" class="cls-5" d="M127.36,643.5c12.39.5,17.61,0,26.1,0q17.46,0,27.67-11.25t10.21-33.15a142.61,142.61,0,0,0-3.85-33.45q-7.4-31.67-27.23-82.13T131,392q-5.33-23.38-5.33-52.09,0-62.16,24.12-90.57t62.9-28.41q18.05,0,41.44,7.4v64.23Q240.47,286,229.23,286q-16.58,0-28.12,13.62t-11.54,39.66A151,151,0,0,0,193.35,373q7.27,31.08,24.82,77.25,22,57.72,32.07,103.3a231.93,231.93,0,0,1,5,49.43q0,52.1-25.31,80.06c-16.87,18.65-37,24.12-62.22,24.12H127.39Z"/><path id="_Compound_Path_4" data-name="&lt;Compound Path&gt;" class="cls-6" d="M243.91,472.17q0-139.7,29.89-202.75,23.09-48.54,57.42-48.54,16,0,31.37,11.84T391,275.2q13,30.63,19.83,82a835.79,835.79,0,0,1,6.81,109.66q0,147.4-35.81,208.37Q360.82,711,332.41,711q-40,0-61.86-56.83Q243.91,584.05,243.91,472.17Zm87.31-177a105.62,105.62,0,0,0-11.54,28.56q-3.85,15.54-5.62,55.79-2.66,63.34-2.66,99.75,0,82,6.51,118.1,4.14,23.09,13.32,40.55a145.27,145.27,0,0,0,12.14-33q3.55-15.83,4.74-55.79,2.07-74,2.07-108,0-76.06-6.22-108.92Q339.8,310.27,331.23,295.18Z"/><path id="_Compound_Path_5" data-name="&lt;Compound Path&gt;" class="cls-7" d="M519.11,472.17q0-139.7,29.89-202.75,23.09-48.54,57.42-48.54,16,0,31.37,11.84t28.41,42.47q13,30.63,19.83,82a836,836,0,0,1,6.81,109.66q0,147.4-35.81,208.37Q636,711,607.61,711q-40,0-61.86-56.83Q519.11,584.05,519.11,472.17Zm87.31-177a105.57,105.57,0,0,0-11.54,28.56q-3.85,15.54-5.62,55.79-2.66,63.34-2.66,99.75,0,82,6.51,118.1,4.14,23.09,13.32,40.55a145.25,145.25,0,0,0,12.13-33q3.55-15.83,4.74-55.79,2.07-74,2.07-108,0-76.06-6.21-108.92Q615,310.27,606.43,295.18Z"/><path id="_Compound_Path_6" data-name="&lt;Compound Path&gt;" class="cls-8" d="M689.78,224.73H710.5q52.68,0,80.65,15.39t46,49q18,33.6,18.05,75.92,0,35.82-13,66.74a128.76,128.76,0,0,1-38.48,51.35q-17.76,14.51-48.84,24V707.18H689.78Zm65.12,71.63V437.54q32.56-21.6,32.56-71,0-26-8.14-43.51A57.78,57.78,0,0,0,754.89,296.36Z"/><path id="_Compound_Path_7" data-name="&lt;Compound Path&gt;" class="cls-9" d="M833.74,224.73h111v63.93H898.86V440.8h45.88v62.75H898.86V643.84h45.88v63.34h-111Z"/></g></svg>