<svg xmlns="http://www.w3.org/2000/svg" viewBox="0 0 1588.3 1686.4"><defs><style>.cls-1{fill:#d7df23;}.cls-2{fill:#dbe8a8;}</style></defs><title>moon</title><g id="Layer_2" data-name="Layer 2"><g id="MOON"><path class="cls-1" d="M789.32,908.6c-2.75,14.45-2.61,39.9-2.52,46.93,0,1,.54,1.85,1.18,1.85h4.93c.64,0,1.17-.82,1.18-1.85.1-7,.24-32.48-2.52-46.93C791.24,906.81,789.67,906.81,789.32,908.6Z"/><path class="cls-1" d="M765.33,910.45c-2.75,14.45-2.61,39.9-2.52,46.93,0,1,.54,1.85,1.18,1.85h4.93c.64,0,1.17-.82,1.18-1.85.1-7,.24-32.48-2.52-46.93C767.25,908.66,765.67,908.66,765.33,910.45Z"/><path class="cls-1" d="M808.71,910.45c-2.75,14.45-2.61,39.9-2.52,46.93,0,1,.54,1.85,1.18,1.85h4.93c.64,0,1.17-.82,1.18-1.85.1-7,.24-32.48-2.52-46.93C810.63,908.66,809.05,908.66,808.71,910.45Z"/><path class="cls-1" d="M829.3,920c-2.75,14.45-2.61,39.9-2.52,46.93,0,1,.54,1.85,1.18,1.85h4.93c.64,0,1.17-.82,1.18-1.85.1-7,.24-32.48-2.52-46.93C831.22,918.18,829.64,918.18,829.3,920Z"/><path class="cls-1" d="M744.72,920c-2.75,14.45-2.61,39.9-2.52,46.93,0,1,.54,1.85,1.18,1.85h4.93c.64,0,1.17-.82,1.18-1.85.1-7,.24-32.48-2.52-46.93C746.64,918.18,745.06,918.18,744.72,920Z"/><path class="cls-1" d="M730.6,926.43c-2.75,14.45-2.61,39.9-2.52,46.93,0,1,.54,1.85,1.18,1.85h4.93c.64,0,1.17-.82,1.18-1.85.1-7,.24-32.48-2.52-46.93C732.52,924.64,730.94,924.64,730.6,926.43Z"/><path class="cls-2" d="M1253.33,1464.27c-4.48-65.48-14.77-223-27.27-250.68-15.2-33.67-36.2-23.89-71-42,1.45-9.41,7.24-106.43,0-132.5s-7.24-21-15.2-48c11.58-21.26,10.14-98.21,10.14-98.21s-2.17-4.34-13.76,1.45-28.24,53.58-32.58,75.3a139.8,139.8,0,0,1-36.2,3.62s-29.2-99.44-47.11-84.78,0,102.62,0,102.62c5.75,36.66-79.23,110.67-81,125.15s21,34,44.17,32.22c15.49-1.21,24.67-3.71,29.05-5.24a2.38,2.38,0,0,1,3.17,2.25v4.16a4.56,4.56,0,0,1-1.58,3.45l-22.9,19.76a6.94,6.94,0,0,1-4.52,1.69c-8.69,0-37.18.17-50.28,1.08-10.91.76-18.47,12.64-23.1,21.29-6.76,12.6-7,29-9.4,43L889.72,1324l-13.21,78.21v-1.71s-7.74,9.81-17.55-12.9-8.77-61.93-23.22-113c14.45-41.8,19.61-139.85,9.08-151.72s-10.12-1.55-14.24-8.26c-2.15-7-3.24-9.54-4.15-13.48-1.24-5.34-7.72-14.39-7.72-14.39l-.86-7.73s7.84-3,13-7.69c3-2.74,3.32-13.54,3.69-28.65,2.8.34,8.31.17,6.23-7-2.75-9.5-5-22.23-5-22.24,6.19-18.87,11.88-75.32-52.2-75.3-95,0-86.7,157.92-71.08,174.43-8.12,0-16.65,4.13-25.94,11.35-15.36-35.53-81.64-117.5-126.54-151.2a8.34,8.34,0,0,0-13.36,6.19c-2.62,48.35,5.11,64.63,22.75,103.72-13.27-2-37.28-14.22-83.2-12.72a8.81,8.81,0,0,0-7.12,13.57c33.1,50.74,131.13,95.73,175,95.58a4,4,0,0,1,3.69,5.73c-12.88,27.85-38.28,97-38.28,97S599,1263,535.9,1275.29q-16.9,3.29-32.25,6.89A730.54,730.54,0,0,1,300.53,878.4C238.7,477.84,513.29,103,913.85,41.16a736,736,0,0,1,168.7-6.55A839.8,839.8,0,0,0,714.58,10C254.41,81-61,511.65,10,971.82s501.66,775.63,961.84,704.6c273.57-42.23,496-211.56,616.47-438.62A731.19,731.19,0,0,1,1253.33,1464.27Z"/><circle class="cls-1" cx="760.69" cy="966.14" r="5.25" transform="translate(-324.06 1545.26) rotate(-79.88)"/><path class="cls-1" d="M763.62,949.7c-2.48-.44-8.31-1.19-5.24,11.68l6.12,1.09C771.83,951.47,766.1,950.15,763.62,949.7Z"/><path class="cls-1" d="M748.57,977.58c1.72,1.84,5.94,5.94,11.2-6.2l-4.24-4.55C743.06,971.25,746.85,975.74,748.57,977.58Z"/><path class="cls-1" d="M746,958.56c-1.15,2.24-3.58,7.6,9.62,8.45l2.84-5.53C750.1,951.24,747.16,956.32,746,958.56Z"/><path class="cls-1" d="M768.15,981.08c-2.25,1.14-7.63,3.51-8.37-9.69l5.56-2.8C775.51,977,770.4,979.94,768.15,981.08Z"/><path class="cls-1" d="M777.13,964.12c.31,2.5.73,8.37-12,4.6l-.76-6.17C775.82,955.83,776.83,961.62,777.13,964.12Z"/><circle class="cls-1" cx="791.98" cy="966.15" r="5.25" transform="translate(-141.98 136.45) rotate(-9.04)"/><path class="cls-1" d="M789.36,949.66c-2.49.4-8.24,1.61-1.12,12.76l6.14-1C797.69,948.63,791.85,949.27,789.36,949.66Z"/><path class="cls-1" d="M784.3,980.94c2.23,1.18,7.56,3.66,8.55-9.53l-5.5-2.9C777,976.76,782.07,979.76,784.3,980.94Z"/><path class="cls-1" d="M775.63,963.81c-.35,2.5-.89,8.35,11.86,4.82l.87-6.16C777.09,955.55,776,961.32,775.63,963.81Z"/><path class="cls-1" d="M803.93,977.81c-1.76,1.81-6.05,5.82-11.09-6.41l4.33-4.47C809.56,971.58,805.69,976,803.93,977.81Z"/><path class="cls-1" d="M806.86,958.85c1.11,2.27,3.43,7.66-9.78,8.26l-2.74-5.58C802.9,951.44,805.75,956.58,806.86,958.85Z"/><circle class="cls-1" cx="824.47" cy="961.79" r="5.25" transform="translate(-106.02 102.16) rotate(-6.66)"/><path class="cls-1" d="M822.54,945.21c-2.51.29-8.3,1.27-1.65,12.7l6.18-.72C830.91,944.53,825,944.92,822.54,945.21Z"/><path class="cls-1" d="M816.18,976.25c2.18,1.27,7.4,4,8.94-9.17L819.74,964C809.08,971.78,814,975,816.18,976.25Z"/><path class="cls-1" d="M808.23,958.78c-.46,2.48-1.23,8.31,11.65,5.31L821,958C810,950.58,808.69,956.3,808.23,958.78Z"/><path class="cls-1" d="M835.93,973.95c-1.83,1.74-6.29,5.57-10.81-6.87l4.51-4.28C841.81,968,837.76,972.21,835.93,973.95Z"/><path class="cls-1" d="M839.64,955.11c1,2.31,3.11,7.8-10.12,7.85L827,957.27C836,947.55,838.62,952.81,839.64,955.11Z"/><circle class="cls-1" cx="731.54" cy="959.19" r="5.25" transform="translate(-427.1 1294.97) rotate(-68.83)"/><path class="cls-1" d="M737.57,943.62c-2.35-.91-7.93-2.76-7.39,10.46l5.8,2.25C745.29,946.92,739.92,944.53,737.57,943.62Z"/><path class="cls-1" d="M717.46,968.1c1.34,2.14,4.69,7,12.18-3.94l-3.29-5.28C713.26,960.83,716.12,966,717.46,968.1Z"/><path class="cls-1" d="M718.58,948.94c-1.56,2-5,6.77,7.83,10.14l3.85-4.88C724,942.53,720.14,947,718.58,948.94Z"/><path class="cls-1" d="M736,975.28c-2.43.68-8.16,2-6.35-11.12l6-1.68C744,972.73,738.42,974.6,736,975.28Z"/><path class="cls-1" d="M748.07,960.36c-.18,2.52-.89,8.35-12.61,2.22l.44-6.2C748.37,952,748.25,957.84,748.07,960.36Z"/></g><g id="text"><g id="CHINESE_TITLE" data-name="CHINESE TITLE"><path d="M643.81,1463.42c-8.47,0-16.93.08-25.4-.09-1.32,0-2.62-1.22-3.94-1.87,1.26-.7,2.51-2,3.78-2q28.9-.2,57.8,0c1.3,0,2.59,1.26,3.88,1.93-1.27.68-2.53,1.92-3.82,2-7.1.19-14.21-.06-21.31.19-2.08.07-4.12,1.31-6.19,2l.31,1.33a7,7,0,0,0,1.4.55c14.47,2.37,21.6,9.85,22.13,24.34.44,12.14.44,24.33.06,36.47-.44,13.74-14.84,23.63-29.54,21.08-11-1.9-21.1-11-20.47-24.64.49-10.63,0-21.31.13-32,.14-11,4.38-19.47,15.31-23.72,2.38-.92,4.31-3,6.45-4.54ZM627,1496.22a16.88,16.88,0,0,0,1.86-.09c10.21-1.75,20.4-3.6,30.63-5.18,1.2-.19,2.62,1,3.94,1.61-1,.85-1.94,2.18-3.11,2.46-3.7.89-7.5,1.38-11.25,2.06-7.45,1.34-14.9,2.7-22.43,4.07,0,8.45,0,16.36,0,24.28.08,12.29,8.23,20.07,21,20.06s20.83-7.91,20.9-20.18q.08-16.6,0-33.21c-.05-11-6.59-18.55-17.47-20.3s-20.57,3.8-22.84,13.48c9.83-1.51,19.49-3.09,29.18-4.39,1.39-.19,3,1,4.46,1.49-1.22.94-2.32,2.48-3.67,2.73-8.85,1.62-17.74,3-26.62,4.41C626.37,1490.37,626.37,1490.39,627,1496.22Z"/><path d="M525.76,1566.87c0,3.64.14,7.06-.09,10.45-.06.89-1.24,1.71-1.91,2.56-.69-.83-1.91-1.62-2-2.49-.23-3.53-.09-7.08-.09-10.85-.73-.24-1.33-.45-1.93-.63-10.84-3.34-15.29-9.35-15.3-20.79q0-29.72,0-59.43c0-10,3.89-15.53,13.52-18.35,3.21-.94,3.88-2.45,3.82-5.47,0-1.88-.13-5.42,1.9-5.42,2.73,0,1.73,3.43,2,5.5a26.73,26.73,0,0,1,0,3.63c2.9.74,5.57,1.24,8.13,2.09,8,2.65,12.31,8.42,12.35,16.87q.13,31.36,0,62.71c0,9.3-6.19,16.3-16,18.64C528.84,1566.21,527.39,1566.51,525.76,1566.87Zm.25-96v90.83c9.49.33,16.14-6.37,16.18-16.32.07-19.82,0-39.64,0-59.46C542.19,1475.89,536.46,1470.57,526,1470.92Zm-4.62,90.27V1470.7c-8.75,2-12.73,5.76-12.78,12.82q-.21,31.34,0,62.68C508.71,1555.24,512.89,1559.86,521.39,1561.19Z"/><path d="M776.8,1480.68c6.87,0,13.15,0,19.44,0,6.13.05,9.28,3.24,9.28,9.4,0,22-.09,44,.1,66,0,4.06-1.32,6.38-5,7.8-2.26.87-4.35,2.17-7.34,3.69,5.2,2.77,9.87,5.12,14.38,7.76,1.11.65,1.68,2.24,2.49,3.4-1.44.1-3.12.74-4.28.21-4.84-2.18-9.63-4.55-14.24-7.19-2.58-1.47-4.62-1.3-7.13.09-4.76,2.65-9.67,5-14.56,7.42-1.56.76-3.5,2.75-4.88.11-1.53-2.9,1.47-3.31,3.06-4.17,4.64-2.52,9.39-4.85,14.9-7.66-3.77-1.9-7-3.23-9.88-5.1-1.32-.86-2.73-2.78-2.74-4.23q-.27-28.5,0-57c0-1.36,1.39-2.71,2.13-4.07.62,1.34,1.76,2.68,1.77,4,.12,17.63.2,35.26,0,52.89,0,3.31,1.15,4.78,3.89,6.11,10.49,5.12,10.49,5.25,20.94-.59a5,5,0,0,0,2.28-3.62c.14-22,.07-44,.12-66,0-3.65-1.74-5.24-5.24-5.24-6.83,0-13.67-.1-20.5.09a5.56,5.56,0,0,0-3.57,2c-1.89,2.31-3.34,5-5.2,7.34-.48.61-2.33,1-2.63.71-.66-.72-1.34-2.36-1-3,3.68-5.74,7.53-11.37,11.47-16.94a2.52,2.52,0,0,1,2.43-.48,2.85,2.85,0,0,1,1,2.36A16.57,16.57,0,0,1,776.8,1480.68Z"/><path d="M885.19,1562.54c.29.47.36.59.44.71,5.1,7.13,11.45,10.45,20.76,9.55,10.42-1,21-.32,31.54-.14,1.52,0,3,1.32,4.54,2-1.57.65-3.14,1.84-4.72,1.86-13,.15-26-.08-38.94.18-4.13.08-7.42-.68-10-4-.87-1.14-2.14-2-4.08-3.69a61.67,61.67,0,0,1-.11,8.07c-.15,1-1.45,1.87-2.23,2.8-.73-.95-2.06-1.87-2.08-2.84-.21-8.12,0-15.71,4.71-23.39,15.35-25,29.7-50.55,44.44-75.9.74-1.27,1.42-2.57,2.46-4.47H886.54a6.59,6.59,0,0,1-2.44-.06,19.4,19.4,0,0,1-3-2c1-.67,2-1.93,3-1.93,16.94-.12,33.89-.1,50.83,0,1.14,0,2.28.53,4.31,1Z"/><path d="M1037.09,1488.71c3.9,0,8.89-.76,13.55.15a19.79,19.79,0,0,1,15,25.69c-5.13,14.78-11.07,29.29-16.74,43.88a7.57,7.57,0,0,1-2.34,2.72q-10.25,8.49-20.59,16.89a5.41,5.41,0,0,1-2,1.37,10.77,10.77,0,0,1-3-.23c.14-1-.07-2.29.49-2.87a29.69,29.69,0,0,1,5.59-4.78c13.43-8.28,21.3-20.37,25.53-35.37,2.06-7.31,5.57-14.21,7.82-21.48,2.79-9,.27-16.06-6.41-20.08-6.91-4.15-16.81-3.3-22.72,2.72-3.39,3.44-5.8,7.85-8.58,11.88-1.24,1.79-2.1,3.88-3.51,5.5-.79.91-2.36,1.13-3.58,1.66a21.33,21.33,0,0,1,0-3.67,6.59,6.59,0,0,1,1.19-2.12c5-8.14,9.88-16.35,15-24.38,1-1.57,3.08-2.47,4.65-3.67Z"/><path d="M636.08,1568.88a67.91,67.91,0,0,1-7.72-2.36c-1-.44-1.58-1.78-2.34-2.72,1.12-.44,2.32-1.38,3.35-1.23a43.53,43.53,0,0,1,8.72,2.06,15.83,15.83,0,0,0,12.24-.34c3.11-1.32,6.38-2.24,9.57-4.07H651.8c-6.56,0-13.11.15-19.66,0-4.86-.15-9.45-.06-13.1,3.92-.56.61-2.28.14-3.47.17.42-1.15.52-2.66,1.33-3.38a134.27,134.27,0,0,1,10.45-8.55c1.17-.86,3-.84,4.5-1.22l-.59,5h13.12c9.42,0,18.85-.1,28.27.1,1.61,0,3.2,1.33,4.8,2-1.36.94-2.59,2.22-4.09,2.77-6.51,2.37-13.1,4.52-20.67,7.1l22.4,5.94a7,7,0,0,1,2.34.65,19.38,19.38,0,0,1,2.45,2.6c-1.22.46-2.58,1.54-3.64,1.3-9.68-2.22-19.29-4.73-29-7a10.69,10.69,0,0,0-5.46.2c-7.11,2.31-14.11,5-21.23,7.28-1.26.41-2.87-.27-4.32-.44.91-1.25,1.57-3.14,2.79-3.64C624.31,1572.91,629.73,1571.14,636.08,1568.88Z"/><path d="M492.16,1475.87a59.15,59.15,0,0,1-4.58,6.25c-.78.84-2.41.89-3.65,1.3,0-1.23-.48-2.8.1-3.62q7.86-11.24,16.11-22.2c.59-.78,2.26-.76,3.42-1.11,0,1.21,0,2.41,0,3.62a1.14,1.14,0,0,1-.44.67c-6.15,5.23-6.26,12.11-6.19,19.53.28,31.42.12,62.85.12,94.27a9.64,9.64,0,0,1-.09,3.25,12.25,12.25,0,0,1-2.13,2.82,11.83,11.83,0,0,1-1.77-2.76,11.47,11.47,0,0,1-.08-3.26q0-47.13,0-94.27V1476Z"/><path d="M755.51,1491.72c-1.64,2.34-3.16,4.78-5,7-.63.77-2,.93-3,1.36-.15-1.2-.87-2.79-.36-3.56,4.91-7.38,10-14.65,15.14-21.87.49-.68,1.82-.76,2.76-1.12a12.89,12.89,0,0,1,.74,3.24,3.27,3.27,0,0,1-1.21,2.07c-4.28,3.56-4.26,8.3-4.23,13.33.14,27.18.07,54.37.07,81.55a7.76,7.76,0,0,1-.07,2.84,19.17,19.17,0,0,1-2.22,3.27c-.59-1.06-1.67-2.1-1.69-3.18-.16-6.42-.08-12.84-.08-19.26q0-30.74,0-61.47,0-2,0-4Z"/><path d="M1052.56,1468.39c-2.24,0-3.78.26-5.18-.07a28.76,28.76,0,0,1-4.67-1.95c1.49-.74,2.92-1.91,4.48-2.11a66.37,66.37,0,0,1,8.4-.1,18.05,18.05,0,0,1,.31-4.25,20.78,20.78,0,0,1,2.15-3.79,22,22,0,0,1,2.44,3.95c.39,1.06.08,2.38.08,4.13,3.44,0,6.55-.15,9.64.09.94.07,1.8,1.19,2.69,1.83-.93.75-1.77,1.92-2.81,2.14a25.21,25.21,0,0,1-5.23.1l-.84,1.09c2.48,2.21,5.1,4.29,7.37,6.7.8.85.73,2.53,1.06,3.83-1.29-.27-2.9-.14-3.82-.87-2.54-2-4.8-4.39-8-7.45a100,100,0,0,1-.1,10c-.14,1.33-1.39,2.54-2.14,3.81-.83-1.3-2.19-2.54-2.38-3.93-.38-2.79-.11-5.67-.11-9.44-3.23,3-5.76,5.54-8.59,7.73-1,.77-2.75.59-4.16.84.4-1.29.46-2.87,1.27-3.82C1046.74,1474.13,1049.41,1471.61,1052.56,1468.39Z"/><path d="M1021.28,1468.39c-2.9,0-4.67.26-6.31-.08a20,20,0,0,1-4.25-1.94c1.35-.74,2.65-1.95,4.07-2.11a83.83,83.83,0,0,1,9.14-.1,41,41,0,0,1,.56-6,2,2,0,0,1,4.06.08,36.73,36.73,0,0,1,.09,5.94,68.86,68.86,0,0,1,8.26.1c1.13.14,2.12,1.42,3.17,2.19a14,14,0,0,1-3.17,1.83c-1.14.32-2.43.07-4.79.07,2.79,2.9,5.13,5,7.08,7.5.83,1.05.83,2.76,1.21,4.17-1.39-.41-3.12-.44-4.11-1.31a92.84,92.84,0,0,1-6.46-6.8l-1.14.42a83,83,0,0,1-.1,9.09c-.16,1.42-1.39,2.71-2.14,4.06-.74-1.39-1.94-2.72-2.11-4.18a83.91,83.91,0,0,1-.1-9.42c-3.26,3-5.58,5.46-8.27,7.46-1.26.93-3.2.95-4.83,1.38.58-1.48.82-3.26,1.81-4.37C1015.21,1473.85,1017.83,1471.64,1021.28,1468.39Z"/><path d="M778.87,1468.37c9.43,0,18.86-.09,28.28.1,1.35,0,2.68,1.39,4,2.14-1.34.61-2.67,1.75-4,1.76q-28.28.17-56.56,0c-1.35,0-2.68-1.39-4-2.14,1.34-.61,2.67-1.73,4-1.75C760,1468.3,769.45,1468.37,778.87,1468.37Z"/><path d="M779,1455.2c2,2.63,4.2,4.33,4,5.74s-2.46,3.56-4.13,3.92a3.5,3.5,0,0,1-4.34-4C774.87,1459.13,776.92,1457.75,779,1455.2Z"/><path d="M1042.08,1501c2.11,2.69,4.32,4.29,4.32,5.89,0,1.35-2.68,3.88-4,3.75a6.28,6.28,0,0,1-4.39-3.88C1037.73,1505.63,1040.06,1503.77,1042.08,1501Z"/><path d="M910.71,1455.55c1,1.53,3.08,3.27,2.82,4.53-.33,1.58-2.55,2.78-4,4.14-1.3-1.35-3.61-2.67-3.64-4,0-1.56,2-3.16,3.08-4.75Z"/><path d="M792.13,1497.06c-1.48,1.08-3.16,3.22-4.4,3-1.61-.29-2.88-2.47-4.3-3.84,1.3-1.34,2.54-3.68,3.92-3.77,1.55-.1,3.22,1.84,4.84,2.89Z"/></g></g></g></svg>