<svg xmlns="http://www.w3.org/2000/svg" viewBox="0 0 936.06 543"><defs><style>.cls-1{fill:#fff;}</style></defs><title>msnd_title</title><g id="Layer_2" data-name="Layer 2"><g id="text"><g id="title"><g id="a"><path class="cls-1" d="M96,4.94C70.17,64.36,57.56,127.66,49.16,191.61c-2.27,17.25-4.27,34.53-6.27,51.82-1,8.3,12,8.23,13,0C62.9,182.84,70.32,122,88.18,63.49a486.86,486.86,0,0,1,19-52c3.3-7.6-7.9-14.22-11.23-6.56Z"/><path class="cls-1" d="M95.34,9.95c9.29,28.3,14.08,58.08,17.33,87.61a795.94,795.94,0,0,1,4.68,98.05c-.22,16-1,31.93-2.55,47.81-.84,8.32,12.17,8.26,13,0,3.05-30.35,3.18-61,1.93-91.47-1.36-33-4.47-66-10.35-98.46a351.09,351.09,0,0,0-11.5-47C105.28-1.42,92.72,2,95.34,9.95Z"/><path class="cls-1" d="M65.33,136.61a209.22,209.22,0,0,0,58.36-1.4c8.24-1.31,4.74-13.84-3.46-12.54a197.36,197.36,0,0,1-54.91.93c-8.29-1-8.22,12,0,13Z"/></g><g id="midsummer"><path class="cls-1" d="M282.09,243.42c-2.69-63.08-2.48-126.28-3.86-189.39-.33-15.27-.72-30.55-1.37-45.81C276.53.49,266.8-.09,264.09,6.49c-10.38,25.2-17.22,52-29.09,76.59l11.88,1.55c-9.1-26.08-12.17-54.76-24.42-79.69C219.3-1.48,211,2.51,210.34,8.22,203,71.76,199,135.59,195.9,199.46c-.72,14.69-1.41,29.38-2.15,44.06-.42,8.36,12.58,8.34,13,0,3-59.06,5.57-118.13,10.71-177.06Q220,37.3,223.34,8.22L211.23,11.5c5.75,11.71,8.71,25.05,12.1,37.58,3.52,13,6.57,26.26,11,39,1.68,4.82,9.26,7,11.88,1.55C258.6,64,265.81,36.2,276.63,9.95L263.86,8.22c2.69,63.08,2.48,126.28,3.86,189.39.33,15.27.72,30.55,1.37,45.81.36,8.33,13.36,8.38,13,0Z"/><path class="cls-1" d="M291.22,8.12c1.09,63.19,0,126.41,0,189.6,0,15.27.07,30.53.33,45.8.14,8.36,13.14,8.38,13,0-1.09-63.19,0-126.41,0-189.6,0-15.27-.07-30.53-.33-45.8-.14-8.36-13.14-8.38-13,0Z"/><path class="cls-1" d="M324.55,15.83c16.41,4.58,30.27,15.73,39.4,30,10.68,16.71,13.17,36.71,13.44,56.15.29,20.14-4.37,39.41-9.93,58.65-4.32,15-8.4,30.23-15.39,44.22-7.32,14.65-17.86,28.19-34.44,32.3l8.23,6.27c-.23-64.35,3.32-128.76,4.85-193.08.33-14,.68-28.08.63-42.12,0-8.36-13-8.38-13,0C318.57,72.57,315,137,313.5,201.3c-.33,14-.68,28.08-.63,42.12a6.58,6.58,0,0,0,8.23,6.27c35.45-8.79,47.87-48.13,57-79,6.16-20.87,12.24-42.28,12.34-64.21.09-21.42-2.13-44-12.74-63S349.17,9.2,328,3.29c-8.07-2.25-11.51,10.28-3.46,12.54Z"/><path class="cls-1" d="M457.2,39.58c-5.83-11.21-12.25-23.47-23.43-30.25-10.23-6.2-23.63-6.4-32.49,2.31C381.78,30.84,395,65.2,404.59,86A159.81,159.81,0,0,0,426,120.08c7.56,9.28,16.05,17.91,21.69,28.58,11.39,21.57,4.67,48-9.06,66.84C431.33,225.57,420,236.28,406.85,237c-12,.65-21.77-8.31-24.11-19.64-1.7-8.19-14.23-4.72-12.54,3.46,4.87,23.48,30.08,34.85,51.45,25.63,22.16-9.55,37.78-33.91,42.9-56.83,2.72-12.18,2.85-25.22-1.15-37.14-3.91-11.68-11.24-21.48-19.08-30.8-8.48-10.08-16.65-20-23.09-31.56a151.18,151.18,0,0,1-14.67-37.18c-2.53-10.25-5-34.46,11.13-35.18,14.53-.65,22.79,17.86,28.27,28.4,3.86,7.43,15.08.86,11.23-6.56Z"/><path class="cls-1" d="M476.59,7.07c-2,33.25-3.39,66.56-3.61,99.88-.11,17,.07,34,.76,51,.66,16.32,1.25,33,4.22,49.09,2.85,15.4,10.16,31.54,24.72,39.11,13.85,7.19,29.41,3.23,40-7.71C554.79,226,558,208.54,558.64,191.8c.67-18.38,0-36.89-.29-55.28q-1-63.77-3.74-127.49c-.35-8.33-13.35-8.38-13,0Q543.8,61,544.92,113q.54,25.72.76,51.45c.14,16.68,1.69,34.59-3.7,50.65-3.85,11.48-14.84,24.66-28.39,21.47-14.56-3.43-20.67-19.9-23.09-32.92-2.77-14.91-3.14-30.51-3.76-45.64-.63-15.55-.84-31.11-.79-46.67.12-34.77,1.5-69.52,3.63-104.22.51-8.36-12.49-8.33-13,0Z"/><path class="cls-1" d="M652.24,243.52c1.4-60.59,4.82-121.16,3-181.77-.52-17.44-1.49-34.86-3.14-52.23C651.4,2,642.1.91,639.34,7.79L605.6,92.17h12.54c-3.95-14.41-9.82-28.37-14.9-42.41-5.27-14.58-11.41-29.6-13.91-45-1.22-7.51-12.47-5.26-12.77,1.73C573.85,69.6,569,132.62,567,195.75q-.75,23.88-.73,47.78c0,8.36,13,8.38,13,0-.11-58.46,4-116.81,7.23-175.15q1.69-30.93,3-61.87L576.8,8.23c2.5,15.38,8.63,30.4,13.91,45,5.08,14,11,28,14.9,42.41,1.83,6.69,10.29,5.62,12.54,0l33.74-84.37L639.11,9.52c5.85,61.65,3.62,123.81,1.57,185.6-.53,16.13-1.08,32.27-1.45,48.4-.19,8.37,12.81,8.37,13,0Z"/><path class="cls-1" d="M751.43,243.35c-3.37-58.35-3.35-116.83-5.25-175.24q-1-30-2.52-59.89C743.28,1,733-.74,730.88,6.49a296.43,296.43,0,0,1-35.22,78h11.23C700,72.95,696.54,58.65,692.6,45.92c-4.08-13.2-8.48-26.68-10.78-40.33-.53-3.18-4.23-5-7.13-4.66-3.44.46-5.25,3.12-5.64,6.38-7.42,62.21-7,125-7.12,187.58,0,16.21-.07,32.42-.33,48.62-.14,8.37,12.86,8.37,13,0,1-61.19-.66-122.43,2.88-183.56,1-17.59,2.48-35.15,4.56-52.64L669.29,9c2.36,14,6.92,27.94,11.14,41.51,4.16,13.39,8,28.34,15.23,40.47a6.58,6.58,0,0,0,11.23,0A308.91,308.91,0,0,0,743.42,9.95L730.65,8.22c3.25,62.6,3.69,125.26,5.7,187.9.51,15.75,1.17,31.49,2.08,47.22.48,8.32,13.48,8.37,13,0Z"/><path class="cls-1" d="M828.16,234.16l-62.6,1.77,6.5,6.5L774.86,8.17l-6.5,6.5,65-1.67c8.35-.21,8.38-13.22,0-13l-65,1.67a6.62,6.62,0,0,0-6.5,6.5l-2.79,234.25a6.57,6.57,0,0,0,6.5,6.5l62.6-1.77c8.35-.24,8.38-13.24,0-13Z"/><path class="cls-1" d="M770.09,86.17c17.56-1.21,35.08-3,52.65-4.17,8.3-.57,8.36-13.58,0-13-17.56,1.21-35.08,3-52.65,4.17-8.3.57-8.36,13.58,0,13Z"/><path class="cls-1" d="M933.35,241.7C911.54,188,890.79,133.44,862.91,82.48L855.56,92c17.26,3.21,35.83,7.23,52.24-1.35,13.42-7,25.12-20.08,27.61-35.35,4.16-25.49-15.56-46.72-39.36-52C883,.47,868.81,1.41,855.53,1.72a6.6,6.6,0,0,0-6.5,6.5q.87,117.65,1.76,235.3c.06,8.36,13.06,8.38,13,0Q862.92,125.87,862,8.22l-6.5,6.5c16-.37,31.11-1.63,45.57,3.91,11,4.23,19.86,13.93,21.66,25.82,1.91,12.62-5.69,24.3-15.63,31.38C892.43,86.3,875.54,82.56,859,79.49c-5.5-1-10.2,4.32-7.34,9.55,27.35,50,47.75,103.41,69.13,156.11,1.33,3.28,4.32,5.51,8,4.54,3.09-.82,5.86-4.75,4.54-8Z"/></g><g id="night_s" data-name="night&apos;s"><path class="cls-1" d="M51.74,299v235.2l12.77-1.73c-8.88-29.07-15.1-59-21-88.75-6.5-33-12.25-66.06-18.07-99.15C22.69,328.83,19.91,313,16.9,297.3,15.5,289.93,4.26,291.9,4.14,299L0,534.42c-.15,8.37,12.85,8.37,13,0L17.14,299,4.37,300.76c12,62.89,21.35,126.3,35.54,188.76C43.45,505.12,47.3,520.66,52,536c2.11,6.92,12.77,5.76,12.77-1.73V299c0-8.36-13-8.38-13,0Z"/><path class="cls-1" d="M91.83,299c-1.52,78.43-2.87,157,.36,235.39.34,8.34,13.35,8.38,13,0-3.23-78.4-1.88-157-.36-235.39.16-8.37-12.84-8.37-13,0Z"/><path class="cls-1" d="M172,312.08c-3.62-10.78-11.86-20.87-24.37-19.35-12.08,1.47-19.19,12.39-23.51,22.71-5.92,14.12-8.09,29.61-9.6,44.75-1.57,15.79-2.68,31.65-3.27,47.5-1.15,31.48-.37,64.32,8.8,94.7C123.6,514,128.53,528,138,536.26c7.52,6.58,18.59,6,26.3-.08,10.35-8.11,13.85-24.59,15.78-36.81,3-19,1.44-38.1-.25-57.11-.31-3.51-2.73-6.49-6.5-6.5l-27.93-.11c-8.37,0-8.38,13,0,13l27.93.11-6.5-6.5c1.26,14.2,2.53,28.48,1.77,42.74-.63,11.75-2.64,24.84-8.15,35.41-2.22,4.26-6.88,9.4-12.13,7.36-3.49-1.36-6-6.37-7.69-9.38a91,91,0,0,1-6.83-15.86c-8.2-24.57-9.88-51.12-9.83-76.85,0-26.54,1.15-54,5.54-80.18,2-11.73,4.53-26.61,12.84-35.77,7.11-7.84,14.28-2.83,17.19,5.82,2.65,7.89,15.21,4.51,12.54-3.46Z"/><path class="cls-1" d="M185.83,299c.07,78.41-1.56,156.81-3.13,235.2-.17,8.37,12.83,8.37,13,0,1.57-78.39,3.2-156.79,3.13-235.2,0-8.36-13-8.38-13,0Z"/><path class="cls-1" d="M197.14,446.72l35-1.35c8.34-.32,8.38-13.32,0-13l-35,1.35c-8.34.32-8.38,13.32,0,13Z"/><path class="cls-1" d="M232.89,299l-2.45,235.2c-.09,8.37,12.91,8.37,13,0L245.89,299c.09-8.37-12.91-8.37-13,0Z"/><path class="cls-1" d="M260.72,305.68l71.6.25c8.37,0,8.38-13,0-13l-71.6-.25c-8.37,0-8.38,13,0,13Z"/><path class="cls-1" d="M290,299c-1,57.25-2.77,114.48-3.83,171.73q-.59,31.83-1.12,63.66c-.15,8.37,12.85,8.37,13,0q1.67-95.05,4-190.09.52-22.65.95-45.3c.15-8.37-12.85-8.37-13,0Z"/><path class="cls-1" d="M340.64,311.34l-6.73,29.6c-1.85,8.15,10.68,11.62,12.54,3.46l6.73-29.6c1.85-8.15-10.68-11.62-12.54-3.46Z"/><path class="cls-1" d="M431,328.61c-5.83-11.21-12.25-23.47-23.43-30.25-10.23-6.2-23.63-6.4-32.49,2.31-19.5,19.19-6.25,53.56,3.3,74.31a159.81,159.81,0,0,0,21.45,34.13c7.56,9.28,16.05,17.91,21.69,28.58,11.39,21.57,4.67,48-9.06,66.84-7.33,10.07-18.66,20.77-31.81,21.49-12,.65-21.77-8.31-24.11-19.64-1.7-8.19-14.23-4.72-12.54,3.46,4.87,23.48,30.08,34.85,51.45,25.63,22.16-9.55,37.78-33.91,42.9-56.83,2.72-12.18,2.85-25.22-1.15-37.14C433.29,429.82,426,420,418.13,410.7c-8.48-10.08-16.65-20-23.09-31.56a151.18,151.18,0,0,1-14.67-37.18c-2.53-10.25-5-34.46,11.13-35.18,14.53-.65,22.79,17.86,28.27,28.4,3.86,7.43,15.08.86,11.23-6.56Z"/></g><g id="dream"><path class="cls-1" d="M501.09,307.27c29.94,10.19,40.24,48.62,43.25,76.55,3.5,32.4-.12,68.5-13.06,98.59a118.06,118.06,0,0,1-15.12,25.93,108.1,108.1,0,0,1-10.88,11.92q-2.75,2.61-5.68,5-1.45,1.2-2.95,2.34c-1.81,1.37-2.33,1.43-.44,1.43l6.5,6.5c.42-59.26,3.51-118.46,5.28-177.68q.85-28.43,1.32-56.86c.13-8.37-12.87-8.37-13,0-1,62.32-4,124.58-5.74,186.88-.43,15.89-.75,31.77-.86,47.67a6.59,6.59,0,0,0,6.5,6.5c4.48,0,8.71-4.42,12-7.09a112,112,0,0,0,12-11.34A123.81,123.81,0,0,0,538,498.39c9.11-17.14,14.44-36,17.32-55.15,5.47-36.42,4.72-75.35-10.87-109.36-8.06-17.58-21.18-32.78-39.87-39.15C496.61,292,493.2,304.59,501.09,307.27Z"/><path class="cls-1" d="M639.29,532.27c-23-45.35-35-95.27-59.56-139.92l-5.61,9.78c26.38-1.15,56.29-6,68.88-32.74a48,48,0,0,0,.54-40.22c-5.2-11.37-15.83-18.29-26.89-23.22a140.36,140.36,0,0,0-42.53-11.45c-3.5-.36-6.5,3.27-6.5,6.5.07,62-2.73,124-3.95,186.06-.32,16.38-.55,32.76-.53,49.14,0,8.36,13,8.38,13,0-.07-62,2.73-124,3.95-186.06.32-16.38.55-32.76.53-49.14l-6.5,6.5a119.64,119.64,0,0,1,38.49,10.83c12,5.73,21.37,13.83,22.08,28,.73,14.57-7.41,27.48-19.94,34.56-12.22,6.9-26.94,7.62-40.63,8.22a6.57,6.57,0,0,0-5.61,9.78c24.57,44.62,36.57,94.57,59.56,139.92,3.78,7.46,15,.89,11.23-6.56Z"/><path class="cls-1" d="M730.21,528l-66.41,1.67,6.5,6.5L681.12,301l-6.5,6.5c19.63.57,39.27.33,58.9.9v-13h-6.63c-8.36,0-8.38,13,0,13h6.63c8.38,0,8.36-12.76,0-13-19.63-.57-39.27-.33-58.9-.9-3.63-.11-6.34,3.07-6.5,6.5L657.3,536.21a6.56,6.56,0,0,0,6.5,6.5L730.21,541c8.35-.21,8.38-13.21,0-13Z"/><path class="cls-1" d="M669.52,400c18-.89,36.07-1.31,54.1-2.2,8.33-.41,8.38-13.41,0-13-18,.89-36.07,1.31-54.1,2.2-8.33.41-8.38,13.41,0,13Z"/><path class="cls-1" d="M834.68,534.8c-10.1-62.38-17.81-125.13-26.84-187.67-2.3-16-4.67-31.93-7.25-47.85-1.11-6.86-10.65-5.45-12.54,0-20.58,59.61-32.86,121.63-42.4,183.86-2.63,17.2-5.07,34.43-7.44,51.66-.48,3.5.85,6.94,4.54,8,3,.87,7.52-1.07,8-4.54,8.46-61.49,17.82-123,33.84-183.07q7.07-26.5,16-52.45H788.06c10.1,62.38,17.81,125.13,26.84,187.67,2.3,16,4.67,31.93,7.25,47.85,1.33,8.24,13.86,4.74,12.54-3.46Z"/><path class="cls-1" d="M769.47,403.43l39.31,3.15c8.34.67,8.3-12.34,0-13l-39.31-3.15c-8.34-.67-8.3,12.34,0,13Z"/><path class="cls-1" d="M853.28,299.24c-8.25,62.08-11.35,125.23-11,187.83.1,16.49.53,33,1.57,49.46.52,8.31,13.53,8.37,13,0C853,474,855.66,410.78,861,348.46c1.41-16.44,3.11-32.86,5.28-49.22.47-3.51-3.32-6.47-6.5-6.5-3.89,0-6,3-6.5,6.5Z"/><path class="cls-1" d="M853.52,299c6.55,32.33,16.35,63.9,22.9,96.23,1.32,6.5,10.86,5.88,12.54,0,8.94-31.4,21.56-61.54,30.5-92.94l-12.77-1.73c5.16,78.35,11.2,156.64,16.36,235,.55,8.31,13.55,8.37,13,0-5.16-78.35-11.2-156.64-16.36-235-.47-7.13-10.68-9.05-12.77-1.73-8.94,31.4-21.56,61.54-30.5,92.94h12.54c-6.55-32.33-16.35-63.9-22.9-96.23-1.66-8.19-14.19-4.73-12.54,3.46Z"/></g></g></g></g></svg>