<?xml version="1.0" encoding="utf-8"?>
<!-- Generator: Adobe Illustrator 21.1.0, SVG Export Plug-In . SVG Version: 6.00 Build 0)  -->
<svg version="1.1" id="Layer_1" xmlns="http://www.w3.org/2000/svg" xmlns:xlink="http://www.w3.org/1999/xlink" x="0px" y="0px"
	 viewBox="0 0 936.1 543" style="enable-background:new 0 0 936.1 543;" xml:space="preserve">
<style type="text/css">
	.st0{fill:#001694;}
</style>
<title>msnd_title</title>
<g id="Layer_2">
	<g id="text">
		<g id="title">
			<g id="a">
				<path class="st0" d="M96,4.9C70.2,64.4,57.6,127.7,49.2,191.6c-2.3,17.3-4.3,34.5-6.3,51.8c-1,8.3,12,8.2,13,0
					c7-60.6,14.4-121.4,32.3-179.9c5.3-17.7,11.7-35,19-52C110.5,3.9,99.3-2.7,96,4.9L96,4.9z"/>
				<path class="st0" d="M95.3,9.9c9.3,28.3,14.1,58.1,17.3,87.6c3.6,32.6,5.1,65.3,4.7,98.1c-0.2,16-1,31.9-2.6,47.8
					c-0.8,8.3,12.2,8.3,13,0c3-30.4,3.2-61,1.9-91.5c-1.4-33-4.5-66-10.3-98.5c-2.7-15.9-6.6-31.6-11.5-47
					C105.3-1.4,92.7,2,95.3,9.9z"/>
				<path class="st0" d="M65.3,136.6c19.4,2.3,39.1,1.8,58.4-1.4c8.2-1.3,4.7-13.8-3.5-12.5c-18.2,2.9-36.7,3.2-54.9,0.9
					C57,122.6,57.1,135.6,65.3,136.6L65.3,136.6z"/>
			</g>
			<g id="midsummer">
				<path class="st0" d="M282.1,243.4c-2.7-63.1-2.5-126.3-3.9-189.4c-0.3-15.3-0.7-30.5-1.4-45.8c-0.3-7.7-10.1-8.3-12.8-1.7
					c-10.4,25.2-17.2,52-29.1,76.6l11.9,1.6c-9.1-26.1-12.2-54.8-24.4-79.7c-3.2-6.4-11.5-2.4-12.1,3.3
					C203,71.8,199,135.6,195.9,199.5c-0.7,14.7-1.4,29.4-2.1,44.1c-0.4,8.4,12.6,8.3,13,0c3-59.1,5.6-118.1,10.7-177.1
					c1.7-19.4,3.7-38.9,5.9-58.2l-12.1,3.3c5.8,11.7,8.7,25,12.1,37.6c3.5,13,6.6,26.3,11,39c1.7,4.8,9.3,7,11.9,1.6
					c12.4-25.6,19.6-53.4,30.4-79.7l-12.8-1.7c2.7,63.1,2.5,126.3,3.9,189.4c0.3,15.3,0.7,30.6,1.4,45.8
					C269.4,251.8,282.4,251.8,282.1,243.4L282.1,243.4z"/>
				<path class="st0" d="M291.2,8.1c1.1,63.2,0,126.4,0,189.6c0,15.3,0.1,30.5,0.3,45.8c0.1,8.4,13.1,8.4,13,0
					c-1.1-63.2,0-126.4,0-189.6c0-15.3-0.1-30.5-0.3-45.8C304.1-0.2,291.1-0.3,291.2,8.1z"/>
				<path class="st0" d="M324.5,15.8c16.4,4.6,30.3,15.7,39.4,30c10.7,16.7,13.2,36.7,13.4,56.2c0.3,20.1-4.4,39.4-9.9,58.7
					c-4.3,15-8.4,30.2-15.4,44.2c-7.3,14.6-17.9,28.2-34.4,32.3l8.2,6.3c-0.2-64.4,3.3-128.8,4.9-193.1c0.3-14,0.7-28.1,0.6-42.1
					c0-8.4-13-8.4-13,0c0.2,64.3-3.3,128.8-4.8,193.1c-0.3,14-0.7,28.1-0.6,42.1c0.1,3.6,3,6.5,6.7,6.5c0.5,0,1-0.1,1.6-0.2
					c35.5-8.8,47.9-48.1,57-79c6.2-20.9,12.2-42.3,12.3-64.2c0.1-21.4-2.1-44-12.7-63S349.2,9.2,328,3.3
					C319.9,1,316.5,13.6,324.5,15.8L324.5,15.8z"/>
				<path class="st0" d="M457.2,39.6c-5.8-11.2-12.3-23.5-23.4-30.3c-10.2-6.2-23.6-6.4-32.5,2.3c-19.5,19.2-6.3,53.6,3.3,74.4
					c5.7,12.2,12.9,23.7,21.4,34.1c7.6,9.3,16,17.9,21.7,28.6c11.4,21.6,4.7,48-9.1,66.8c-7.3,10.1-18.6,20.8-31.8,21.5
					c-12,0.6-21.8-8.3-24.1-19.6c-1.7-8.2-14.2-4.7-12.5,3.5c4.9,23.5,30.1,34.9,51.5,25.6c22.2-9.6,37.8-33.9,42.9-56.8
					c2.7-12.2,2.9-25.2-1.1-37.1c-3.9-11.7-11.2-21.5-19.1-30.8c-8.5-10.1-16.6-20-23.1-31.6c-6.5-11.7-11.4-24.2-14.7-37.2
					c-2.5-10.3-5-34.5,11.1-35.2c14.5-0.6,22.8,17.9,28.3,28.4C449.8,53.6,461,47,457.2,39.6L457.2,39.6z"/>
				<path class="st0" d="M476.6,7.1c-2,33.3-3.4,66.6-3.6,99.9c-0.1,17,0.1,34,0.8,51c0.7,16.3,1.3,33,4.2,49.1
					c2.9,15.4,10.2,31.5,24.7,39.1c13.9,7.2,29.4,3.2,40-7.7c12.1-12.4,15.3-29.9,16-46.6c0.7-18.4,0-36.9-0.3-55.3
					c-0.7-42.5-1.9-85-3.7-127.5c-0.3-8.3-13.3-8.4-13,0c1.5,34.6,2.6,69.3,3.3,104c0.4,17.1,0.6,34.3,0.8,51.4
					c0.1,16.7,1.7,34.6-3.7,50.7c-3.8,11.5-14.8,24.7-28.4,21.5c-14.6-3.4-20.7-19.9-23.1-32.9c-2.8-14.9-3.1-30.5-3.8-45.6
					c-0.6-15.6-0.8-31.1-0.8-46.7c0.1-34.8,1.5-69.5,3.6-104.2C490.1-1.2,477.1-1.2,476.6,7.1L476.6,7.1z"/>
				<path class="st0" d="M652.2,243.5c1.4-60.6,4.8-121.2,3-181.8c-0.5-17.4-1.5-34.9-3.1-52.2c-0.7-7.5-10-8.6-12.8-1.7l-33.7,84.4
					h12.5c-4-14.4-9.8-28.4-14.9-42.4c-5.3-14.6-11.4-29.6-13.9-45c-1.2-7.5-12.5-5.3-12.8,1.7c-2.7,63.1-7.6,126.1-9.6,189.3
					c-0.5,15.9-0.7,31.8-0.7,47.8c0,8.4,13,8.4,13,0c-0.1-58.5,4-116.8,7.2-175.1c1.1-20.6,2.1-41.2,3-61.9l-12.7,1.7
					c2.5,15.4,8.6,30.4,13.9,45c5.1,14,11,28,14.9,42.4c1.8,6.7,10.3,5.6,12.5,0l33.7-84.4l-12.8-1.7c5.8,61.6,3.6,123.8,1.6,185.6
					c-0.5,16.1-1.1,32.3-1.5,48.4C639,251.9,652,251.9,652.2,243.5L652.2,243.5z"/>
				<path class="st0" d="M751.4,243.4c-3.4-58.4-3.3-116.8-5.3-175.2c-0.7-20-1.5-40-2.5-59.9c-0.4-7.2-10.7-9-12.8-1.7
					c-7.9,27.6-19.8,53.8-35.2,78h11.2c-6.9-11.5-10.4-25.8-14.3-38.6c-4.1-13.2-8.5-26.7-10.8-40.3c-0.5-3.2-4.2-5-7.1-4.7
					c-3.4,0.5-5.3,3.1-5.6,6.4c-7.4,62.2-7,125-7.1,187.6c0,16.2-0.1,32.4-0.3,48.6c-0.1,8.4,12.9,8.4,13,0
					c1-61.2-0.7-122.4,2.9-183.6c1-17.6,2.5-35.2,4.6-52.6L669.3,9c2.4,14,6.9,27.9,11.1,41.5c4.2,13.4,8,28.3,15.2,40.5
					c1.9,3.1,5.9,4.1,9,2.2c0.9-0.5,1.6-1.3,2.2-2.2c16-25.1,28.3-52.4,36.5-81l-12.8-1.7c3.3,62.6,3.7,125.3,5.7,187.9
					c0.5,15.8,1.2,31.5,2.1,47.2C738.9,251.7,751.9,251.7,751.4,243.4L751.4,243.4z"/>
				<path class="st0" d="M828.2,234.2l-62.6,1.8l6.5,6.5l2.8-234.3l-6.5,6.5l65-1.7c8.3-0.2,8.4-13.2,0-13l-65,1.7
					c-3.6,0.1-6.4,2.9-6.5,6.5l-2.8,234.3c0,3.6,2.9,6.5,6.5,6.5l62.6-1.8C836.5,246.9,836.5,233.9,828.2,234.2L828.2,234.2z"/>
				<path class="st0" d="M770.1,86.2c17.6-1.2,35.1-3,52.7-4.2c8.3-0.6,8.4-13.6,0-13c-17.6,1.2-35.1,3-52.7,4.2
					C761.8,73.7,761.7,86.8,770.1,86.2z"/>
				<path class="st0" d="M933.3,241.7c-21.8-53.7-42.6-108.3-70.4-159.2l-7.3,9.5c17.3,3.2,35.8,7.2,52.2-1.3
					c13.4-7,25.1-20.1,27.6-35.3c4.2-25.5-15.6-46.7-39.4-52c-13-2.8-27.2-1.9-40.5-1.6c-3.6,0.1-6.4,2.9-6.5,6.5
					c0.6,78.4,1.2,156.9,1.8,235.3c0.1,8.4,13.1,8.4,13,0c-0.6-78.4-1.2-156.9-1.8-235.3l-6.5,6.5c16-0.4,31.1-1.6,45.6,3.9
					c11,4.2,19.9,13.9,21.7,25.8c1.9,12.6-5.7,24.3-15.6,31.4c-14.7,10.5-31.6,6.7-48.1,3.7c-5.5-1-10.2,4.3-7.3,9.6
					c27.3,50,47.8,103.4,69.1,156.1c1.3,3.3,4.3,5.5,8,4.5C931.9,248.9,934.6,244.9,933.3,241.7L933.3,241.7z"/>
			</g>
			<g id="night_s">
				<path class="st0" d="M51.7,299v235.2l12.8-1.7c-8.9-29.1-15.1-59-21-88.8c-6.5-33-12.3-66.1-18.1-99.1
					c-2.8-15.7-5.5-31.6-8.5-47.3c-1.4-7.4-12.6-5.4-12.8,1.7L0,534.4c-0.2,8.4,12.9,8.4,13,0L17.1,299l-12.8,1.8
					c12,62.9,21.4,126.3,35.5,188.8c3.5,15.6,7.4,31.1,12.1,46.5c2.1,6.9,12.8,5.8,12.8-1.7V299C64.8,290.6,51.8,290.6,51.7,299
					L51.7,299z"/>
				<path class="st0" d="M91.8,299c-1.5,78.4-2.9,157,0.4,235.4c0.3,8.3,13.3,8.4,13,0c-3.2-78.4-1.9-157-0.4-235.4
					C105,290.6,92,290.6,91.8,299z"/>
				<path class="st0" d="M172,312.1c-3.6-10.8-11.9-20.9-24.4-19.4c-12.1,1.5-19.2,12.4-23.5,22.7c-5.9,14.1-8.1,29.6-9.6,44.8
					c-1.6,15.8-2.7,31.6-3.3,47.5c-1.2,31.5-0.4,64.3,8.8,94.7c3.5,11.6,8.5,25.6,17.9,33.9c7.5,6.6,18.6,6,26.3-0.1
					c10.4-8.1,13.9-24.6,15.8-36.8c3-19,1.4-38.1-0.3-57.1c-0.3-3.5-2.7-6.5-6.5-6.5l-27.9-0.1c-8.4,0-8.4,13,0,13l27.9,0.1
					l-6.5-6.5c1.3,14.2,2.5,28.5,1.8,42.7c-0.6,11.8-2.6,24.8-8.1,35.4c-2.2,4.3-6.9,9.4-12.1,7.4c-3.5-1.4-6-6.4-7.7-9.4
					c-2.8-5.1-5.1-10.4-6.8-15.9c-8.2-24.6-9.9-51.1-9.8-76.9c0-26.5,1.2-54,5.5-80.2c2-11.7,4.5-26.6,12.8-35.8
					c7.1-7.8,14.3-2.8,17.2,5.8C162.2,323.4,174.7,320.1,172,312.1L172,312.1z"/>
				<path class="st0" d="M185.8,299c0.1,78.4-1.6,156.8-3.1,235.2c-0.2,8.4,12.8,8.4,13,0c1.6-78.4,3.2-156.8,3.1-235.2
					C198.8,290.6,185.8,290.6,185.8,299z"/>
				<path class="st0" d="M197.1,446.7l35-1.4c8.3-0.3,8.4-13.3,0-13l-35,1.4C188.8,434,188.8,447,197.1,446.7z"/>
				<path class="st0" d="M232.9,299l-2.4,235.2c-0.1,8.4,12.9,8.4,13,0l2.4-235.2C246,290.6,233,290.6,232.9,299z"/>
				<path class="st0" d="M260.7,305.7l71.6,0.3c8.4,0,8.4-13,0-13l-71.6-0.3C252.4,292.7,252.3,305.7,260.7,305.7z"/>
				<path class="st0" d="M290,299c-1,57.3-2.8,114.5-3.8,171.7c-0.4,21.2-0.8,42.4-1.1,63.7c-0.1,8.4,12.9,8.4,13,0
					c1.1-63.4,2.4-126.7,4-190.1c0.3-15.1,0.7-30.2,1-45.3C303.2,290.6,290.2,290.6,290,299L290,299z"/>
				<path class="st0" d="M340.6,311.3l-6.7,29.6c-1.9,8.1,10.7,11.6,12.5,3.5l6.7-29.6C355,306.6,342.5,303.2,340.6,311.3z"/>
				<path class="st0" d="M431,328.6c-5.8-11.2-12.3-23.5-23.4-30.3c-10.2-6.2-23.6-6.4-32.5,2.3c-19.5,19.2-6.3,53.6,3.3,74.3
					c5.7,12.2,12.9,23.7,21.5,34.1c7.6,9.3,16,17.9,21.7,28.6c11.4,21.6,4.7,48-9.1,66.8c-7.3,10.1-18.7,20.8-31.8,21.5
					c-12,0.7-21.8-8.3-24.1-19.6c-1.7-8.2-14.2-4.7-12.5,3.5c4.9,23.5,30.1,34.9,51.5,25.6c22.2-9.5,37.8-33.9,42.9-56.8
					c2.7-12.2,2.9-25.2-1.1-37.1c-3.9-11.7-11.2-21.5-19.1-30.8c-8.5-10.1-16.6-20-23.1-31.6c-6.5-11.7-11.4-24.2-14.7-37.2
					c-2.5-10.3-5-34.5,11.1-35.2c14.5-0.6,22.8,17.9,28.3,28.4C423.6,342.6,434.8,336,431,328.6L431,328.6z"/>
			</g>
			<g id="dream">
				<path class="st0" d="M501.1,307.3c29.9,10.2,40.2,48.6,43.2,76.6c3.5,32.4-0.1,68.5-13.1,98.6c-3.9,9.3-9,18-15.1,25.9
					c-3.3,4.2-7,8.2-10.9,11.9c-1.8,1.7-3.7,3.4-5.7,5c-1,0.8-1.9,1.6-3,2.3c-1.8,1.4-2.3,1.4-0.4,1.4l6.5,6.5
					c0.4-59.3,3.5-118.5,5.3-177.7c0.6-19,1-37.9,1.3-56.9c0.1-8.4-12.9-8.4-13,0c-1,62.3-4,124.6-5.7,186.9
					c-0.4,15.9-0.8,31.8-0.9,47.7c0,3.6,2.9,6.5,6.5,6.5c4.5,0,8.7-4.4,12-7.1c4.3-3.5,8.3-7.3,12-11.3c7-7.6,12.9-16.1,17.8-25.2
					c9.1-17.1,14.4-36,17.3-55.1c5.5-36.4,4.7-75.4-10.9-109.4c-8.1-17.6-21.2-32.8-39.9-39.1C496.6,292,493.2,304.6,501.1,307.3z"
					/>
				<path class="st0" d="M639.3,532.3c-23-45.4-35-95.3-59.6-139.9l-5.6,9.8c26.4-1.1,56.3-6,68.9-32.7c6.1-12.7,6.3-27.4,0.5-40.2
					c-5.2-11.4-15.8-18.3-26.9-23.2c-13.5-6-27.8-9.9-42.5-11.5c-3.5-0.4-6.5,3.3-6.5,6.5c0.1,62-2.7,124-4,186.1
					c-0.3,16.4-0.5,32.8-0.5,49.1c0,8.4,13,8.4,13,0c-0.1-62,2.7-124,4-186.1c0.3-16.4,0.5-32.8,0.5-49.1l-6.5,6.5
					c13.3,1.4,26.4,5.1,38.5,10.8c12,5.7,21.4,13.8,22.1,28c0.7,14.6-7.4,27.5-19.9,34.6c-12.2,6.9-26.9,7.6-40.6,8.2
					c-3.6,0.1-6.5,3.1-6.4,6.7c0,1.1,0.3,2.1,0.8,3.1c24.6,44.6,36.6,94.6,59.6,139.9C631.9,546.3,643.1,539.7,639.3,532.3
					L639.3,532.3z"/>
				<path class="st0" d="M730.2,528l-66.4,1.7l6.5,6.5L681.1,301l-6.5,6.5c19.6,0.6,39.3,0.3,58.9,0.9v-13h-6.6c-8.4,0-8.4,13,0,13
					h6.6c8.4,0,8.4-12.8,0-13c-19.6-0.6-39.3-0.3-58.9-0.9c-3.6-0.1-6.3,3.1-6.5,6.5l-10.8,235.2c0,3.6,2.9,6.5,6.5,6.5l66.4-1.7
					C738.6,540.8,738.6,527.8,730.2,528z"/>
				<path class="st0" d="M669.5,400c18-0.9,36.1-1.3,54.1-2.2c8.3-0.4,8.4-13.4,0-13c-18,0.9-36.1,1.3-54.1,2.2
					C661.2,387.4,661.1,400.4,669.5,400z"/>
				<path class="st0" d="M834.7,534.8c-10.1-62.4-17.8-125.1-26.8-187.7c-2.3-16-4.7-31.9-7.3-47.9c-1.1-6.9-10.7-5.5-12.5,0
					c-20.6,59.6-32.9,121.6-42.4,183.9c-2.6,17.2-5.1,34.4-7.4,51.7c-0.5,3.5,0.8,6.9,4.5,8c3,0.9,7.5-1.1,8-4.5
					c8.5-61.5,17.8-123,33.8-183.1c4.7-17.7,10-35.1,16-52.5h-12.5c10.1,62.4,17.8,125.1,26.8,187.7c2.3,16,4.7,31.9,7.3,47.8
					C823.5,546.5,836,543,834.7,534.8L834.7,534.8z"/>
				<path class="st0" d="M769.5,403.4l39.3,3.1c8.3,0.7,8.3-12.3,0-13l-39.3-3.1C761.1,389.8,761.2,402.8,769.5,403.4z"/>
				<path class="st0" d="M853.3,299.2c-8.3,62.1-11.3,125.2-11,187.8c0.1,16.5,0.5,33,1.6,49.5c0.5,8.3,13.5,8.4,13,0
					c-3.9-62.5-1.2-125.8,4.1-188.1c1.4-16.4,3.1-32.9,5.3-49.2c0.5-3.5-3.3-6.5-6.5-6.5C855.9,292.7,853.8,295.7,853.3,299.2z"/>
				<path class="st0" d="M853.5,299c6.5,32.3,16.3,63.9,22.9,96.2c1.3,6.5,10.9,5.9,12.5,0c8.9-31.4,21.6-61.5,30.5-92.9l-12.8-1.7
					c5.2,78.4,11.2,156.6,16.4,235c0.5,8.3,13.5,8.4,13,0c-5.2-78.4-11.2-156.6-16.4-235c-0.5-7.1-10.7-9-12.8-1.7
					c-8.9,31.4-21.6,61.5-30.5,92.9H889c-6.5-32.3-16.3-63.9-22.9-96.2C864.4,287.3,851.9,290.8,853.5,299L853.5,299z"/>
			</g>
		</g>
	</g>
</g>
</svg>
