<?xml version="1.0" encoding="utf-8"?>
<!-- Generator: Adobe Illustrator 21.0.0, SVG Export Plug-In . SVG Version: 6.00 Build 0)  -->
<svg version="1.1" xmlns="http://www.w3.org/2000/svg" xmlns:xlink="http://www.w3.org/1999/xlink" x="0px" y="0px"
	 viewBox="0 0 933.1 269.6" style="enable-background:new 0 0 933.1 269.6;" xml:space="preserve">
<style type="text/css">
	.st0{fill:#3C9688;}
	.st1{fill:#3D1814;}
	.st2{fill:#D11D26;}
</style>
<g id="Layer_1">
	<title>Asset 2</title>
	<g>
		<path class="st0" d="M23.3,191V58.5h14.2c11.4,0,20.1,3.3,26,10c6,6.7,9,15.5,9,26.6c0,12.6-4.6,22.1-13.8,28.4
			c7.1,5,13.1,18.4,18.1,40.2l6.1,27.2H65.1l-5.1-22.9c-3.7-16-6.8-26.2-9.5-30.6c-2.7-4.4-6.1-6.3-10.1-5.9V191L23.3,191z
			 M40.3,115.8h0.8c9.6,0,14.3-6.7,14.3-20c0-14.2-5-21.3-15.1-21.4L40.3,115.8z"/>
		<path class="st0" d="M126.4,192.7c-10.5,0-19-6.1-25.6-18.2S91,145.9,91,124.8c0-19.9,3.1-36.3,9.3-49c6.2-12.7,14.9-19,26.1-19
			c10.8,0,19.5,6.3,25.9,19c6.4,12.7,9.6,29,9.6,49c0,21.3-3.4,38-10.2,50C145,186.7,136.5,192.7,126.4,192.7z M126.2,72.7
			c-5.6,0-9.9,4.6-12.9,13.9s-4.5,22-4.5,38.2c0,16.8,1.5,29.7,4.6,38.7c3.1,9,7.5,13.4,13.2,13.4c5.4,0,9.7-4.6,12.8-13.7
			c3.1-9.2,4.7-21.9,4.7-38.4c0-16.7-1.6-29.5-4.7-38.6S131.8,72.7,126.2,72.7z"/>
		<path class="st0" d="M214.1,107.1l19.7-48.6h14.6V191h-16.7l1.1-95.8l-0.5-0.4l-16.6,43.6h-3.1l-16.7-43.6l-0.5,0.4l1.1,95.8
			h-16.7V58.5h14.6L214.1,107.1z"/>
		<path class="st0" d="M271,191V58.5h47.2v15.8H288V114h27.6v15.9H288v45.2h31.8V191L271,191z"/>
		<path class="st0" d="M374,192.7c-10.5,0-19-6.1-25.6-18.2s-9.9-28.7-9.9-49.8c0-19.9,3.1-36.3,9.3-49s14.9-19,26.1-19
			c10.8,0,19.5,6.3,25.9,19s9.6,29,9.6,49c0,21.3-3.4,38-10.2,50C392.6,186.7,384.1,192.7,374,192.7z M373.8,72.7
			c-5.6,0-9.9,4.6-12.9,13.9s-4.5,22-4.5,38.2c0,16.8,1.5,29.7,4.6,38.7s7.5,13.4,13.2,13.4c5.4,0,9.7-4.6,12.8-13.7
			c3.1-9.2,4.7-21.9,4.7-38.4c0-16.7-1.6-29.5-4.7-38.6S379.5,72.7,373.8,72.7L373.8,72.7z"/>
	</g>
</g>
<g id="Layer_3_1_">
	<path class="st1" d="M488.6,171.3l-3.4-8c-4.7,5.3-9.6,8-14.8,8c-5.6,0-10.4-2.6-14.3-7.8c-4-5.2-6-11.5-6-18.9
		c0-10.8,4.5-20.2,13.6-28.2c-3.4-7.5-5.1-13.7-5.1-18.8c-0.1-5,1.7-9.9,5-13.7c3.3-3.8,7.3-5.7,11.8-5.7c4.2,0,8.2,1.7,11,4.9
		c3,3.3,4.6,7.6,4.5,12c0,7.7-4.5,15.5-13.4,23.3l8.9,20.9h0.3c1.3-4.9,2.3-9.9,2.9-14.9H500c-0.9,9.7-3.4,19.2-7.5,28l8.7,19
		L488.6,171.3z M480.4,152.6l-11.6-25.7c-2.1,2.4-3.9,5.1-5.4,8c-1.2,2.8-1.8,5.8-1.6,8.8c-0.2,4,0.8,8,2.8,11.4
		c1.8,3,4.1,4.5,6.9,4.5C474.6,159.7,477.6,157.3,480.4,152.6L480.4,152.6z M473,108.6c2.2-2.1,4.2-4.4,6-6.9c1.3-2,2-4.4,1.9-6.9
		c0.1-2-0.5-3.9-1.6-5.5c-0.9-1.3-2.4-2.2-4-2.2c-1.7,0-3.3,0.9-4.3,2.4c-1.2,1.7-1.8,3.8-1.7,5.9C469.4,99.5,470.6,103.9,473,108.6
		L473,108.6z"/>
</g>
<g id="Layer_2_1_">
	<g>
		<path class="st2" d="M551.8,210.3l-1.8-15.6c3.2,0.3,5.7,0.4,7.6,0.4c4.8,0,8-1.1,9.4-3.4c1.4-2.3,2.1-6.7,2.1-13.5V38.5h17v137
			c0,23.6-8.7,35.4-26.2,35.4C557.2,211,554.5,210.8,551.8,210.3z"/>
		<path class="st2" d="M608.6,57.7h17v99.4c0,12.6,4.2,18.9,12.5,18.9c3.6,0,7-1.7,9-4.7c2.3-3.2,3.5-7.6,3.5-13.3V57.7h17V156
			c0,11.6-2.9,20.5-8.8,26.6c-5.9,6.1-12.8,9.2-20.7,9.2c-8.1,0.2-15.9-3.4-21.1-9.6c-5.6-6.4-8.4-14.7-8.4-24.9L608.6,57.7z"/>
		<path class="st2" d="M690,191V58.5h17v116.6h32.7V191H690z"/>
		<path class="st2" d="M751.5,191V58.5h17V191H751.5z"/>
		<path class="st2" d="M791.2,191V58.5h47.2v15.9h-30.1V114h27.6v15.9h-27.6v45.2H840V191L791.2,191z"/>
		<path class="st2" d="M874.2,191V74.4h-20.3V58.5h57.7v15.9h-20.3V191H874.2z"/>
	</g>
</g>
</svg>
