<?xml version="1.0" encoding="utf-8"?>
<!-- Generator: Adobe Illustrator 20.0.0, SVG Export Plug-In . SVG Version: 6.00 Build 0)  -->
<svg version="1.1" id="Layer_1" xmlns="http://www.w3.org/2000/svg" xmlns:xlink="http://www.w3.org/1999/xlink" x="0px" y="0px"
	 viewBox="0 0 110.5 95" style="enable-background:new 0 0 110.5 95;" xml:space="preserve">
<style type="text/css">
	.st0{display:none;}
	.st1{display:inline;}
	.st2{fill:url(#SVGID_1_);}
	.st3{fill:#D3A4FF;}
	.st4{fill:#FFFFFF;}
	.st5{font-family:'MyriadPro-BoldCond';}
	.st6{font-size:12px;}
	.st7{font-size:8px;}
</style>
<g id="Layer_1_1_" class="st0">
	<g id="Layer_2" class="st1">
		<rect width="110.5" height="95"/>
	</g>
</g>
<g id="Layer_2_1_">
	<g>
		
			<radialGradient id="SVGID_1_" cx="392.1736" cy="675.0849" r="24.6225" gradientTransform="matrix(1 0 0 1 -340.75 -643.5)" gradientUnits="userSpaceOnUse">
			<stop  offset="0" style="stop-color:#100027;stop-opacity:0.85"/>
			<stop  offset="0.767" style="stop-color:#100027"/>
		</radialGradient>
		<path class="st2" d="M36.4,19.3h37.8V56H36.4V19.3z"/>
		<path class="st3" d="M34.7,17.6v40.2h41.2V17.6H34.7z M36.4,19.3h37.8V56H36.4V19.3z M46.3,40.4l-1.4,5.1c0,0.1-0.1,0.2-0.3,0.2
			h-2.5c-0.2,0-0.2-0.1-0.2-0.3l4.9-17.1c0.1-0.3,0.1-0.6,0.2-1.4c0-0.1,0.1-0.2,0.1-0.2h3.6c0.1,0,0.2,0,0.2,0.2l5.5,18.5
			c0,0.1,0,0.2-0.1,0.2h-2.8c-0.1,0-0.2-0.1-0.3-0.2l-1.4-5.2h-5.5V40.4z M51.1,37.6c-0.5-1.9-1.6-6.1-2.1-8.1l0,0
			c-0.4,2-1.3,5.4-2,8.1H51.1z M60.3,39.3c0,2.3,1.1,3.9,3.7,3.9c1,0,1.9-0.1,2.8-0.5c0.1-0.1,0.2,0,0.2,0.1V45
			c0,0.2-0.1,0.3-0.2,0.3c-0.9,0.5-2,0.7-3.5,0.7c-4.5,0-6.2-3.3-6.2-7.1c0-4.1,2.1-7.4,5.8-7.4c3.7,0,5,3.1,5,5.7
			c0,0.8-0.1,1.5-0.1,1.8c0,0.1-0.1,0.2-0.2,0.2c-0.3,0.1-1.4,0.1-2.9,0.1H60.3L60.3,39.3z M63.8,37c0.9,0,1.2,0,1.3,0
			c0-0.1,0-0.2,0-0.3c0-0.9-0.5-2.7-2.2-2.7c-1.6,0-2.4,1.4-2.5,3H63.8L63.8,37z"/>
	</g>
	<text transform="matrix(1 0 0 1 30.8667 74.5)" class="st4 st5 st6">After Effect </text>
	<text transform="matrix(1 0 0 1 39.6667 82.5)" class="st4 st5 st7">Animation</text>
	<text transform="matrix(1 0 0 1 68.9667 82.5)" class="st4 st5 st6"> </text>
</g>
</svg>
