<?xml version="1.0" encoding="utf-8"?>
<!-- Generator: Adobe Illustrator 20.0.0, SVG Export Plug-In . SVG Version: 6.00 Build 0)  -->
<svg version="1.1" id="Layer_1" xmlns="http://www.w3.org/2000/svg" xmlns:xlink="http://www.w3.org/1999/xlink" x="0px" y="0px"
	 viewBox="0 0 110.5 95" style="enable-background:new 0 0 110.5 95;" xml:space="preserve">
<style type="text/css">
	.st0{display:none;}
	.st1{display:inline;}
	.st2{fill:url(#SVGID_1_);}
	.st3{fill:#D3A4FF;}
	.st4{enable-background:new    ;}
	.st5{fill:#FFFFFF;}
	.st6{font-family:'MyriadPro-BoldCond';}
	.st7{font-size:12px;}
</style>
<g id="Layer_1_1_" class="st0">
	<g id="Layer_2" class="st1">
		<rect width="110.5" height="95"/>
	</g>
</g>
<g id="Layer_2_1_">
	<g>
		
			<radialGradient id="SVGID_1_" cx="392.1736" cy="-579.0849" r="24.6225" gradientTransform="matrix(1 0 0 -1 -340.75 -547.5)" gradientUnits="userSpaceOnUse">
			<stop  offset="0" style="stop-color:#100027;stop-opacity:0.85"/>
			<stop  offset="0.767" style="stop-color:#100027"/>
		</radialGradient>
		<path class="st2" d="M36.4,19.3h37.8V56H36.4V19.3z"/>
		<path class="st3" d="M34.7,17.6v40.2h41.2V17.6H34.7z M36.4,19.3h37.8V56H36.4V19.3z M46.3,40.4l-1.4,5.1c0,0.1-0.1,0.2-0.3,0.2
			h-2.5c-0.2,0-0.2-0.1-0.2-0.3l4.9-17.1c0.1-0.3,0.1-0.6,0.2-1.4c0-0.1,0.1-0.2,0.1-0.2h3.6c0.1,0,0.2,0,0.2,0.2l5.5,18.5
			c0,0.1,0,0.2-0.1,0.2h-2.8c-0.1,0-0.2-0.1-0.3-0.2l-1.4-5.2h-5.5V40.4z M51.1,37.6c-0.5-1.9-1.6-6.1-2.1-8.1l0,0
			c-0.4,2-1.3,5.4-2,8.1H51.1z M60.3,39.3c0,2.3,1.1,3.9,3.7,3.9c1,0,1.9-0.1,2.8-0.5c0.1-0.1,0.2,0,0.2,0.1V45
			c0,0.2-0.1,0.3-0.2,0.3c-0.9,0.5-2,0.7-3.5,0.7c-4.5,0-6.2-3.3-6.2-7.1c0-4.1,2.1-7.4,5.8-7.4c3.7,0,5,3.1,5,5.7
			c0,0.8-0.1,1.5-0.1,1.8c0,0.1-0.1,0.2-0.2,0.2c-0.3,0.1-1.4,0.1-2.9,0.1H60.3L60.3,39.3z M63.8,37c0.9,0,1.2,0,1.3,0
			c0-0.1,0-0.2,0-0.3c0-0.9-0.5-2.7-2.2-2.7c-1.6,0-2.4,1.4-2.5,3H63.8L63.8,37z"/>
	</g>
	<g class="st4">
		<path class="st5" d="M32.8,72.7l-0.4,1.8H31l1.8-8.1h1.9l1.6,8.1h-1.5l-0.3-1.8H32.8z M34.2,71.4l-0.3-1.7
			c-0.1-0.5-0.2-1.3-0.3-1.8l0,0c-0.1,0.5-0.2,1.4-0.3,1.8L33,71.4H34.2z"/>
		<path class="st5" d="M37.1,74.5v-4.7h-0.8v-1.1h0.8v-0.2c0-0.7,0.1-1.3,0.6-1.8c0.3-0.4,0.9-0.5,1.4-0.5c0.4,0,0.7,0.1,0.9,0.1
			l-0.2,1.2c-0.1,0-0.3-0.1-0.5-0.1c-0.5,0-0.7,0.5-0.7,1v0.3h1v1.1h-1v4.7H37.1z"/>
		<path class="st5" d="M42.2,67.1v1.6h1.2v1.1h-1.2v2.7c0,0.7,0.3,0.9,0.6,0.9c0.2,0,0.3,0,0.4,0v1.2c-0.2,0.1-0.5,0.1-1,0.1
			s-0.9-0.1-1.1-0.4c-0.3-0.3-0.5-0.8-0.5-1.7v-2.8h-0.7v-1.1h0.7v-1.2L42.2,67.1z"/>
		<path class="st5" d="M45.3,72.1c0,0.9,0.6,1.2,1.2,1.2c0.4,0,0.8-0.1,1.1-0.2l0.2,1.1c-0.4,0.2-1,0.3-1.6,0.3
			c-1.6,0-2.5-1.1-2.5-2.9c0-2,1-3.1,2.4-3.1c1.3,0,2,1,2,2.8c0,0.4,0,0.6,0,0.8C48.1,72.1,45.3,72.1,45.3,72.1z M46.7,71
			c0-0.8-0.2-1.3-0.7-1.3s-0.7,0.8-0.7,1.3H46.7z"/>
		<path class="st5" d="M49,70.4c0-0.6,0-1.2,0-1.8h1.4l0.1,0.9l0,0c0.3-0.6,0.7-0.9,1.2-0.9c0.2,0,0.2,0,0.3,0v1.6
			c-0.1,0-0.2,0-0.3,0c-0.3,0-0.8,0.2-1,0.8c0,0.1-0.1,0.3-0.1,0.6v3H49V70.4z"/>
		<path class="st5" d="M58,71h-1.8v2.2h2.1v1.4h-3.7v-8.1h3.5v1.4h-1.9v1.9H58V71z"/>
		<path class="st5" d="M62.4,74.5v-4.7H61v4.7h-1.6v-4.7h-0.8v-1.1h0.8v-0.2c0-0.6,0.2-1.2,0.6-1.7c0.3-0.3,0.8-0.6,1.5-0.6
			c0.2,0,0.5,0,0.7,0.1L62,67.5c-0.1,0-0.2-0.1-0.4-0.1c-0.4,0-0.6,0.4-0.6,1v0.2h1.4v-0.2c0-0.7,0.1-1.3,0.6-1.8
			c0.3-0.4,0.8-0.5,1.4-0.5c0.4,0,0.7,0.1,0.9,0.1l-0.2,1.2c-0.1,0-0.3-0.1-0.5-0.1c-0.5,0-0.7,0.5-0.7,1v0.3h1v1.1h-1v4.7h-1.5
			V74.5z"/>
		<path class="st5" d="M66.8,72.1c0,0.9,0.6,1.2,1.2,1.2c0.4,0,0.8-0.1,1.1-0.2l0.2,1.1c-0.4,0.2-1,0.3-1.6,0.3
			c-1.6,0-2.5-1.1-2.5-2.9c0-2,1-3.1,2.4-3.1c1.3,0,2,1,2,2.8c0,0.4,0,0.6,0,0.8C69.6,72.1,66.8,72.1,66.8,72.1z M68.2,71
			c0-0.8-0.2-1.3-0.7-1.3s-0.7,0.8-0.7,1.3H68.2z"/>
		<path class="st5" d="M73.7,74.4c-0.2,0.1-0.6,0.2-1,0.2c-1.5,0-2.5-1-2.5-3c0-1.8,1.1-3.1,2.7-3.1c0.4,0,0.7,0.1,0.9,0.2l-0.2,1.2
			c-0.1,0-0.3-0.1-0.6-0.1c-0.8,0-1.2,0.7-1.2,1.7c0,1.1,0.4,1.7,1.2,1.7c0.2,0,0.4,0,0.6-0.1L73.7,74.4z"/>
		<path class="st5" d="M76.4,67.1v1.6h1.2v1.1h-1.2v2.7c0,0.7,0.3,0.9,0.6,0.9c0.2,0,0.3,0,0.4,0v1.2c-0.2,0.1-0.5,0.1-1,0.1
			s-0.9-0.1-1.1-0.4c-0.3-0.3-0.5-0.8-0.5-1.7v-2.8h-0.7v-1.1h0.7v-1.2L76.4,67.1z"/>
	</g>
	<g class="st4">
		<path class="st5" d="M41,81.3l-0.2,1.2h-1l1.2-5.4h1.3l1,5.4h-1L42,81.3H41z M41.9,80.5l-0.2-1.1c-0.1-0.3-0.1-0.9-0.2-1.2l0,0
			c-0.1,0.4-0.1,0.9-0.2,1.2l-0.2,1.1H41.9z"/>
		<path class="st5" d="M43.7,79.8c0-0.4,0-0.8,0-1.2h0.9V79l0,0c0.2-0.3,0.5-0.5,1-0.5c0.7,0,1,0.6,1,1.5v2.5h-1v-2.4
			c0-0.3-0.1-0.6-0.4-0.6c-0.2,0-0.3,0.1-0.4,0.4c0,0.1-0.1,0.2-0.1,0.4v2.4h-1V79.8z"/>
		<path class="st5" d="M48.4,77.6c0,0.3-0.2,0.6-0.6,0.6c-0.3,0-0.5-0.2-0.5-0.6s0.2-0.6,0.5-0.6C48.2,77,48.4,77.2,48.4,77.6z
			 M47.4,82.5v-3.9h1v3.9H47.4z"/>
		<path class="st5" d="M49.1,79.8c0-0.4,0-0.8,0-1.2H50v0.5l0,0c0.2-0.3,0.5-0.5,0.9-0.5s0.7,0.2,0.9,0.5l0,0
			c0.1-0.2,0.2-0.3,0.4-0.4s0.4-0.1,0.6-0.1c0.7,0,1,0.6,1,1.5v2.5h-1v-2.3c0-0.4,0-0.8-0.4-0.8c-0.2,0-0.3,0.1-0.4,0.4
			c0,0.1,0,0.2,0,0.3v2.5h-1V80c0-0.3,0-0.7-0.4-0.7c-0.2,0-0.3,0.1-0.4,0.4c0,0.1,0,0.2,0,0.3v2.5h-1L49.1,79.8L49.1,79.8z"/>
		<path class="st5" d="M56.3,82.5l-0.1-0.4l0,0c-0.2,0.3-0.5,0.4-0.9,0.4c-0.6,0-1-0.5-1-1.2c0-1,0.9-1.4,1.8-1.5v-0.1
			c0-0.3-0.2-0.5-0.6-0.5c-0.3,0-0.6,0.1-0.8,0.2l-0.2-0.7c0.2-0.1,0.7-0.3,1.2-0.3c1.2,0,1.4,0.8,1.4,1.6v1.5c0,0.3,0,0.6,0.1,0.9
			L56.3,82.5L56.3,82.5z M56.2,80.6c-0.4,0-0.8,0.1-0.8,0.7c0,0.4,0.2,0.5,0.4,0.5s0.4-0.1,0.4-0.3c0-0.1,0-0.1,0-0.2
			C56.2,81.3,56.2,80.6,56.2,80.6z"/>
		<path class="st5" d="M59.1,77.5v1.1h0.8v0.7h-0.8v1.8c0,0.5,0.2,0.6,0.4,0.6c0.1,0,0.2,0,0.3,0v0.8c-0.1,0-0.4,0.1-0.6,0.1
			c-0.3,0-0.6-0.1-0.8-0.2c-0.2-0.2-0.3-0.5-0.3-1.1v-1.8h-0.5v-0.7h0.5V78L59.1,77.5z"/>
		<path class="st5" d="M61.4,77.6c0,0.3-0.2,0.6-0.6,0.6c-0.3,0-0.5-0.2-0.5-0.6s0.2-0.6,0.5-0.6C61.2,77,61.4,77.2,61.4,77.6z
			 M60.4,82.5v-3.9h1v3.9H60.4z"/>
		<path class="st5" d="M65,80.5c0,1.6-0.9,2-1.5,2c-0.9,0-1.5-0.7-1.5-2c0-1.4,0.7-2,1.5-2C64.4,78.5,65,79.3,65,80.5z M63.1,80.5
			c0,0.7,0.1,1.2,0.5,1.2c0.3,0,0.4-0.7,0.4-1.2s-0.1-1.2-0.4-1.2C63.1,79.3,63.1,80,63.1,80.5z"/>
		<path class="st5" d="M65.6,79.8c0-0.4,0-0.8,0-1.2h0.9V79l0,0c0.2-0.3,0.5-0.5,1-0.5c0.7,0,1,0.6,1,1.5v2.5h-1v-2.4
			c0-0.3-0.1-0.6-0.4-0.6c-0.2,0-0.3,0.1-0.4,0.4c0,0.1-0.1,0.2-0.1,0.4v2.4h-1V79.8z"/>
	</g>
	<text transform="matrix(1 0 0 1 68.9667 82.5)" class="st5 st6 st7"> </text>
</g>
</svg>
