<?xml version="1.0" encoding="utf-8"?>
<!-- Generator: Adobe Illustrator 20.0.0, SVG Export Plug-In . SVG Version: 6.00 Build 0)  -->
<svg version="1.1" xmlns="http://www.w3.org/2000/svg" xmlns:xlink="http://www.w3.org/1999/xlink" x="0px" y="0px"
	 viewBox="0 0 110.5 95" style="enable-background:new 0 0 110.5 95;" xml:space="preserve">
<style type="text/css">
	.st0{display:none;}
	.st1{display:inline;}
	.st2{fill:#FFFFFF;}
</style>
<g id="Layer_2" class="st0">
	<rect class="st1" width="110.5" height="95"/>
</g>
<g id="Layer_1">
	<g>
		<path class="st2" d="M48.8,57.5v-6.2h-8.9v-3.6l8.5-16.2h5v15.6H56v4.2h-2.6v6.2H48.8z M48.8,47.1v-5.3c0-1.4,0.2-2.9,0.3-4.3
			h-0.2c-0.6,1.4-1.1,2.6-1.8,4L44.3,47v0.1H48.8z"/>
		<path class="st2" d="M63.1,46.5L63.1,46.5c0.4-1.1,0.7-1.9,1.1-2.7l2.5-5.8h5.6l-4.7,8.2l5,11.4h-5.8l-2.8-8l-0.9,1.7v6.4h-5.2
			V29.8h5.2V46.5z"/>
		<path class="st2" d="M21.7,74.3l-2.1-9.4h2l0.7,4.1c0.2,1,0.4,2.2,0.5,3.3h0c0.1-1.1,0.3-2.3,0.4-3.3l0.6-4h2l-2.2,9.4H21.7z"/>
		<path class="st2" d="M28.1,65.6c0,0.6-0.4,1-1,1c-0.5,0-0.9-0.4-0.9-1c0-0.6,0.4-1,0.9-1C27.7,64.6,28.1,65,28.1,65.6z M26.3,74.3
			v-6.8h1.8v6.8H26.3z"/>
		<path class="st2" d="M34.2,64.6v7.7c0,0.7,0,1.4,0.1,2h-1.6l-0.1-0.8h0c-0.3,0.5-0.8,0.9-1.4,0.9c-1.5,0-2.1-1.6-2.1-3.5
			c0-2.4,1-3.5,2.2-3.5c0.6,0,1,0.3,1.1,0.7h0v-3.4H34.2z M32.4,70.1c0-0.1,0-0.3,0-0.4c-0.1-0.4-0.3-0.8-0.7-0.8
			c-0.6,0-0.9,0.9-0.9,2c0,1.3,0.4,2,0.9,2c0.2,0,0.5-0.1,0.6-0.6c0-0.1,0.1-0.3,0.1-0.4V70.1z"/>
		<path class="st2" d="M36.9,71.5c0,1.1,0.6,1.5,1.5,1.5c0.5,0,1-0.1,1.3-0.2l0.3,1.3c-0.5,0.2-1.2,0.3-1.9,0.3
			c-1.9,0-2.9-1.2-2.9-3.4c0-2.3,1.2-3.7,2.7-3.7c1.5,0,2.3,1.2,2.3,3.2c0,0.5,0,0.8-0.1,1H36.9z M38.5,70.2c0-0.9-0.2-1.6-0.8-1.6
			c-0.6,0-0.8,0.9-0.9,1.6H38.5z"/>
		<path class="st2" d="M46.1,70.9c0,2.9-1.6,3.6-2.6,3.6c-1.6,0-2.6-1.3-2.6-3.5c0-2.5,1.3-3.6,2.6-3.6
			C45.1,67.3,46.1,68.7,46.1,70.9z M42.7,70.9c0,1.2,0.2,2.2,0.8,2.2c0.6,0,0.7-1.1,0.7-2.2c0-0.9-0.2-2.1-0.8-2.1
			C42.8,68.7,42.7,69.9,42.7,70.9z"/>
		<path class="st2" d="M49.2,65c0.6-0.1,1.3-0.2,2-0.2c1,0,1.9,0.1,2.5,0.7c0.6,0.5,0.7,1.1,0.7,2c0,1-0.5,1.9-1.5,2.4v0
			c0.6,0.3,1,0.9,1.1,1.9c0.2,1.1,0.4,2.2,0.6,2.6h-1.9c-0.1-0.3-0.3-1.2-0.5-2.3c-0.2-1.2-0.5-1.5-1.1-1.5h-0.3v3.8h-1.8V65z
			 M51.1,69.1h0.3c0.8,0,1.3-0.6,1.3-1.5c0-0.8-0.3-1.4-1.1-1.4c-0.2,0-0.3,0-0.4,0.1V69.1z"/>
		<path class="st2" d="M57,71.5c0,1.1,0.6,1.5,1.5,1.5c0.5,0,1-0.1,1.3-0.2l0.3,1.3c-0.5,0.2-1.2,0.3-1.9,0.3
			c-1.9,0-2.9-1.2-2.9-3.4c0-2.3,1.2-3.7,2.7-3.7c1.5,0,2.3,1.2,2.3,3.2c0,0.5,0,0.8-0.1,1H57z M58.6,70.2c0-0.9-0.2-1.6-0.8-1.6
			c-0.6,0-0.8,0.9-0.9,1.6H58.6z"/>
		<path class="st2" d="M65,74.2c-0.2,0.1-0.6,0.2-1.2,0.2c-1.7,0-2.9-1.2-2.9-3.4c0-2.1,1.2-3.6,3.1-3.6c0.4,0,0.8,0.1,1,0.2
			L64.9,69c-0.2-0.1-0.4-0.1-0.7-0.1c-0.9,0-1.4,0.8-1.4,2c0,1.2,0.5,2,1.4,2c0.3,0,0.5,0,0.7-0.1L65,74.2z"/>
		<path class="st2" d="M70.6,70.9c0,2.9-1.6,3.6-2.6,3.6c-1.6,0-2.6-1.3-2.6-3.5c0-2.5,1.3-3.6,2.6-3.6
			C69.6,67.3,70.6,68.7,70.6,70.9z M67.2,70.9c0,1.2,0.2,2.2,0.8,2.2c0.6,0,0.7-1.1,0.7-2.2c0-0.9-0.2-2.1-0.8-2.1
			C67.3,68.7,67.2,69.9,67.2,70.9z"/>
		<path class="st2" d="M76.4,64.6v7.7c0,0.7,0,1.4,0.1,2h-1.6l-0.1-0.8h0c-0.3,0.5-0.8,0.9-1.4,0.9c-1.5,0-2.1-1.6-2.1-3.5
			c0-2.4,1-3.5,2.2-3.5c0.6,0,1,0.3,1.1,0.7h0v-3.4H76.4z M74.6,70.1c0-0.1,0-0.3,0-0.4c-0.1-0.4-0.3-0.8-0.7-0.8
			c-0.6,0-0.9,0.9-0.9,2c0,1.3,0.4,2,0.9,2c0.2,0,0.5-0.1,0.6-0.6c0-0.1,0.1-0.3,0.1-0.4V70.1z"/>
		<path class="st2" d="M79.4,65.6c0,0.6-0.4,1-1,1c-0.5,0-0.9-0.4-0.9-1c0-0.6,0.4-1,0.9-1C79,64.6,79.4,65,79.4,65.6z M77.6,74.3
			v-6.8h1.8v6.8H77.6z"/>
		<path class="st2" d="M80.6,69.5c0-0.8,0-1.4-0.1-2.1h1.6l0.1,0.8h0c0.4-0.5,1-0.9,1.7-0.9c1.3,0,1.8,1,1.8,2.6v4.4h-1.8V70
			c0-0.6-0.1-1.1-0.7-1.1c-0.3,0-0.6,0.2-0.7,0.6c-0.1,0.1-0.1,0.4-0.1,0.6v4.2h-1.8V69.5z"/>
		<path class="st2" d="M91.9,67.5c0,0.6-0.1,1.3-0.1,2.2v3.9c0,1.5-0.3,2.3-0.8,2.8c-0.5,0.5-1.2,0.8-2.2,0.8
			c-0.6,0-1.2-0.1-1.7-0.3l0.3-1.4c0.3,0.2,0.8,0.3,1.3,0.3c0.9,0,1.3-0.6,1.3-1.7v-0.4h0c-0.2,0.4-0.7,0.7-1.2,0.7
			c-1.5,0-2.1-1.7-2.1-3.3c0-2.3,1-3.6,2.3-3.6c0.5,0,1,0.3,1.3,0.8h0l0.1-0.7H91.9z M90,69.9c0-0.2,0-0.4-0.1-0.5
			c-0.1-0.3-0.3-0.6-0.6-0.6c-0.7,0-0.9,0.9-0.9,2c0,1.3,0.4,1.9,0.9,1.9c0.2,0,0.5-0.1,0.6-0.5C90,72.2,90,72,90,71.8V69.9z"/>
	</g>
</g>
</svg>
