<?xml version="1.0" encoding="utf-8"?>
<!-- Generator: Adobe Illustrator 20.0.0, SVG Export Plug-In . SVG Version: 6.00 Build 0)  -->
<svg version="1.1" id="Layer_1" xmlns="http://www.w3.org/2000/svg" xmlns:xlink="http://www.w3.org/1999/xlink" x="0px" y="0px"
	 viewBox="0 0 110.5 95" style="enable-background:new 0 0 110.5 95;" xml:space="preserve">
<style type="text/css">
	.st0{display:none;}
	.st1{display:inline;}
	.st2{fill:url(#SVGID_1_);}
	.st3{fill:#FF408C;}
	.st4{enable-background:new    ;}
	.st5{fill:#FFFFFF;}
	.st6{fill:#F47B20;}
	.st7{fill:#27180D;}
	.st8{display:inline;fill:#FFFFFF;}
	.st9{font-family:'MyriadPro-BoldCond';}
	.st10{font-size:12px;}
	.st11{font-size:8px;}
	.st12{fill:#31C5F4;}
	.st13{fill:#071E25;}
</style>
<g id="Layer_2_2_" class="st0">
	<rect class="st1" width="110.5" height="95"/>
</g>
<g id="id">
	<g>
		
			<radialGradient id="SVGID_1_" cx="1736.9166" cy="1671.2267" r="143.432" gradientTransform="matrix(0.1727 0 0 0.1713 -248.559 -254.7502)" gradientUnits="userSpaceOnUse">
			<stop  offset="0" style="stop-color:#250012;stop-opacity:0.85"/>
			<stop  offset="0.767" style="stop-color:#250012"/>
		</radialGradient>
		<path class="st2" d="M36.3,19.3h38V56h-38C36.3,56,36.3,19.3,36.3,19.3z"/>
		<path class="st3" d="M34.5,17.6v40.1H76V17.6H34.5z M36.2,19.3h38V56h-38C36.2,56,36.2,19.3,36.2,19.3z M49.7,45.4
			c0,0.2,0,0.2-0.2,0.2h-2.7c-0.2,0-0.2-0.1-0.2-0.2V27c0-0.2,0.1-0.2,0.2-0.2h2.7c0.1,0,0.2,0.1,0.2,0.2V45.4z M52.7,38.7
			c0-4.1,2.7-7.3,7.1-7.3c0.4,0,0.6,0,0.9,0v-4.5c0-0.1,0.1-0.2,0.2-0.2h2.8c0.1,0,0.2,0.1,0.2,0.1v16c0,0.5,0,1.1,0.1,1.7
			c0,0.1,0,0.1-0.2,0.2c-1.5,0.7-3,1-4.5,1C55.5,45.9,52.7,43.5,52.7,38.7L52.7,38.7z M60.7,34.2c-0.3-0.1-0.6-0.2-1-0.2
			c-2.2,0-3.8,1.7-3.8,4.5c0,3.2,1.6,4.5,3.6,4.5c0.4,0,0.9-0.1,1.2-0.2V34.2L60.7,34.2z"/>
	</g>
	<g class="st4">
		<path class="st5" d="M39.1,66.4v8.1h-1.6v-8.1H39.1z"/>
		<path class="st5" d="M40.4,70.4c0-0.6,0-1.2,0-1.8h1.4l0.1,0.7h0c0.3-0.5,0.8-0.8,1.4-0.8c1.1,0,1.6,0.9,1.6,2.2v3.8h-1.6v-3.7
			c0-0.5-0.1-1-0.6-1c-0.3,0-0.5,0.2-0.6,0.5c0,0.1-0.1,0.3-0.1,0.5v3.6h-1.6V70.4z"/>
		<path class="st5" d="M46,66.5c0.4-0.1,1-0.2,1.6-0.2c1,0,1.7,0.2,2.2,0.7c0.7,0.6,1.1,1.7,1.1,3.3c0,1.6-0.4,2.8-1.1,3.4
			c-0.5,0.5-1.3,0.8-2.5,0.8c-0.5,0-1,0-1.3-0.1V66.5z M47.6,73.3c0.1,0,0.2,0,0.3,0c0.8,0,1.4-0.7,1.4-3c0-1.7-0.4-2.7-1.4-2.7
			c-0.1,0-0.2,0-0.3,0V73.3z"/>
		<path class="st5" d="M53.1,72.1c0,0.9,0.6,1.2,1.2,1.2c0.4,0,0.8-0.1,1.1-0.2l0.2,1.1c-0.4,0.2-1,0.3-1.6,0.3
			c-1.6,0-2.5-1.1-2.5-2.9c0-2,1-3.1,2.4-3.1c1.3,0,2,1,2,2.8c0,0.4,0,0.6,0,0.8H53.1z M54.5,71c0-0.8-0.2-1.3-0.7-1.3
			c-0.5,0-0.7,0.8-0.7,1.3H54.5z"/>
		<path class="st5" d="M56.7,73.1c0.2,0.1,0.7,0.3,1.1,0.3c0.4,0,0.6-0.2,0.6-0.5c0-0.3-0.2-0.5-0.7-0.8c-1-0.5-1.2-1.2-1.2-1.7
			c0-1.1,0.8-1.8,1.9-1.8c0.5,0,0.9,0.1,1.2,0.3L59.4,70c-0.2-0.1-0.5-0.2-0.8-0.2c-0.4,0-0.6,0.2-0.6,0.5c0,0.3,0.1,0.4,0.7,0.7
			c0.9,0.5,1.2,1.1,1.2,1.8c0,1.2-0.9,1.8-2.1,1.8c-0.5,0-1.1-0.1-1.3-0.3L56.7,73.1z"/>
		<path class="st5" d="M62.2,67.1c0,0.5-0.3,0.9-0.8,0.9c-0.4,0-0.8-0.3-0.8-0.9c0-0.5,0.4-0.9,0.8-0.9
			C61.9,66.2,62.2,66.5,62.2,67.1z M60.7,74.5v-5.9h1.6v5.9H60.7z"/>
		<path class="st5" d="M67.7,68.6c0,0.5-0.1,1.2-0.1,1.9v3.3c0,1.3-0.2,2-0.7,2.4c-0.4,0.4-1,0.6-1.9,0.6c-0.5,0-1-0.1-1.5-0.3
			l0.3-1.2c0.3,0.1,0.7,0.3,1.1,0.3c0.8,0,1.1-0.5,1.1-1.4v-0.4h0c-0.2,0.4-0.6,0.6-1.1,0.6c-1.3,0-1.8-1.4-1.8-2.8
			c0-2,0.9-3.1,2-3.1c0.5,0,0.9,0.2,1.1,0.7h0l0.1-0.6H67.7z M66.1,70.8c0-0.2,0-0.3-0.1-0.4c-0.1-0.3-0.2-0.5-0.5-0.5
			c-0.6,0-0.8,0.8-0.8,1.7c0,1.1,0.3,1.6,0.8,1.6c0.2,0,0.4-0.1,0.5-0.4c0-0.1,0.1-0.3,0.1-0.5V70.8z"/>
		<path class="st5" d="M68.7,70.4c0-0.6,0-1.2,0-1.8H70l0.1,0.7h0c0.3-0.5,0.8-0.8,1.4-0.8c1.1,0,1.6,0.9,1.6,2.2v3.8h-1.6v-3.7
			c0-0.5-0.1-1-0.6-1c-0.3,0-0.5,0.2-0.6,0.5c0,0.1-0.1,0.3-0.1,0.5v3.6h-1.6V70.4z"/>
	</g>
	<g class="st4">
		<path class="st5" d="M33.7,82.5v-2.1l-1.2-3.3h1.1l0.4,1.3c0.1,0.3,0.2,0.7,0.3,1.1h0c0.1-0.4,0.2-0.8,0.2-1.2l0.3-1.3H36
			l-1.2,3.3v2.1H33.7z"/>
		<path class="st5" d="M36.8,80.9c0,0.6,0.4,0.8,0.8,0.8c0.3,0,0.6-0.1,0.7-0.1l0.1,0.8c-0.3,0.1-0.7,0.2-1.1,0.2
			c-1.1,0-1.6-0.7-1.6-1.9c0-1.3,0.7-2.1,1.6-2.1c0.8,0,1.3,0.7,1.3,1.8c0,0.3,0,0.4,0,0.5H36.8z M37.8,80.2c0-0.5-0.1-0.9-0.4-0.9
			c-0.3,0-0.5,0.5-0.5,0.9H37.8z"/>
		<path class="st5" d="M41,82.5L41,82.1h0c-0.2,0.3-0.5,0.4-0.9,0.4c-0.6,0-1-0.5-1-1.2c0-1,0.9-1.4,1.8-1.5v-0.1
			c0-0.3-0.2-0.5-0.6-0.5c-0.3,0-0.6,0.1-0.8,0.2l-0.2-0.7c0.2-0.1,0.7-0.3,1.2-0.3c1.2,0,1.4,0.8,1.4,1.6v1.5c0,0.3,0,0.6,0.1,0.9
			H41z M40.9,80.6c-0.4,0-0.8,0.1-0.8,0.7c0,0.4,0.2,0.5,0.4,0.5c0.2,0,0.4-0.1,0.4-0.3c0-0.1,0-0.1,0-0.2V80.6z"/>
		<path class="st5" d="M42.7,79.8c0-0.4,0-0.8,0-1.2h0.9l0.1,0.6h0c0.2-0.4,0.5-0.6,0.8-0.6c0.1,0,0.2,0,0.2,0v1c-0.1,0-0.1,0-0.2,0
			c-0.2,0-0.5,0.2-0.6,0.6c0,0.1,0,0.2,0,0.4v2h-1.1V79.8z"/>
		<path class="st5" d="M45,82.5c0-0.3,0-0.8,0-1.2V77h1v2h0c0.2-0.3,0.4-0.5,0.8-0.5c0.8,0,1.1,0.9,1.1,1.9c0,1.4-0.5,2.1-1.3,2.1
			c-0.3,0-0.6-0.1-0.8-0.5h0l-0.1,0.5H45z M46.1,81.1c0,0.1,0,0.2,0,0.2c0.1,0.3,0.2,0.4,0.4,0.4c0.4,0,0.5-0.4,0.5-1.2
			c0-0.7-0.2-1.1-0.5-1.1c-0.2,0-0.3,0.2-0.4,0.4c0,0.1,0,0.2,0,0.2V81.1z"/>
		<path class="st5" d="M51.5,80.5c0,1.6-0.9,2-1.5,2c-0.9,0-1.5-0.7-1.5-2c0-1.4,0.7-2,1.5-2C50.9,78.5,51.5,79.3,51.5,80.5z
			 M49.5,80.5c0,0.7,0.1,1.2,0.5,1.2c0.3,0,0.4-0.7,0.4-1.2c0-0.5-0.1-1.2-0.4-1.2C49.6,79.3,49.5,80,49.5,80.5z"/>
		<path class="st5" d="M54.9,80.5c0,1.6-0.9,2-1.5,2c-0.9,0-1.5-0.7-1.5-2c0-1.4,0.7-2,1.5-2C54.3,78.5,54.9,79.3,54.9,80.5z
			 M53,80.5c0,0.7,0.1,1.2,0.5,1.2c0.3,0,0.4-0.7,0.4-1.2c0-0.5-0.1-1.2-0.4-1.2C53,79.3,53,80,53,80.5z"/>
		<path class="st5" d="M56.5,80.3L56.5,80.3c0.1-0.2,0.1-0.4,0.2-0.5l0.5-1.2h1.1l-0.9,1.6l1,2.3h-1.2l-0.6-1.6l-0.2,0.3v1.3h-1V77
			h1V80.3z"/>
		<path class="st5" d="M60.1,77h1v5.5h-1V77z"/>
		<path class="st5" d="M63.6,82.5l-0.1-0.4h0c-0.2,0.3-0.5,0.4-0.9,0.4c-0.6,0-1-0.5-1-1.2c0-1,0.9-1.4,1.8-1.5v-0.1
			c0-0.3-0.2-0.5-0.6-0.5c-0.3,0-0.6,0.1-0.8,0.2l-0.2-0.7c0.2-0.1,0.7-0.3,1.2-0.3c1.2,0,1.4,0.8,1.4,1.6v1.5c0,0.3,0,0.6,0.1,0.9
			H63.6z M63.5,80.6c-0.4,0-0.8,0.1-0.8,0.7c0,0.4,0.2,0.5,0.4,0.5c0.2,0,0.4-0.1,0.4-0.3c0-0.1,0-0.1,0-0.2V80.6z"/>
		<path class="st5" d="M65.9,78.6l0.4,2c0,0.2,0.1,0.4,0.1,0.7h0c0-0.2,0.1-0.4,0.1-0.6l0.3-2h1l-0.8,3c-0.2,0.7-0.4,1.5-0.9,2
			c-0.3,0.4-0.7,0.6-0.9,0.6L65,83.3c0.2-0.1,0.4-0.2,0.5-0.3c0.1-0.1,0.3-0.3,0.3-0.5c0-0.1,0.1-0.1,0.1-0.2c0,0,0-0.1,0-0.1
			l-1.1-3.6H65.9z"/>
		<path class="st5" d="M71,80.5c0,1.6-0.9,2-1.5,2c-0.9,0-1.5-0.7-1.5-2c0-1.4,0.7-2,1.5-2C70.4,78.5,71,79.3,71,80.5z M69.1,80.5
			c0,0.7,0.1,1.2,0.5,1.2c0.3,0,0.4-0.7,0.4-1.2c0-0.5-0.1-1.2-0.4-1.2C69.1,79.3,69.1,80,69.1,80.5z"/>
		<path class="st5" d="M74.5,81.3c0,0.4,0,0.8,0,1.2h-0.9l-0.1-0.4h0c-0.2,0.3-0.5,0.5-0.9,0.5c-0.7,0-1-0.6-1-1.6v-2.4h1.1v2.3
			c0,0.5,0.1,0.8,0.4,0.8c0.2,0,0.3-0.1,0.3-0.3c0-0.1,0.1-0.2,0.1-0.3v-2.5h1V81.3z"/>
		<path class="st5" d="M76.4,77.5v1.1h0.8v0.7h-0.8v1.8c0,0.5,0.2,0.6,0.4,0.6c0.1,0,0.2,0,0.3,0l0,0.8c-0.1,0-0.4,0.1-0.6,0.1
			c-0.3,0-0.6-0.1-0.8-0.2c-0.2-0.2-0.3-0.5-0.3-1.1v-1.8h-0.5v-0.7h0.5v-0.8L76.4,77.5z"/>
	</g>
</g>
<g id="ai" class="st0">
	<g class="st1">
		<g id="Layer_2_3_">
			<g>
				<polygon class="st6" points="76,57.7 34.5,57.7 34.5,17.6 76,17.6 				"/>
				<polygon class="st7" points="74.1,55.9 36.4,55.9 36.4,19.4 74.1,19.4 				"/>
				<path class="st6" d="M53.8,37.7c-0.5-1.8-1.7-5.6-2.2-7.5l0,0c-0.4,1.8-1.4,4.9-2.1,7.5H53.8L53.8,37.7z M48.8,40.4l-1.5,4.8
					c0,0.2-0.1,0.2-0.2,0.2h-2.5c-0.2,0-0.2-0.1-0.2-0.3c1.3-4.2,3.6-11.3,5.1-16c0.1-0.3,0.2-0.5,0.2-1.5c0-0.1,0.1-0.2,0.2-0.2
					h3.4c0.1,0,0.2,0,0.2,0.1c1.8,5.7,3.8,11.9,5.7,17.6c0.1,0.2,0,0.2-0.2,0.2h-2.7c-0.1,0-0.2-0.1-0.2-0.2l-1.6-4.8L48.8,40.4
					L48.8,40.4z"/>
				<path class="st6" d="M61.8,32.2c0-0.2,0.1-0.2,0.2-0.2h2.6c0.1,0,0.2,0,0.2,0.2v13c0,0.1-0.1,0.2-0.2,0.2H62
					c-0.1,0-0.2-0.1-0.2-0.2V32.2L61.8,32.2z M61.6,28.5c0-1,0.7-1.7,1.6-1.7c1,0,1.6,0.7,1.6,1.7s-0.7,1.7-1.6,1.7
					C62.3,30.2,61.6,29.5,61.6,28.5L61.6,28.5z"/>
			</g>
		</g>
	</g>
	<text transform="matrix(1 0 0 1 34.0283 74.5)" class="st8 st9 st10">Illustrator</text>
	<text transform="matrix(1 0 0 1 38.4099 82.5)" class="st8 st9 st11">Logo Design</text>
</g>
<g id="ps" class="st0">
	<g class="st1">
		<g id="Layer_2_4_">
			<g>
				<polygon class="st12" points="76,57.7 34.5,57.7 34.5,17.6 76,17.6 				"/>
				<polygon class="st13" points="74.1,55.9 36.4,55.9 36.4,19.4 74.1,19.4 				"/>
				<path class="st12" d="M47.5,36.3c0.2,0,0.6,0.1,1.6,0.1c1.9,0,3.8-0.5,3.8-3.3c0-2.2-1.2-3.3-3.6-3.3c-1,0-1.6,0-1.8,0.1V36.3
					L47.5,36.3z M44.6,27.3c0-0.1,0-0.2,0.2-0.2c0.9,0,2.8-0.1,4.6-0.1c4.8,0,6.7,2.7,6.7,5.9c0,4.4-3.4,6-7,6c-0.7,0-1.3,0-1.5,0
					v6.3c0,0.2-0.1,0.2-0.2,0.2h-2.6c-0.1,0-0.2-0.1-0.2-0.2V27.3L44.6,27.3z"/>
				<path class="st12" d="M62.2,34.2c-1.2,0-1.5,0.7-1.5,1.2c0,0.7,0.3,1,2.1,1.8c2.5,1.2,3.5,2.2,3.5,4.2c0,2.8-1.8,4.3-4.5,4.3
					c-1.3,0-2.9-0.1-3.9-0.8c-0.1-0.1-0.1-0.1-0.1-0.3v-2.5c0-0.1,0.1-0.2,0.2-0.1c1.3,0.9,2.6,1.2,3.9,1.2c1.1,0,1.5-0.7,1.5-1.3
					c0-0.7-0.3-1.1-2-1.9c-2.5-1.2-3.5-2.2-3.5-4.2c0-2.2,1.7-4.1,4.6-4.1c1.5,0,2.5,0,3.2,0.5c0.1,0.1,0.1,0.2,0.1,0.4v2.3
					c0,0.2-0.1,0.2-0.2,0.2C64.6,34.4,63.4,34.2,62.2,34.2L62.2,34.2z"/>
			</g>
		</g>
	</g>
	<text transform="matrix(1 0 0 1 32.7622 74.5)" class="st8 st9 st10">Photoshop</text>
	<text transform="matrix(1 0 0 1 36.2228 82.5)" class="st8 st9 st11">Poster Design</text>
</g>
</svg>
