<?xml version="1.0" encoding="utf-8"?>
<!-- Generator: Adobe Illustrator 20.0.0, SVG Export Plug-In . SVG Version: 6.00 Build 0)  -->
<svg version="1.1" id="Layer_1" xmlns="http://www.w3.org/2000/svg" xmlns:xlink="http://www.w3.org/1999/xlink" x="0px" y="0px"
	 viewBox="0 0 110.5 95" style="enable-background:new 0 0 110.5 95;" xml:space="preserve">
<style type="text/css">
	.st0{display:none;}
	.st1{display:inline;}
	.st2{enable-background:new    ;}
	.st3{fill:#FFFFFF;}
</style>
<g id="Layer_2" class="st0">
	<rect class="st1" width="110.5" height="95"/>
</g>
<g id="Layer_1_1_">
	<g class="st2">
		<path class="st3" d="M24.2,36.4L24.2,36.4l-4.5,2.3l-0.9-4.1l6-3.1h4.6v26h-5.2V36.4z"/>
		<path class="st3" d="M35,57.5V54l2.6-3.3c3.4-4.3,6.1-7.8,6.1-11.6c0-2.1-1.2-3.6-3.3-3.6c-1.6,0-3,0.7-3.9,1.3l-0.9-4.1
			c1.2-0.8,3.4-1.6,5.8-1.6c5.7,0,7.5,3.8,7.5,7.5c0,4.9-3,8.8-6,12.3l-1.6,1.8v0.1h8v4.6H35V57.5z"/>
		<path class="st3" d="M67.2,44.4c0,9.3-3.4,13.4-7.6,13.4c-5.7,0-7.6-6.5-7.6-13.2c0-7.5,2.4-13.4,7.8-13.4
			C65.8,31.2,67.2,38.2,67.2,44.4z M57.3,44.5c-0.1,6.1,0.7,8.8,2.4,8.8c1.6,0,2.2-2.9,2.2-8.8c0-5.6-0.5-8.8-2.2-8.8
			C58.1,35.7,57.2,38.5,57.3,44.5z"/>
		<path class="st3" d="M69.8,57.5V48h-1.6v-2.2h1.6v-0.5c0-1.3,0.3-2.5,1.2-3.5c0.7-0.7,1.7-1.1,2.8-1.1c0.8,0,1.4,0.1,1.9,0.3
			l-0.4,2.4c-0.2-0.1-0.6-0.1-1-0.1c-1.1,0-1.4,0.9-1.4,1.9v0.6h2V48h-2v9.5H69.8z"/>
		<path class="st3" d="M76.1,49.5c0-1.4,0-2.6-0.1-3.7h2.7l0.2,1.3l0,0c0.5-1,1.4-1.5,2.4-1.5c2.6,0,3.6,2.8,3.6,6
			c0,4.2-1.8,6.1-3.8,6.1c-1,0-1.6-0.6-1.9-1.2l0,0v5.6h-3.1C76.1,62.1,76.1,49.5,76.1,49.5z M79.2,53.2c0,0.4,0,0.8,0.2,1
			c0.2,0.7,0.6,0.9,1,0.9c1.1,0,1.5-1.6,1.5-3.5c0-2.2-0.5-3.4-1.5-3.4c-0.5,0-0.9,0.5-1.1,1c-0.1,0.2-0.1,0.6-0.1,0.8V53.2z"/>
		<path class="st3" d="M86.7,54.7c0.5,0.3,1.3,0.6,2.1,0.6c0.8,0,1.3-0.4,1.3-1.1c0-0.6-0.3-1-1.4-1.6c-1.9-1.1-2.4-2.3-2.4-3.4
			c0-2.1,1.5-3.7,3.9-3.7c1,0,1.8,0.2,2.4,0.5L92,48.3c-0.5-0.3-1-0.5-1.6-0.5c-0.8,0-1.2,0.5-1.2,1s0.3,0.8,1.4,1.5
			c1.7,1,2.4,2.2,2.4,3.6c0,2.4-1.7,3.7-4.2,3.7c-1,0-2.1-0.3-2.7-0.7L86.7,54.7z"/>
	</g>
	<g class="st2">
		<path class="st3" d="M21.5,74.3l-2.1-9.4h2l0.7,4.1c0.2,1,0.4,2.2,0.5,3.3l0,0c0.1-1.1,0.3-2.3,0.4-3.3l0.6-4h2l-2.2,9.4
			L21.5,74.3L21.5,74.3z"/>
		<path class="st3" d="M28.1,65.6c0,0.6-0.4,1-1,1c-0.5,0-0.9-0.4-0.9-1s0.4-1,0.9-1C27.7,64.6,28.1,65,28.1,65.6z M26.3,74.3v-6.8
			h1.8v6.8H26.3z"/>
		<path class="st3" d="M34.4,64.6v7.7c0,0.7,0,1.4,0.1,2h-1.6l-0.1-0.8l0,0c-0.3,0.5-0.8,0.9-1.4,0.9c-1.5,0-2.1-1.6-2.1-3.5
			c0-2.4,1-3.5,2.2-3.5c0.6,0,1,0.3,1.1,0.7l0,0v-3.4L34.4,64.6L34.4,64.6z M32.5,70.1c0-0.1,0-0.3,0-0.4c-0.1-0.4-0.3-0.8-0.7-0.8
			c-0.6,0-0.9,0.9-0.9,2c0,1.3,0.4,2,0.9,2c0.2,0,0.5-0.1,0.6-0.6c0-0.1,0.1-0.3,0.1-0.4C32.5,71.9,32.5,70.1,32.5,70.1z"/>
		<path class="st3" d="M37.2,71.5c0,1.1,0.6,1.5,1.5,1.5c0.5,0,1-0.1,1.3-0.2l0.3,1.3c-0.5,0.2-1.2,0.3-1.9,0.3
			c-1.9,0-2.9-1.2-2.9-3.4c0-2.3,1.2-3.7,2.7-3.7s2.3,1.2,2.3,3.2c0,0.5,0,0.8-0.1,1C40.4,71.5,37.2,71.5,37.2,71.5z M38.8,70.2
			c0-0.9-0.2-1.6-0.8-1.6s-0.8,0.9-0.9,1.6H38.8z"/>
		<path class="st3" d="M46.5,70.9c0,2.9-1.6,3.6-2.6,3.6c-1.6,0-2.6-1.3-2.6-3.5c0-2.5,1.3-3.6,2.6-3.6
			C45.5,67.3,46.5,68.7,46.5,70.9z M43.1,70.9c0,1.2,0.2,2.2,0.8,2.2s0.7-1.1,0.7-2.2c0-0.9-0.2-2.1-0.8-2.1
			C43.2,68.7,43.1,69.9,43.1,70.9z"/>
		<path class="st3" d="M50,65c0.6-0.1,1.3-0.2,2-0.2c1,0,1.9,0.1,2.5,0.7c0.6,0.5,0.7,1.1,0.7,2c0,1-0.5,1.9-1.5,2.4l0,0
			c0.6,0.3,1,0.9,1.1,1.9c0.2,1.1,0.4,2.2,0.6,2.6h-1.9c-0.1-0.3-0.3-1.2-0.5-2.3c-0.2-1.2-0.5-1.5-1.1-1.5h-0.3v3.8H50V65z
			 M51.8,69.1h0.3c0.8,0,1.3-0.6,1.3-1.5c0-0.8-0.3-1.4-1.1-1.4c-0.2,0-0.3,0-0.4,0.1L51.8,69.1L51.8,69.1z"/>
		<path class="st3" d="M57.9,71.5c0,1.1,0.6,1.5,1.5,1.5c0.5,0,1-0.1,1.3-0.2l0.3,1.3c-0.5,0.2-1.2,0.3-1.9,0.3
			c-1.9,0-2.9-1.2-2.9-3.4c0-2.3,1.2-3.7,2.7-3.7s2.3,1.2,2.3,3.2c0,0.5,0,0.8-0.1,1C61.1,71.5,57.9,71.5,57.9,71.5z M59.5,70.2
			c0-0.9-0.2-1.6-0.8-1.6s-0.8,0.9-0.9,1.6H59.5z"/>
		<path class="st3" d="M66,74.2c-0.2,0.1-0.6,0.2-1.2,0.2c-1.7,0-2.9-1.2-2.9-3.4c0-2.1,1.2-3.6,3.1-3.6c0.4,0,0.8,0.1,1,0.2
			L65.9,69c-0.2-0.1-0.4-0.1-0.7-0.1c-0.9,0-1.4,0.8-1.4,2s0.5,2,1.4,2c0.3,0,0.5,0,0.7-0.1L66,74.2z"/>
		<path class="st3" d="M71.7,70.9c0,2.9-1.6,3.6-2.6,3.6c-1.6,0-2.6-1.3-2.6-3.5c0-2.5,1.3-3.6,2.6-3.6
			C70.7,67.3,71.7,68.7,71.7,70.9z M68.3,70.9c0,1.2,0.2,2.2,0.8,2.2c0.6,0,0.7-1.1,0.7-2.2c0-0.9-0.2-2.1-0.8-2.1
			C68.4,68.7,68.3,69.9,68.3,70.9z"/>
		<path class="st3" d="M77.7,64.6v7.7c0,0.7,0,1.4,0.1,2h-1.6l-0.1-0.8l0,0c-0.3,0.5-0.8,0.9-1.4,0.9c-1.5,0-2.1-1.6-2.1-3.5
			c0-2.4,1-3.5,2.2-3.5c0.6,0,1,0.3,1.1,0.7l0,0v-3.4L77.7,64.6L77.7,64.6z M75.9,70.1c0-0.1,0-0.3,0-0.4c-0.1-0.4-0.3-0.8-0.7-0.8
			c-0.6,0-0.9,0.9-0.9,2c0,1.3,0.4,2,0.9,2c0.2,0,0.5-0.1,0.6-0.6c0-0.1,0.1-0.3,0.1-0.4V70.1z"/>
		<path class="st3" d="M80.8,65.6c0,0.6-0.4,1-1,1c-0.5,0-0.9-0.4-0.9-1s0.4-1,0.9-1C80.4,64.6,80.8,65,80.8,65.6z M79,74.3v-6.8
			h1.8v6.8H79z"/>
		<path class="st3" d="M82.1,69.5c0-0.8,0-1.4-0.1-2.1h1.6l0.1,0.8l0,0c0.4-0.5,1-0.9,1.7-0.9c1.3,0,1.8,1,1.8,2.6v4.4h-1.8V70
			c0-0.6-0.1-1.1-0.7-1.1c-0.3,0-0.6,0.2-0.7,0.6c0,0.1,0,0.4,0,0.6v4.2h-1.8L82.1,69.5L82.1,69.5z"/>
		<path class="st3" d="M93.6,67.5c0,0.6-0.1,1.3-0.1,2.2v3.9c0,1.5-0.3,2.3-0.8,2.8s-1.2,0.8-2.2,0.8c-0.6,0-1.2-0.1-1.7-0.3
			l0.3-1.4c0.4,0.2,0.8,0.3,1.3,0.3c0.9,0,1.3-0.6,1.3-1.7v-0.4l0,0c-0.2,0.4-0.7,0.7-1.2,0.7c-1.5,0-2.1-1.7-2.1-3.3
			c0-2.3,1-3.6,2.3-3.6c0.5,0,1,0.3,1.3,0.8l0,0l0.1-0.7h1.5V67.5z M91.7,69.9c0-0.2,0-0.4-0.1-0.5c-0.1-0.3-0.3-0.6-0.6-0.6
			c-0.7,0-0.9,0.9-0.9,2c0,1.3,0.4,1.9,0.9,1.9c0.2,0,0.5-0.1,0.6-0.5c0.1-0.2,0.1-0.4,0.1-0.5V69.9z"/>
	</g>
</g>
</svg>
