<?xml version="1.0" encoding="utf-8"?>
<!-- Generator: Adobe Illustrator 20.0.0, SVG Export Plug-In . SVG Version: 6.00 Build 0)  -->
<svg version="1.1" id="Layer_1" xmlns="http://www.w3.org/2000/svg" xmlns:xlink="http://www.w3.org/1999/xlink" x="0px" y="0px"
	 viewBox="0 0 199 21.8" style="enable-background:new 0 0 199 21.8;" xml:space="preserve">
<style type="text/css">
	.st0{display:none;}
	.st1{fill:#FFFFFF;}
	.st2{font-family:'MyriadPro-BoldCond';}
	.st3{font-size:12px;}
	.st4{enable-background:new    ;}
	.st5{display:inline;}
	.st6{fill:url(#SVGID_1_);}
	.st7{fill:#FF408C;}
	.st8{display:inline;fill:#FFFFFF;}
	.st9{font-size:8px;}
	.st10{fill:#F47B20;}
	.st11{fill:#27180D;}
	.st12{fill:#31C5F4;}
	.st13{fill:#071E25;}
</style>
<g id="Layer_2_2_">
	<rect x="-39.8" y="-5.8" class="st0" width="278.5" height="33"/>
	<text transform="matrix(1 0 0 1 5.5923 15.25)" class="st1 st2 st3">Plus Website Design, Photos editing and so on  </text>
	<g class="st4">
		<path class="st1" d="M6.3,7.3c0.4-0.1,1-0.2,1.6-0.2c0.9,0,1.7,0.1,2.2,0.6c0.5,0.4,0.7,1.1,0.7,1.8c0,0.9-0.3,1.5-0.7,1.9
			c-0.5,0.5-1.3,0.8-2,0.8c-0.1,0-0.2,0-0.3,0v3H6.3V7.3z M7.9,11c0.1,0,0.2,0,0.3,0c0.8,0,1.2-0.6,1.2-1.3c0-0.7-0.3-1.3-1-1.3
			c-0.1,0-0.3,0-0.4,0.1V11z"/>
		<path class="st1" d="M11.6,7h1.6v8.3h-1.6V7z"/>
		<path class="st1" d="M18.6,13.5c0,0.6,0,1.2,0,1.8h-1.4l-0.1-0.6h0c-0.3,0.4-0.8,0.7-1.4,0.7c-1.1,0-1.6-0.8-1.6-2.4V9.4h1.6v3.4
			c0,0.8,0.1,1.3,0.6,1.3c0.3,0,0.4-0.2,0.5-0.4c0.1-0.1,0.1-0.3,0.1-0.5V9.4h1.6V13.5z"/>
		<path class="st1" d="M19.7,13.8c0.2,0.1,0.7,0.3,1.1,0.3c0.4,0,0.6-0.2,0.6-0.5c0-0.3-0.2-0.5-0.7-0.8c-1-0.5-1.2-1.2-1.2-1.7
			c0-1.1,0.8-1.8,1.9-1.8c0.5,0,0.9,0.1,1.2,0.3l-0.3,1.2c-0.2-0.1-0.5-0.2-0.8-0.2c-0.4,0-0.6,0.2-0.6,0.5c0,0.3,0.1,0.4,0.7,0.7
			c0.9,0.5,1.2,1.1,1.2,1.8c0,1.2-0.9,1.8-2.1,1.8c-0.5,0-1.1-0.1-1.3-0.3L19.7,13.8z"/>
		<path class="st1" d="M26.4,15.3L25,7.2h1.6l0.4,3.2c0.1,0.9,0.2,1.8,0.3,2.8h0c0.1-1,0.3-1.9,0.5-2.8l0.6-3.2h1.3l0.5,3.2
			c0.1,0.9,0.3,1.8,0.4,2.9h0c0.1-1.1,0.2-1.9,0.3-2.9l0.4-3.2h1.5l-1.4,8.1h-1.6l-0.5-2.7c-0.1-0.7-0.3-1.7-0.4-2.7h0
			c-0.1,1-0.3,1.9-0.4,2.7L28,15.3H26.4z"/>
		<path class="st1" d="M34.6,12.9c0,0.9,0.6,1.2,1.2,1.2c0.4,0,0.8-0.1,1.1-0.2l0.2,1.1c-0.4,0.2-1,0.3-1.6,0.3
			c-1.6,0-2.5-1.1-2.5-2.9c0-2,1-3.1,2.4-3.1c1.3,0,2,1,2,2.8c0,0.4,0,0.6,0,0.8H34.6z M36,11.8c0-0.8-0.2-1.3-0.7-1.3
			c-0.5,0-0.7,0.8-0.7,1.3H36z"/>
		<path class="st1" d="M38.3,15.3c0-0.5,0-1.2,0-1.7V7h1.6v3h0c0.3-0.4,0.7-0.7,1.2-0.7c1.1,0,1.7,1.3,1.7,2.9
			c0,2.1-0.8,3.2-1.9,3.2c-0.5,0-0.8-0.2-1.2-0.8h0l-0.1,0.7H38.3z M39.9,13.2c0,0.1,0,0.3,0.1,0.4c0.1,0.4,0.3,0.5,0.5,0.5
			c0.5,0,0.7-0.7,0.7-1.8c0-1-0.2-1.7-0.8-1.7c-0.2,0-0.4,0.3-0.5,0.5c0,0.1-0.1,0.3-0.1,0.4V13.2z"/>
		<path class="st1" d="M43.6,13.8c0.2,0.1,0.7,0.3,1.1,0.3c0.4,0,0.6-0.2,0.6-0.5c0-0.3-0.2-0.5-0.7-0.8c-1-0.5-1.2-1.2-1.2-1.7
			c0-1.1,0.8-1.8,1.9-1.8c0.5,0,0.9,0.1,1.2,0.3l-0.3,1.2c-0.2-0.1-0.5-0.2-0.8-0.2c-0.4,0-0.6,0.2-0.6,0.5c0,0.3,0.1,0.4,0.7,0.7
			c0.9,0.5,1.2,1.1,1.2,1.8c0,1.2-0.9,1.8-2.1,1.8c-0.5,0-1.1-0.1-1.3-0.3L43.6,13.8z"/>
		<path class="st1" d="M49.2,7.8c0,0.5-0.3,0.9-0.8,0.9c-0.4,0-0.8-0.3-0.8-0.9c0-0.5,0.4-0.9,0.8-0.9C48.8,7,49.2,7.3,49.2,7.8z
			 M47.6,15.3V9.4h1.6v5.9H47.6z"/>
		<path class="st1" d="M52.1,7.8v1.6h1.2v1.1h-1.2v2.7c0,0.7,0.3,0.9,0.6,0.9c0.2,0,0.3,0,0.4,0l0,1.2c-0.2,0.1-0.5,0.1-1,0.1
			c-0.5,0-0.9-0.1-1.1-0.4c-0.3-0.3-0.5-0.8-0.5-1.7v-2.8h-0.7V9.4h0.7V8.2L52.1,7.8z"/>
		<path class="st1" d="M55.2,12.9c0,0.9,0.6,1.2,1.2,1.2c0.4,0,0.8-0.1,1.1-0.2l0.2,1.1c-0.4,0.2-1,0.3-1.6,0.3
			c-1.6,0-2.5-1.1-2.5-2.9c0-2,1-3.1,2.4-3.1c1.3,0,2,1,2,2.8c0,0.4,0,0.6,0,0.8H55.2z M56.6,11.8c0-0.8-0.2-1.3-0.7-1.3
			c-0.5,0-0.7,0.8-0.7,1.3H56.6z"/>
		<path class="st1" d="M61,7.3c0.4-0.1,1-0.2,1.6-0.2c1,0,1.7,0.2,2.2,0.7c0.7,0.6,1.1,1.7,1.1,3.3c0,1.6-0.4,2.8-1.1,3.4
			c-0.5,0.5-1.3,0.8-2.5,0.8c-0.5,0-1,0-1.3-0.1V7.3z M62.6,14c0.1,0,0.2,0,0.3,0c0.8,0,1.4-0.7,1.4-3c0-1.7-0.4-2.7-1.4-2.7
			c-0.1,0-0.2,0-0.3,0V14z"/>
		<path class="st1" d="M68.1,12.9c0,0.9,0.6,1.2,1.2,1.2c0.4,0,0.8-0.1,1.1-0.2l0.2,1.1c-0.4,0.2-1,0.3-1.6,0.3
			c-1.6,0-2.5-1.1-2.5-2.9c0-2,1-3.1,2.4-3.1c1.3,0,2,1,2,2.8c0,0.4,0,0.6,0,0.8H68.1z M69.5,11.8c0-0.8-0.2-1.3-0.7-1.3
			c-0.5,0-0.7,0.8-0.7,1.3H69.5z"/>
		<path class="st1" d="M71.7,13.8c0.2,0.1,0.7,0.3,1.1,0.3c0.4,0,0.6-0.2,0.6-0.5c0-0.3-0.2-0.5-0.7-0.8c-1-0.5-1.2-1.2-1.2-1.7
			c0-1.1,0.8-1.8,1.9-1.8c0.5,0,0.9,0.1,1.2,0.3l-0.3,1.2c-0.2-0.1-0.5-0.2-0.8-0.2c-0.4,0-0.6,0.2-0.6,0.5c0,0.3,0.1,0.4,0.7,0.7
			c0.9,0.5,1.2,1.1,1.2,1.8c0,1.2-0.9,1.8-2.1,1.8c-0.5,0-1.1-0.1-1.3-0.3L71.7,13.8z"/>
		<path class="st1" d="M77.2,7.8c0,0.5-0.3,0.9-0.8,0.9c-0.4,0-0.8-0.3-0.8-0.9C75.6,7.3,76,7,76.4,7C76.9,7,77.2,7.3,77.2,7.8z
			 M75.7,15.3V9.4h1.6v5.9H75.7z"/>
		<path class="st1" d="M82.7,9.4c0,0.5-0.1,1.2-0.1,1.9v3.3c0,1.3-0.2,2-0.7,2.4c-0.4,0.4-1,0.6-1.9,0.6c-0.5,0-1-0.1-1.5-0.3
			l0.3-1.2c0.3,0.1,0.7,0.3,1.1,0.3c0.8,0,1.1-0.5,1.1-1.4v-0.4h0c-0.2,0.4-0.6,0.6-1.1,0.6c-1.3,0-1.8-1.4-1.8-2.8
			c0-2,0.9-3.1,2-3.1c0.5,0,0.9,0.2,1.1,0.7h0l0.1-0.6H82.7z M81,11.5c0-0.2,0-0.3-0.1-0.4c-0.1-0.3-0.2-0.5-0.5-0.5
			c-0.6,0-0.8,0.8-0.8,1.7c0,1.1,0.3,1.6,0.8,1.6c0.2,0,0.4-0.1,0.5-0.4c0-0.1,0.1-0.3,0.1-0.5V11.5z"/>
		<path class="st1" d="M83.7,11.1c0-0.6,0-1.2,0-1.8H85l0.1,0.7h0c0.3-0.5,0.8-0.8,1.4-0.8c1.1,0,1.6,0.9,1.6,2.2v3.8h-1.6v-3.7
			c0-0.5-0.1-1-0.6-1c-0.3,0-0.5,0.2-0.6,0.5c0,0.1-0.1,0.3-0.1,0.5v3.6h-1.6V11.1z"/>
		<path class="st1" d="M88.8,16.7c0.3-1,0.7-2.2,0.8-3.2l1.6-0.1c-0.4,1.1-0.9,2.3-1.4,3.2L88.8,16.7z"/>
		<path class="st1" d="M94,7.3c0.4-0.1,1-0.2,1.6-0.2c0.9,0,1.7,0.1,2.2,0.6c0.5,0.4,0.7,1.1,0.7,1.8c0,0.9-0.3,1.5-0.7,1.9
			c-0.5,0.5-1.3,0.8-2,0.8c-0.1,0-0.2,0-0.3,0v3H94V7.3z M95.6,11c0.1,0,0.2,0,0.3,0c0.8,0,1.2-0.6,1.2-1.3c0-0.7-0.3-1.3-1-1.3
			c-0.1,0-0.3,0-0.4,0.1V11z"/>
		<path class="st1" d="M99.4,7h1.6v3h0c0.1-0.2,0.3-0.4,0.5-0.5c0.2-0.1,0.5-0.2,0.8-0.2c1.1,0,1.5,0.9,1.5,2.4v3.6h-1.6v-3.6
			c0-0.6-0.1-1.1-0.6-1.1c-0.3,0-0.5,0.2-0.6,0.6c0,0.1-0.1,0.3-0.1,0.4v3.6h-1.6V7z"/>
		<path class="st1" d="M109.2,12.3c0,2.4-1.4,3-2.2,3c-1.4,0-2.2-1.1-2.2-3c0-2.1,1.1-3,2.3-3C108.3,9.3,109.2,10.5,109.2,12.3z
			 M106.2,12.3c0,1,0.2,1.8,0.7,1.8c0.5,0,0.6-1,0.6-1.8c0-0.8-0.1-1.8-0.7-1.8C106.4,10.5,106.2,11.5,106.2,12.3z"/>
		<path class="st1" d="M111.9,7.8v1.6h1.2v1.1h-1.2v2.7c0,0.7,0.3,0.9,0.6,0.9c0.2,0,0.3,0,0.4,0l0,1.2c-0.2,0.1-0.5,0.1-1,0.1
			c-0.5,0-0.9-0.1-1.1-0.4c-0.3-0.3-0.5-0.8-0.5-1.7v-2.8h-0.7V9.4h0.7V8.2L111.9,7.8z"/>
		<path class="st1" d="M118,12.3c0,2.4-1.4,3-2.2,3c-1.4,0-2.2-1.1-2.2-3c0-2.1,1.1-3,2.3-3C117.2,9.3,118,10.5,118,12.3z
			 M115.1,12.3c0,1,0.2,1.8,0.7,1.8c0.5,0,0.6-1,0.6-1.8c0-0.8-0.1-1.8-0.7-1.8C115.2,10.5,115.1,11.5,115.1,12.3z"/>
		<path class="st1" d="M118.8,13.8c0.2,0.1,0.7,0.3,1.1,0.3c0.4,0,0.6-0.2,0.6-0.5c0-0.3-0.2-0.5-0.7-0.8c-1-0.5-1.2-1.2-1.2-1.7
			c0-1.1,0.8-1.8,1.9-1.8c0.5,0,0.9,0.1,1.2,0.3l-0.3,1.2c-0.2-0.1-0.5-0.2-0.8-0.2c-0.4,0-0.6,0.2-0.6,0.5c0,0.3,0.1,0.4,0.7,0.7
			c0.9,0.5,1.2,1.1,1.2,1.8c0,1.2-0.9,1.8-2.1,1.8c-0.5,0-1.1-0.1-1.3-0.3L118.8,13.8z"/>
		<path class="st1" d="M126,12.9c0,0.9,0.6,1.2,1.2,1.2c0.4,0,0.8-0.1,1.1-0.2l0.2,1.1c-0.4,0.2-1,0.3-1.6,0.3
			c-1.6,0-2.5-1.1-2.5-2.9c0-2,1-3.1,2.4-3.1c1.3,0,2,1,2,2.8c0,0.4,0,0.6,0,0.8H126z M127.4,11.8c0-0.8-0.2-1.3-0.7-1.3
			c-0.5,0-0.7,0.8-0.7,1.3H127.4z"/>
		<path class="st1" d="M134,7v6.6c0,0.6,0,1.2,0,1.7h-1.4l-0.1-0.7h0c-0.2,0.4-0.7,0.8-1.2,0.8c-1.2,0-1.8-1.4-1.8-3
			c0-2,0.9-3,1.9-3c0.5,0,0.8,0.3,1,0.6h0V7H134z M132.4,11.6c0-0.1,0-0.2,0-0.3c-0.1-0.4-0.3-0.7-0.6-0.7c-0.6,0-0.8,0.8-0.8,1.8
			c0,1.1,0.3,1.7,0.7,1.7c0.2,0,0.4-0.1,0.5-0.5c0-0.1,0-0.2,0-0.4V11.6z"/>
		<path class="st1" d="M136.6,7.8c0,0.5-0.3,0.9-0.8,0.9c-0.4,0-0.8-0.3-0.8-0.9c0-0.5,0.4-0.9,0.8-0.9C136.3,7,136.6,7.3,136.6,7.8
			z M135.1,15.3V9.4h1.6v5.9H135.1z"/>
		<path class="st1" d="M139.6,7.8v1.6h1.2v1.1h-1.2v2.7c0,0.7,0.3,0.9,0.6,0.9c0.2,0,0.3,0,0.4,0l0,1.2c-0.2,0.1-0.5,0.1-1,0.1
			c-0.5,0-0.9-0.1-1.1-0.4c-0.3-0.3-0.5-0.8-0.5-1.7v-2.8h-0.7V9.4h0.7V8.2L139.6,7.8z"/>
		<path class="st1" d="M143,7.8c0,0.5-0.3,0.9-0.8,0.9c-0.4,0-0.8-0.3-0.8-0.9c0-0.5,0.4-0.9,0.8-0.9C142.7,7,143,7.3,143,7.8z
			 M141.5,15.3V9.4h1.6v5.9H141.5z"/>
		<path class="st1" d="M144.2,11.1c0-0.6,0-1.2,0-1.8h1.4l0.1,0.7h0c0.3-0.5,0.8-0.8,1.4-0.8c1.1,0,1.6,0.9,1.6,2.2v3.8H147v-3.7
			c0-0.5-0.1-1-0.6-1c-0.3,0-0.5,0.2-0.6,0.5c0,0.1-0.1,0.3-0.1,0.5v3.6h-1.6V11.1z"/>
		<path class="st1" d="M154,9.4c0,0.5-0.1,1.2-0.1,1.9v3.3c0,1.3-0.2,2-0.7,2.4c-0.4,0.4-1,0.6-1.9,0.6c-0.5,0-1-0.1-1.5-0.3
			l0.3-1.2c0.3,0.1,0.7,0.3,1.1,0.3c0.8,0,1.1-0.5,1.1-1.4v-0.4h0c-0.2,0.4-0.6,0.6-1.1,0.6c-1.3,0-1.8-1.4-1.8-2.8
			c0-2,0.9-3.1,2-3.1c0.5,0,0.9,0.2,1.1,0.7h0l0.1-0.6H154z M152.4,11.5c0-0.2,0-0.3-0.1-0.4c-0.1-0.3-0.2-0.5-0.5-0.5
			c-0.6,0-0.8,0.8-0.8,1.7c0,1.1,0.3,1.6,0.8,1.6c0.2,0,0.4-0.1,0.5-0.4c0-0.1,0.1-0.3,0.1-0.5V11.5z"/>
		<path class="st1" d="M159.5,15.3l-0.1-0.6h0c-0.3,0.5-0.8,0.7-1.3,0.7c-0.9,0-1.5-0.7-1.5-1.8c0-1.5,1.4-2.2,2.7-2.2v-0.1
			c0-0.5-0.3-0.8-0.8-0.8c-0.5,0-0.9,0.1-1.2,0.3L157,9.7c0.3-0.2,1-0.4,1.8-0.4c1.8,0,2.1,1.2,2.1,2.4v2.2c0,0.5,0,0.9,0.1,1.3
			H159.5z M159.3,12.4c-0.5,0-1.2,0.2-1.2,1c0,0.6,0.3,0.8,0.6,0.8c0.3,0,0.5-0.2,0.6-0.5c0-0.1,0-0.2,0-0.3V12.4z"/>
		<path class="st1" d="M162,11.1c0-0.6,0-1.2,0-1.8h1.4l0.1,0.7h0c0.3-0.5,0.8-0.8,1.4-0.8c1.1,0,1.6,0.9,1.6,2.2v3.8h-1.6v-3.7
			c0-0.5-0.1-1-0.6-1c-0.3,0-0.5,0.2-0.6,0.5c0,0.1-0.1,0.3-0.1,0.5v3.6H162V11.1z"/>
		<path class="st1" d="M171.7,7v6.6c0,0.6,0,1.2,0,1.7h-1.4l-0.1-0.7h0c-0.2,0.4-0.7,0.8-1.2,0.8c-1.2,0-1.8-1.4-1.8-3
			c0-2,0.9-3,1.9-3c0.5,0,0.8,0.3,1,0.6h0V7H171.7z M170.2,11.6c0-0.1,0-0.2,0-0.3c-0.1-0.4-0.3-0.7-0.6-0.7c-0.6,0-0.8,0.8-0.8,1.8
			c0,1.1,0.3,1.7,0.7,1.7c0.2,0,0.4-0.1,0.5-0.5c0-0.1,0-0.2,0-0.4V11.6z"/>
		<path class="st1" d="M174.7,13.8c0.2,0.1,0.7,0.3,1.1,0.3c0.4,0,0.6-0.2,0.6-0.5c0-0.3-0.2-0.5-0.7-0.8c-1-0.5-1.2-1.2-1.2-1.7
			c0-1.1,0.8-1.8,1.9-1.8c0.5,0,0.9,0.1,1.2,0.3l-0.3,1.2c-0.2-0.1-0.5-0.2-0.8-0.2c-0.4,0-0.6,0.2-0.6,0.5c0,0.3,0.1,0.4,0.7,0.7
			c0.9,0.5,1.2,1.1,1.2,1.8c0,1.2-0.9,1.8-2.1,1.8c-0.5,0-1.1-0.1-1.3-0.3L174.7,13.8z"/>
		<path class="st1" d="M182.9,12.3c0,2.4-1.4,3-2.2,3c-1.4,0-2.2-1.1-2.2-3c0-2.1,1.1-3,2.3-3C182.1,9.3,182.9,10.5,182.9,12.3z
			 M180,12.3c0,1,0.2,1.8,0.7,1.8c0.5,0,0.6-1,0.6-1.8c0-0.8-0.1-1.8-0.7-1.8C180.1,10.5,180,11.5,180,12.3z"/>
		<path class="st1" d="M190,12.3c0,2.4-1.4,3-2.2,3c-1.4,0-2.2-1.1-2.2-3c0-2.1,1.1-3,2.3-3C189.2,9.3,190,10.5,190,12.3z
			 M187.1,12.3c0,1,0.2,1.8,0.7,1.8c0.5,0,0.6-1,0.6-1.8c0-0.8-0.1-1.8-0.7-1.8C187.2,10.5,187.1,11.5,187.1,12.3z"/>
		<path class="st1" d="M190.9,11.1c0-0.6,0-1.2,0-1.8h1.4l0.1,0.7h0c0.3-0.5,0.8-0.8,1.4-0.8c1.1,0,1.6,0.9,1.6,2.2v3.8h-1.6v-3.7
			c0-0.5-0.1-1-0.6-1c-0.3,0-0.5,0.2-0.6,0.5c0,0.1-0.1,0.3-0.1,0.5v3.6h-1.6V11.1z"/>
	</g>
</g>
<g id="id" class="st0">
	<g class="st5">
		
			<radialGradient id="SVGID_1_" cx="1781.1666" cy="1603.4767" r="143.432" gradientTransform="matrix(0.1727 0 0 0.1713 -211.951 -310.8946)" gradientUnits="userSpaceOnUse">
			<stop  offset="0" style="stop-color:#250012;stop-opacity:0.85"/>
			<stop  offset="0.767" style="stop-color:#250012"/>
		</radialGradient>
		<path class="st6" d="M80.6-48.5h38v36.7h-38C80.6-11.8,80.6-48.5,80.6-48.5z"/>
		<path class="st7" d="M78.8-50.2v40.1h41.5v-40.1H78.8z M80.4-48.5h38v36.7h-38C80.4-11.8,80.4-48.5,80.4-48.5z M93.9-22.3
			c0,0.2,0,0.2-0.2,0.2h-2.7c-0.2,0-0.2-0.1-0.2-0.2v-18.4c0-0.2,0.1-0.2,0.2-0.2h2.7c0.1,0,0.2,0.1,0.2,0.2V-22.3z M96.9-29
			c0-4.1,2.7-7.3,7.1-7.3c0.4,0,0.6,0,0.9,0v-4.5c0-0.1,0.1-0.2,0.2-0.2h2.8c0.1,0,0.2,0.1,0.2,0.1v16c0,0.5,0,1.1,0.1,1.7
			c0,0.1,0,0.1-0.2,0.2c-1.5,0.7-3,1-4.5,1C99.8-21.8,96.9-24.3,96.9-29L96.9-29z M104.9-33.5c-0.3-0.1-0.6-0.2-1-0.2
			c-2.2,0-3.8,1.7-3.8,4.5c0,3.2,1.6,4.5,3.6,4.5c0.4,0,0.9-0.1,1.2-0.2V-33.5L104.9-33.5z"/>
	</g>
	<text transform="matrix(1 0 0 1 81.0923 6.75)" class="st8 st2 st3">InDesign</text>
	<text transform="matrix(1 0 0 1 76.9213 14.75)" class="st8 st2 st9">Yearbook layout</text>
</g>
<g id="ai" class="st0">
	<g class="st5">
		<g id="Layer_2_3_">
			<g>
				<polygon class="st10" points="120.3,-10 78.8,-10 78.8,-50.2 120.3,-50.2 				"/>
				<polygon class="st11" points="118.3,-11.8 80.7,-11.8 80.7,-48.3 118.3,-48.3 				"/>
				<path class="st10" d="M98.1-30c-0.5-1.8-1.7-5.6-2.2-7.5l0,0c-0.4,1.8-1.4,4.9-2.1,7.5H98.1L98.1-30z M93.1-27.3l-1.5,4.8
					c0,0.2-0.1,0.2-0.2,0.2h-2.5c-0.2,0-0.2-0.1-0.2-0.3c1.3-4.2,3.6-11.3,5.1-16c0.1-0.3,0.2-0.5,0.2-1.5c0-0.1,0.1-0.2,0.2-0.2
					h3.4c0.1,0,0.2,0,0.2,0.1c1.8,5.7,3.8,11.9,5.7,17.6c0.1,0.2,0,0.2-0.2,0.2h-2.7c-0.1,0-0.2-0.1-0.2-0.2l-1.6-4.8L93.1-27.3
					L93.1-27.3z"/>
				<path class="st10" d="M106.1-35.5c0-0.2,0.1-0.2,0.2-0.2h2.6c0.1,0,0.2,0,0.2,0.2v13c0,0.1-0.1,0.2-0.2,0.2h-2.6
					c-0.1,0-0.2-0.1-0.2-0.2V-35.5L106.1-35.5z M105.8-39.3c0-1,0.7-1.7,1.6-1.7c1,0,1.6,0.7,1.6,1.7s-0.7,1.7-1.6,1.7
					C106.6-37.5,105.8-38.3,105.8-39.3L105.8-39.3z"/>
			</g>
		</g>
	</g>
	<text transform="matrix(1 0 0 1 78.2783 6.75)" class="st8 st2 st3">Illustrator</text>
	<text transform="matrix(1 0 0 1 82.6599 14.75)" class="st8 st2 st9">Logo Design</text>
</g>
<g id="ps" class="st0">
	<g class="st5">
		<g id="Layer_2_4_">
			<g>
				<polygon class="st12" points="120.3,-10 78.8,-10 78.8,-50.2 120.3,-50.2 				"/>
				<polygon class="st13" points="118.3,-11.8 80.7,-11.8 80.7,-48.3 118.3,-48.3 				"/>
				<path class="st12" d="M91.8-31.5c0.2,0,0.6,0.1,1.6,0.1c1.9,0,3.8-0.5,3.8-3.3c0-2.2-1.2-3.3-3.6-3.3c-1,0-1.6,0-1.8,0.1V-31.5
					L91.8-31.5z M88.8-40.5c0-0.1,0-0.2,0.2-0.2c0.9,0,2.8-0.1,4.6-0.1c4.8,0,6.7,2.7,6.7,5.9c0,4.4-3.4,6-7,6c-0.7,0-1.3,0-1.5,0
					v6.3c0,0.2-0.1,0.2-0.2,0.2h-2.6c-0.1,0-0.2-0.1-0.2-0.2V-40.5L88.8-40.5z"/>
				<path class="st12" d="M106.4-33.5c-1.2,0-1.5,0.7-1.5,1.2c0,0.7,0.3,1,2.1,1.8c2.5,1.2,3.5,2.2,3.5,4.2c0,2.8-1.8,4.3-4.5,4.3
					c-1.3,0-2.9-0.1-3.9-0.8c-0.1-0.1-0.1-0.1-0.1-0.3v-2.5c0-0.1,0.1-0.2,0.2-0.1c1.3,0.9,2.6,1.2,3.9,1.2c1.1,0,1.5-0.7,1.5-1.3
					c0-0.7-0.3-1.1-2-1.9c-2.5-1.2-3.5-2.2-3.5-4.2c0-2.2,1.7-4.1,4.6-4.1c1.5,0,2.5,0,3.2,0.5c0.1,0.1,0.1,0.2,0.1,0.4v2.3
					c0,0.2-0.1,0.2-0.2,0.2C108.8-33.3,107.7-33.5,106.4-33.5L106.4-33.5z"/>
			</g>
		</g>
	</g>
	<text transform="matrix(1 0 0 1 77.0122 6.75)" class="st8 st2 st3">Photoshop</text>
	<text transform="matrix(1 0 0 1 80.4728 14.75)" class="st8 st2 st9">Poster Design</text>
</g>
</svg>
