<?xml version="1.0" encoding="utf-8"?>
<!-- Generator: Adobe Illustrator 20.0.0, SVG Export Plug-In . SVG Version: 6.00 Build 0)  -->
<svg version="1.1" id="Layer_1" xmlns="http://www.w3.org/2000/svg" xmlns:xlink="http://www.w3.org/1999/xlink" x="0px" y="0px"
	 viewBox="0 0 110.5 95" style="enable-background:new 0 0 110.5 95;" xml:space="preserve">
<style type="text/css">
	.st0{display:none;}
	.st1{display:inline;}
	.st2{fill:url(#SVGID_1_);}
	.st3{fill:#E788FF;}
	.st4{display:inline;fill:#FFFFFF;}
	.st5{font-family:'MyriadPro-BoldCond';}
	.st6{font-size:12px;}
	.st7{font-size:8px;}
	.st8{fill:#00E4BB;}
	.st9{fill:#002620;}
	.st10{enable-background:new    ;}
	.st11{fill:#FFFFFF;}
</style>
<g id="Layer_2_2_" class="st0">
	<g id="Layer_2" class="st1">
		<rect width="110.5" height="95"/>
	</g>
</g>
<g id="Pr" class="st0">
	<g class="st1">
		
			<radialGradient id="SVGID_1_" cx="392.2235" cy="-579.0541" r="24.6225" gradientTransform="matrix(1 0 0 -1 -340.75 -547.5)" gradientUnits="userSpaceOnUse">
			<stop  offset="0" style="stop-color:#180024;stop-opacity:0.85"/>
			<stop  offset="0.767" style="stop-color:#180024"/>
		</radialGradient>
		<path class="st2" d="M36.4,19.3h37.8V56H36.4V19.3z"/>
		<path class="st3" d="M34.7,17.6v40.2h41.2V17.6H34.7z M36.4,19.3h37.8V56H36.4V19.3z M45.4,27c0-0.1,0-0.2,0.2-0.2
			c1.1-0.1,2.7-0.1,4.4-0.1c4.8,0,6.8,2.6,6.8,5.9c0,4.4-3.2,6.2-7,6.2c-0.7,0-0.9,0-1.3,0v6.6c0,0.1-0.1,0.2-0.2,0.2h-2.7
			c-0.1,0-0.2-0.1-0.2-0.2C45.4,45.5,45.4,27,45.4,27z M48.4,36.1c0.4,0,0.7,0,1.4,0c2,0,3.9-0.7,3.9-3.4c0-2.2-1.3-3.3-3.6-3.3
			c-0.7,0-1.3,0-1.6,0.1C48.4,29.5,48.4,36.1,48.4,36.1z M59.4,34.6c0-0.2,0-0.7-0.1-1.7c0-0.1,0-0.2,0.1-0.2c1-0.4,3.5-1.2,6.3-1.2
			c0.1,0,0.2,0,0.2,0.2v2.5c0,0.1,0,0.2-0.2,0.2c-1.1-0.1-2.7,0.1-3.2,0.3v10.8c0,0.1-0.1,0.2-0.2,0.2h-2.7c-0.1,0-0.2-0.1-0.2-0.2
			V34.6L59.4,34.6z"/>
	</g>
	<text transform="matrix(1 0 0 1 27.9123 74.5)" class="st4 st5 st6">Premiere Pro</text>
	<text transform="matrix(1 0 0 1 36.652 82.9375)" class="st4 st5 st7">Video Editing</text>
</g>
<g id="Au">
	<g>
		<g id="XMLID_2_">
			<rect id="XMLID_11_" x="34.7" y="17.7" class="st8" width="41.2" height="40.1"/>
			<rect id="XMLID_10_" x="36.5" y="19.5" class="st9" width="37.6" height="36.6"/>
			<g id="XMLID_6_">
				<g id="XMLID_7_">
					<path id="XMLID_9_" class="st8" d="M46.3,40.4l-1.5,4.9c0,0.2-0.1,0.2-0.2,0.2h-2.5c-0.2,0-0.2-0.1-0.2-0.3
						c1.3-4.3,3.5-11.6,5.1-16.5c0.1-0.3,0.1-0.6,0.2-1.6c0-0.1,0.1-0.2,0.1-0.2h3.4c0.1,0,0.1,0,0.2,0.1c1.8,5.8,3.8,12.2,5.6,18.1
						c0,0.2,0,0.3-0.1,0.3h-2.7c-0.1,0-0.2-0.1-0.2-0.2l-1.6-5L46.3,40.4L46.3,40.4z M51.2,37.6c-0.5-1.9-1.7-5.7-2.2-7.7l0,0
						c-0.4,1.9-1.4,5.1-2.1,7.7H51.2z"/>
				</g>
			</g>
			<path id="XMLID_4_" class="st8" d="M68.3,42.8c0,0.2,0,0.8,0.1,1.7c0,0.1,0,0.2-0.1,0.2c-1.5,0.6-3.2,1.1-5.3,1.1
				c-2.6,0-5-1-5-4.8v-8.8c0-0.1,0.1-0.2,0.2-0.2h2.7c0.1,0,0.2,0.1,0.2,0.2v8.4c0,1.6,0.6,2.5,2.4,2.5c0.7,0,1.4-0.1,1.8-0.3V32.2
				c0-0.1,0.1-0.2,0.2-0.2H68c0.2,0,0.2,0.1,0.2,0.2L68.3,42.8L68.3,42.8z"/>
		</g>
	</g>
	<g class="st10">
		<path class="st11" d="M39.1,72.7l-0.4,1.8h-1.5l1.8-8.1h1.9l1.6,8.1h-1.5l-0.3-1.8H39.1z M40.5,71.4l-0.3-1.7
			c-0.1-0.5-0.2-1.3-0.3-1.8h0c-0.1,0.5-0.2,1.4-0.3,1.8l-0.3,1.7H40.5z"/>
		<path class="st11" d="M47.5,72.7c0,0.6,0,1.2,0,1.8h-1.4l-0.1-0.6h0c-0.3,0.4-0.8,0.7-1.4,0.7c-1.1,0-1.6-0.8-1.6-2.4v-3.6h1.6V72
			c0,0.8,0.1,1.3,0.6,1.3c0.3,0,0.4-0.2,0.5-0.4c0.1-0.1,0.1-0.3,0.1-0.5v-3.7h1.6V72.7z"/>
		<path class="st11" d="M52.9,66.2v6.6c0,0.6,0,1.2,0,1.7h-1.4l-0.1-0.7h0c-0.2,0.4-0.7,0.8-1.2,0.8c-1.2,0-1.8-1.4-1.8-3
			c0-2,0.9-3,1.9-3c0.5,0,0.8,0.3,1,0.6h0v-2.9H52.9z M51.3,70.9c0-0.1,0-0.2,0-0.3c-0.1-0.4-0.3-0.7-0.6-0.7
			c-0.6,0-0.8,0.8-0.8,1.8c0,1.1,0.3,1.7,0.7,1.7c0.2,0,0.4-0.1,0.5-0.5c0-0.1,0-0.2,0-0.4V70.9z"/>
		<path class="st11" d="M55.6,67.1c0,0.5-0.3,0.9-0.8,0.9c-0.4,0-0.8-0.3-0.8-0.9c0-0.5,0.4-0.9,0.8-0.9
			C55.2,66.2,55.6,66.5,55.6,67.1z M54,74.5v-5.9h1.6v5.9H54z"/>
		<path class="st11" d="M58.5,67.1v1.6h1.2v1.1h-1.2v2.7c0,0.7,0.3,0.9,0.6,0.9c0.2,0,0.3,0,0.4,0l0,1.2c-0.2,0.1-0.5,0.1-1,0.1
			c-0.5,0-0.9-0.1-1.1-0.4c-0.3-0.3-0.5-0.8-0.5-1.7v-2.8h-0.7v-1.1H57v-1.2L58.5,67.1z"/>
		<path class="st11" d="M62,67.1c0,0.5-0.3,0.9-0.8,0.9c-0.4,0-0.8-0.3-0.8-0.9c0-0.5,0.4-0.9,0.8-0.9C61.6,66.2,62,66.5,62,67.1z
			 M60.4,74.5v-5.9H62v5.9H60.4z"/>
		<path class="st11" d="M67.4,71.5c0,2.4-1.4,3-2.2,3c-1.4,0-2.2-1.1-2.2-3c0-2.1,1.1-3,2.3-3C66.5,68.5,67.4,69.7,67.4,71.5z
			 M64.4,71.5c0,1,0.2,1.8,0.7,1.8c0.5,0,0.6-1,0.6-1.8c0-0.8-0.1-1.8-0.7-1.8C64.6,69.7,64.4,70.7,64.4,71.5z"/>
		<path class="st11" d="M68.3,70.4c0-0.6,0-1.2,0-1.8h1.4l0.1,0.7h0c0.3-0.5,0.8-0.8,1.4-0.8c1.1,0,1.6,0.9,1.6,2.2v3.8h-1.6v-3.7
			c0-0.5-0.1-1-0.6-1c-0.3,0-0.5,0.2-0.6,0.5c0,0.1-0.1,0.3-0.1,0.5v3.6h-1.6V70.4z"/>
	</g>
	<g class="st10">
		<path class="st11" d="M36.6,81.9c0.2,0.1,0.6,0.2,0.9,0.2c0.5,0,0.7-0.3,0.7-0.6c0-0.4-0.2-0.6-0.7-0.9c-0.7-0.4-1-1-1-1.5
			c0-0.9,0.6-1.6,1.7-1.6c0.4,0,0.7,0.1,0.8,0.2l-0.2,0.9c-0.2-0.1-0.4-0.2-0.7-0.2c-0.4,0-0.7,0.3-0.7,0.6c0,0.3,0.2,0.5,0.7,0.8
			c0.7,0.4,1,1,1,1.5c0,1-0.7,1.6-1.8,1.6c-0.4,0-0.9-0.1-1-0.2L36.6,81.9z"/>
		<path class="st11" d="M42.7,81c0,1.6-0.9,2-1.5,2c-0.9,0-1.5-0.7-1.5-2c0-1.4,0.7-2,1.5-2C42.2,79,42.7,79.7,42.7,81z M40.8,81
			c0,0.7,0.1,1.2,0.5,1.2c0.3,0,0.4-0.7,0.4-1.2c0-0.5-0.1-1.2-0.4-1.2C40.9,79.8,40.8,80.4,40.8,81z"/>
		<path class="st11" d="M46.2,81.7c0,0.4,0,0.8,0,1.2h-0.9l-0.1-0.4h0c-0.2,0.3-0.5,0.5-0.9,0.5c-0.7,0-1-0.6-1-1.6V79h1.1v2.3
			c0,0.5,0.1,0.8,0.4,0.8c0.2,0,0.3-0.1,0.3-0.3c0-0.1,0.1-0.2,0.1-0.3V79h1V81.7z"/>
		<path class="st11" d="M46.9,80.2c0-0.4,0-0.8,0-1.2h0.9l0,0.4h0c0.2-0.3,0.5-0.5,1-0.5c0.7,0,1,0.6,1,1.5v2.5h-1v-2.4
			c0-0.3-0.1-0.6-0.4-0.6c-0.2,0-0.3,0.1-0.4,0.4c0,0.1-0.1,0.2-0.1,0.4v2.4h-1V80.2z"/>
		<path class="st11" d="M53.4,77.4v4.4c0,0.4,0,0.8,0,1.2h-0.9l-0.1-0.4h0C52.4,82.8,52,83,51.7,83c-0.8,0-1.2-0.9-1.2-2
			c0-1.4,0.6-2,1.3-2c0.3,0,0.6,0.2,0.7,0.4h0v-2H53.4z M52.4,80.5c0-0.1,0-0.2,0-0.2c0-0.2-0.2-0.5-0.4-0.5c-0.4,0-0.5,0.5-0.5,1.2
			c0,0.7,0.2,1.1,0.5,1.1c0.1,0,0.3-0.1,0.4-0.3c0-0.1,0-0.1,0-0.2V80.5z"/>
		<path class="st11" d="M58.8,81.1c0-0.5-0.1-1.2,0-1.8h0c-0.1,0.6-0.2,1.2-0.3,1.7L58,82.8h-0.7L56.8,81c-0.1-0.4-0.2-1.1-0.3-1.7
			h0c0,0.6,0,1.3-0.1,1.8l-0.1,1.9h-0.9l0.4-5.4h1.1l0.4,2c0.2,0.7,0.3,1.3,0.4,1.9h0c0.1-0.6,0.2-1.2,0.3-1.9l0.4-2h1.1l0.3,5.4
			h-0.9L58.8,81.1z"/>
		<path class="st11" d="M61.6,78c0,0.3-0.2,0.6-0.6,0.6c-0.3,0-0.5-0.2-0.5-0.6c0-0.4,0.2-0.6,0.5-0.6C61.4,77.4,61.6,77.6,61.6,78z
			 M60.6,82.9V79h1v3.9H60.6z"/>
		<path class="st11" d="M63.2,79l0.2,0.7c0.1,0.2,0.1,0.5,0.2,0.7h0c0.1-0.2,0.1-0.4,0.2-0.7L64,79h1.1l-0.9,1.9l0.9,2H64l-0.3-0.7
			c-0.1-0.2-0.1-0.4-0.2-0.6h0c0,0.2-0.1,0.4-0.2,0.6l-0.2,0.7h-1l0.9-1.9L62,79H63.2z"/>
		<path class="st11" d="M66.6,78c0,0.3-0.2,0.6-0.6,0.6c-0.3,0-0.5-0.2-0.5-0.6c0-0.4,0.2-0.6,0.5-0.6C66.3,77.4,66.6,77.6,66.6,78z
			 M65.5,82.9V79h1v3.9H65.5z"/>
		<path class="st11" d="M67.3,80.2c0-0.4,0-0.8,0-1.2h0.9l0,0.4h0c0.2-0.3,0.5-0.5,1-0.5c0.7,0,1,0.6,1,1.5v2.5h-1v-2.4
			c0-0.3-0.1-0.6-0.4-0.6c-0.2,0-0.3,0.1-0.4,0.4c0,0.1-0.1,0.2-0.1,0.4v2.4h-1V80.2z"/>
		<path class="st11" d="M73.8,79c0,0.4,0,0.8,0,1.2v2.2c0,0.8-0.2,1.3-0.5,1.6c-0.3,0.3-0.7,0.4-1.3,0.4c-0.4,0-0.7-0.1-1-0.2
			l0.2-0.8c0.2,0.1,0.4,0.2,0.8,0.2c0.5,0,0.7-0.4,0.7-1v-0.2h0c-0.1,0.2-0.4,0.4-0.7,0.4c-0.9,0-1.2-1-1.2-1.9
			c0-1.3,0.6-2.1,1.3-2.1c0.3,0,0.6,0.2,0.7,0.5h0l0.1-0.4H73.8z M72.8,80.5c0-0.1,0-0.2,0-0.3c0-0.2-0.2-0.3-0.3-0.3
			c-0.4,0-0.5,0.5-0.5,1.2c0,0.7,0.2,1.1,0.5,1.1c0.1,0,0.3-0.1,0.4-0.3c0-0.1,0-0.2,0-0.3V80.5z"/>
	</g>
</g>
</svg>
