<?xml version="1.0" encoding="utf-8"?>
<!-- Generator: Adobe Illustrator 20.0.0, SVG Export Plug-In . SVG Version: 6.00 Build 0)  -->
<svg version="1.1" id="Layer_1" xmlns="http://www.w3.org/2000/svg" xmlns:xlink="http://www.w3.org/1999/xlink" x="0px" y="0px"
	 viewBox="0 0 110.5 95" style="enable-background:new 0 0 110.5 95;" xml:space="preserve">
<style type="text/css">
	.st0{display:none;}
	.st1{display:inline;}
	.st2{fill:url(#SVGID_1_);}
	.st3{fill:#FF408C;}
	.st4{display:inline;fill:#FFFFFF;}
	.st5{font-family:'MyriadPro-BoldCond';}
	.st6{font-size:12px;}
	.st7{font-size:8px;}
	.st8{fill:#F47B20;}
	.st9{fill:#27180D;}
	.st10{fill:#31C5F4;}
	.st11{fill:#071E25;}
	.st12{enable-background:new    ;}
	.st13{fill:#FFFFFF;}
</style>
<g id="Layer_2_2_" class="st0">
	<rect class="st1" width="110.5" height="95"/>
</g>
<g id="id" class="st0">
	<g class="st1">
		
			<radialGradient id="SVGID_1_" cx="3001.5791" cy="-2504.0674" r="143.432" gradientTransform="matrix(0.1727 0 0 -0.1713 -466.9662 -397.4158)" gradientUnits="userSpaceOnUse">
			<stop  offset="0" style="stop-color:#250012;stop-opacity:0.85"/>
			<stop  offset="0.767" style="stop-color:#250012"/>
		</radialGradient>
		<path class="st2" d="M36.3,19.3h38V56h-38C36.3,56,36.3,19.3,36.3,19.3z"/>
		<path class="st3" d="M34.5,17.6v40.1H76V17.6H34.5z M36.2,19.3h38V56h-38C36.2,56,36.2,19.3,36.2,19.3z M49.7,45.4
			c0,0.2,0,0.2-0.2,0.2h-2.7c-0.2,0-0.2-0.1-0.2-0.2V27c0-0.2,0.1-0.2,0.2-0.2h2.7c0.1,0,0.2,0.1,0.2,0.2V45.4z M52.7,38.7
			c0-4.1,2.7-7.3,7.1-7.3c0.4,0,0.6,0,0.9,0v-4.5c0-0.1,0.1-0.2,0.2-0.2h2.8c0.1,0,0.2,0.1,0.2,0.1v16c0,0.5,0,1.1,0.1,1.7
			c0,0.1,0,0.1-0.2,0.2c-1.5,0.7-3,1-4.5,1C55.5,45.9,52.7,43.5,52.7,38.7L52.7,38.7z M60.7,34.2c-0.3-0.1-0.6-0.2-1-0.2
			c-2.2,0-3.8,1.7-3.8,4.5c0,3.2,1.6,4.5,3.6,4.5c0.4,0,0.9-0.1,1.2-0.2V34.2L60.7,34.2z"/>
	</g>
	<text transform="matrix(1 0 0 1 36.8423 74.5)" class="st4 st5 st6">InDesign</text>
	<text transform="matrix(1 0 0 1 32.6713 82.5)" class="st4 st5 st7">Yearbook layout</text>
</g>
<g id="ai" class="st0">
	<g class="st1">
		<g id="Layer_2_3_">
			<g>
				<polygon class="st8" points="76,57.7 34.5,57.7 34.5,17.6 76,17.6 				"/>
				<polygon class="st9" points="74.1,55.9 36.4,55.9 36.4,19.4 74.1,19.4 				"/>
				<path class="st8" d="M53.8,37.7c-0.5-1.8-1.7-5.6-2.2-7.5l0,0c-0.4,1.8-1.4,4.9-2.1,7.5H53.8L53.8,37.7z M48.8,40.4l-1.5,4.8
					c0,0.2-0.1,0.2-0.2,0.2h-2.5c-0.2,0-0.2-0.1-0.2-0.3c1.3-4.2,3.6-11.3,5.1-16c0.1-0.3,0.2-0.5,0.2-1.5c0-0.1,0.1-0.2,0.2-0.2
					h3.4c0.1,0,0.2,0,0.2,0.1c1.8,5.7,3.8,11.9,5.7,17.6c0.1,0.2,0,0.2-0.2,0.2h-2.7c-0.1,0-0.2-0.1-0.2-0.2l-1.6-4.8L48.8,40.4
					L48.8,40.4z"/>
				<path class="st8" d="M61.8,32.2c0-0.2,0.1-0.2,0.2-0.2h2.6c0.1,0,0.2,0,0.2,0.2v13c0,0.1-0.1,0.2-0.2,0.2H62
					c-0.1,0-0.2-0.1-0.2-0.2V32.2L61.8,32.2z M61.6,28.5c0-1,0.7-1.7,1.6-1.7c1,0,1.6,0.7,1.6,1.7s-0.7,1.7-1.6,1.7
					C62.3,30.2,61.6,29.5,61.6,28.5L61.6,28.5z"/>
			</g>
		</g>
	</g>
	<text transform="matrix(1 0 0 1 34.0283 74.5)" class="st4 st5 st6">Illustrator</text>
	<text transform="matrix(1 0 0 1 38.4099 82.5)" class="st4 st5 st7">Logo Design</text>
</g>
<g id="ps">
	<g>
		<g id="Layer_2_4_">
			<g>
				<polygon class="st10" points="76,57.7 34.5,57.7 34.5,17.6 76,17.6 				"/>
				<polygon class="st11" points="74.1,55.9 36.4,55.9 36.4,19.4 74.1,19.4 				"/>
				<path class="st10" d="M47.5,36.3c0.2,0,0.6,0.1,1.6,0.1c1.9,0,3.8-0.5,3.8-3.3c0-2.2-1.2-3.3-3.6-3.3c-1,0-1.6,0-1.8,0.1V36.3
					L47.5,36.3z M44.6,27.3c0-0.1,0-0.2,0.2-0.2c0.9,0,2.8-0.1,4.6-0.1c4.8,0,6.7,2.7,6.7,5.9c0,4.4-3.4,6-7,6c-0.7,0-1.3,0-1.5,0
					v6.3c0,0.2-0.1,0.2-0.2,0.2h-2.6c-0.1,0-0.2-0.1-0.2-0.2V27.3L44.6,27.3z"/>
				<path class="st10" d="M62.2,34.2c-1.2,0-1.5,0.7-1.5,1.2c0,0.7,0.3,1,2.1,1.8c2.5,1.2,3.5,2.2,3.5,4.2c0,2.8-1.8,4.3-4.5,4.3
					c-1.3,0-2.9-0.1-3.9-0.8c-0.1-0.1-0.1-0.1-0.1-0.3v-2.5c0-0.1,0.1-0.2,0.2-0.1c1.3,0.9,2.6,1.2,3.9,1.2c1.1,0,1.5-0.7,1.5-1.3
					c0-0.7-0.3-1.1-2-1.9c-2.5-1.2-3.5-2.2-3.5-4.2c0-2.2,1.7-4.1,4.6-4.1c1.5,0,2.5,0,3.2,0.5c0.1,0.1,0.1,0.2,0.1,0.4v2.3
					c0,0.2-0.1,0.2-0.2,0.2C64.6,34.4,63.4,34.2,62.2,34.2L62.2,34.2z"/>
			</g>
		</g>
	</g>
	<g class="st12">
		<path class="st13" d="M27.6,65.2c0.5-0.1,1.3-0.3,2-0.3c1.1,0,2.2,0.1,2.8,0.8c0.6,0.5,0.9,1.4,0.9,2.3c0,1.1-0.4,1.9-0.9,2.4
			c-0.6,0.6-1.7,1-2.5,1c-0.1,0-0.3,0-0.4,0v3.8h-2L27.6,65.2C27.5,65.2,27.6,65.2,27.6,65.2z M29.6,69.9c0.1,0,0.3,0,0.4,0
			c1,0,1.5-0.8,1.5-1.7c0-0.9-0.4-1.7-1.3-1.7c-0.1,0-0.4,0-0.5,0.1v3.2L29.6,69.9L29.6,69.9z"/>
		<path class="st13" d="M34.3,64.8h2v3.8l0,0c0.1-0.3,0.4-0.5,0.6-0.6s0.6-0.3,1-0.3c1.4,0,1.9,1.1,1.9,3v4.6h-2v-4.6
			c0-0.8-0.1-1.4-0.8-1.4c-0.4,0-0.6,0.3-0.8,0.8c0,0.1-0.1,0.4-0.1,0.5v4.6h-2V64.8H34.3z"/>
		<path class="st13" d="M46.8,71.5c0,3-1.8,3.8-2.8,3.8c-1.8,0-2.8-1.4-2.8-3.8c0-2.7,1.4-3.8,2.9-3.8
			C45.8,67.7,46.8,69.2,46.8,71.5z M43.1,71.5c0,1.3,0.3,2.3,0.9,2.3s0.8-1.3,0.8-2.3s-0.1-2.3-0.9-2.3
			C43.2,69.2,43.1,70.5,43.1,71.5z"/>
		<path class="st13" d="M50.2,65.9v2h1.5v1.4h-1.5v3.4c0,0.9,0.4,1.1,0.8,1.1c0.3,0,0.4,0,0.5,0v1.5c-0.3,0.1-0.6,0.1-1.3,0.1
			s-1.1-0.1-1.4-0.5c-0.4-0.4-0.6-1-0.6-2.2v-3.6h-0.9V68h0.9v-1.5L50.2,65.9z"/>
		<path class="st13" d="M57.9,71.5c0,3-1.8,3.8-2.8,3.8c-1.8,0-2.8-1.4-2.8-3.8c0-2.7,1.4-3.8,2.9-3.8
			C56.9,67.7,57.9,69.2,57.9,71.5z M54.3,71.5c0,1.3,0.3,2.3,0.9,2.3s0.8-1.3,0.8-2.3s-0.1-2.3-0.9-2.3
			C54.4,69.2,54.3,70.5,54.3,71.5z"/>
		<path class="st13" d="M59.1,73.5c0.3,0.1,0.9,0.4,1.4,0.4s0.8-0.3,0.8-0.6s-0.3-0.6-0.9-1c-1.3-0.6-1.5-1.5-1.5-2.2
			c0-1.4,1-2.3,2.4-2.3c0.6,0,1.1,0.1,1.5,0.4l-0.4,1.4c-0.3-0.1-0.6-0.3-1-0.3c-0.5,0-0.8,0.3-0.8,0.6s0.1,0.5,0.9,0.9
			c1.1,0.6,1.5,1.4,1.5,2.3c0,1.5-1.1,2.3-2.7,2.3c-0.6,0-1.4-0.1-1.7-0.4L59.1,73.5z"/>
		<path class="st13" d="M64,64.8h2v3.8l0,0c0.1-0.3,0.4-0.5,0.6-0.6c0.3-0.1,0.6-0.3,1-0.3c1.4,0,1.9,1.1,1.9,3v4.6h-2v-4.6
			c0-0.8-0.1-1.4-0.8-1.4c-0.4,0-0.6,0.3-0.8,0.8c0,0.1-0.1,0.4-0.1,0.5v4.6h-2V64.8H64z"/>
		<path class="st13" d="M76.5,71.5c0,3-1.8,3.8-2.8,3.8c-1.8,0-2.8-1.4-2.8-3.8c0-2.7,1.4-3.8,2.9-3.8
			C75.5,67.7,76.5,69.2,76.5,71.5z M72.8,71.5c0,1.3,0.3,2.3,0.9,2.3s0.8-1.3,0.8-2.3s-0.1-2.3-0.9-2.3
			C72.9,69.2,72.8,70.5,72.8,71.5z"/>
		<path class="st13" d="M77.6,70.2c0-0.9,0-1.7,0-2.4h1.8l0.1,0.9l0,0c0.3-0.6,0.9-1,1.5-1c1.7,0,2.3,1.8,2.3,3.8
			c0,2.7-1.1,3.8-2.4,3.8c-0.6,0-1-0.4-1.3-0.8l0,0v3.6h-2V70.2z M79.5,72.7c0,0.3,0,0.5,0.1,0.6c0.1,0.5,0.4,0.6,0.6,0.6
			c0.8,0,0.9-1,0.9-2.2c0-1.4-0.4-2.2-0.9-2.2c-0.3,0-0.6,0.3-0.6,0.6c-0.1,0.1-0.1,0.4-0.1,0.5V72.7z"/>
	</g>
	<g class="st12">
		<path class="st13" d="M36.8,77.2c0.3-0.1,0.7-0.1,1.1-0.1c0.6,0,1.1,0.1,1.5,0.4c0.3,0.3,0.5,0.7,0.5,1.2c0,0.6-0.2,1-0.5,1.3
			c-0.3,0.4-0.9,0.5-1.3,0.5c-0.1,0-0.1,0-0.2,0v2h-1L36.8,77.2L36.8,77.2z M37.8,79.6c0,0,0.1,0,0.2,0c0.5,0,0.8-0.4,0.8-0.9
			s-0.2-0.8-0.7-0.8c-0.1,0-0.2,0-0.3,0V79.6z"/>
		<path class="st13" d="M43,80.5c0,1.6-0.9,2-1.5,2c-0.9,0-1.5-0.7-1.5-2c0-1.4,0.7-2,1.5-2C42.5,78.5,43,79.3,43,80.5z M41.1,80.5
			c0,0.7,0.1,1.2,0.5,1.2c0.3,0,0.4-0.7,0.4-1.2s-0.1-1.2-0.4-1.2C41.2,79.3,41.1,80,41.1,80.5z"/>
		<path class="st13" d="M43.6,81.6c0.2,0.1,0.4,0.2,0.7,0.2s0.4-0.1,0.4-0.4c0-0.2-0.1-0.3-0.5-0.5c-0.6-0.4-0.8-0.8-0.8-1.1
			c0-0.7,0.5-1.2,1.3-1.2c0.3,0,0.6,0.1,0.8,0.2l-0.2,0.8c-0.2-0.1-0.3-0.2-0.5-0.2c-0.3,0-0.4,0.2-0.4,0.3s0.1,0.3,0.5,0.5
			c0.6,0.3,0.8,0.7,0.8,1.2c0,0.8-0.6,1.2-1.4,1.2c-0.3,0-0.7-0.1-0.9-0.2L43.6,81.6z"/>
		<path class="st13" d="M47.5,77.5v1.1h0.8v0.7h-0.8v1.8c0,0.5,0.2,0.6,0.4,0.6c0.1,0,0.2,0,0.3,0v0.8c-0.1,0-0.4,0.1-0.6,0.1
			c-0.3,0-0.6-0.1-0.8-0.2c-0.2-0.2-0.3-0.5-0.3-1.1v-1.8H46v-0.7h0.5V78L47.5,77.5z"/>
		<path class="st13" d="M49.5,80.9c0,0.6,0.4,0.8,0.8,0.8c0.3,0,0.6-0.1,0.7-0.1l0.1,0.8c-0.3,0.1-0.7,0.2-1.1,0.2
			c-1.1,0-1.6-0.7-1.6-1.9c0-1.3,0.7-2.1,1.6-2.1c0.8,0,1.3,0.7,1.3,1.8c0,0.3,0,0.4,0,0.5C51.3,80.9,49.5,80.9,49.5,80.9z
			 M50.5,80.2c0-0.5-0.1-0.9-0.4-0.9c-0.3,0-0.5,0.5-0.5,0.9H50.5z"/>
		<path class="st13" d="M52,79.8c0-0.4,0-0.8,0-1.2h0.9l0.1,0.6l0,0c0.2-0.4,0.5-0.6,0.8-0.6c0.1,0,0.2,0,0.2,0v1
			c-0.1,0-0.1,0-0.2,0c-0.2,0-0.5,0.2-0.6,0.6c0,0.1,0,0.2,0,0.4v2H52V79.8z"/>
		<path class="st13" d="M55.7,77.2c0.3-0.1,0.6-0.1,1.1-0.1c0.7,0,1.2,0.2,1.5,0.5c0.5,0.4,0.7,1.1,0.7,2.2s-0.3,1.9-0.8,2.3
			c-0.4,0.4-0.9,0.5-1.6,0.5c-0.3,0-0.7,0-0.9-0.1V77.2z M56.8,81.7c0,0,0.1,0,0.2,0c0.5,0,0.9-0.5,0.9-2c0-1.1-0.3-1.8-0.9-1.8
			c-0.1,0-0.1,0-0.2,0V81.7z"/>
		<path class="st13" d="M60.4,80.9c0,0.6,0.4,0.8,0.8,0.8c0.3,0,0.6-0.1,0.7-0.1l0.1,0.8c-0.3,0.1-0.7,0.2-1.1,0.2
			c-1.1,0-1.6-0.7-1.6-1.9c0-1.3,0.7-2.1,1.6-2.1c0.8,0,1.3,0.7,1.3,1.8c0,0.3,0,0.4,0,0.5C62.2,80.9,60.4,80.9,60.4,80.9z
			 M61.4,80.2c0-0.5-0.1-0.9-0.4-0.9c-0.3,0-0.5,0.5-0.5,0.9H61.4z"/>
		<path class="st13" d="M62.9,81.6c0.2,0.1,0.4,0.2,0.7,0.2s0.4-0.1,0.4-0.4c0-0.2-0.1-0.3-0.5-0.5c-0.6-0.4-0.8-0.8-0.8-1.1
			c0-0.7,0.5-1.2,1.3-1.2c0.3,0,0.6,0.1,0.8,0.2l-0.2,0.8c-0.2-0.1-0.3-0.2-0.5-0.2c-0.3,0-0.4,0.2-0.4,0.3s0.1,0.3,0.5,0.5
			c0.6,0.3,0.8,0.7,0.8,1.2c0,0.8-0.6,1.2-1.4,1.2c-0.3,0-0.7-0.1-0.9-0.2L62.9,81.6z"/>
		<path class="st13" d="M66.6,77.6c0,0.3-0.2,0.6-0.6,0.6c-0.3,0-0.5-0.2-0.5-0.6S65.7,77,66,77S66.6,77.2,66.6,77.6z M65.5,82.5
			v-3.9h1v3.9H65.5z"/>
		<path class="st13" d="M70.2,78.6c0,0.4,0,0.8,0,1.2V82c0,0.8-0.2,1.3-0.5,1.6C69.4,83.9,69,84,68.4,84c-0.4,0-0.7-0.1-1-0.2
			l0.2-0.8c0.2,0.1,0.4,0.2,0.8,0.2c0.5,0,0.7-0.4,0.7-1V82l0,0c-0.1,0.2-0.4,0.4-0.7,0.4c-0.9,0-1.2-1-1.2-1.9
			c0-1.3,0.6-2.1,1.3-2.1c0.3,0,0.6,0.2,0.7,0.5l0,0l0.1-0.4L70.2,78.6C70.2,78.5,70.2,78.6,70.2,78.6z M69.1,80c0-0.1,0-0.2,0-0.3
			c0-0.2-0.2-0.3-0.3-0.3c-0.4,0-0.5,0.5-0.5,1.2s0.2,1.1,0.5,1.1c0.1,0,0.3-0.1,0.4-0.3c0-0.1,0-0.2,0-0.3L69.1,80L69.1,80z"/>
		<path class="st13" d="M70.9,79.8c0-0.4,0-0.8,0-1.2h0.9V79l0,0c0.2-0.3,0.5-0.5,1-0.5c0.7,0,1,0.6,1,1.5v2.5h-1v-2.4
			c0-0.3-0.1-0.6-0.4-0.6c-0.2,0-0.3,0.1-0.4,0.4c0,0.1-0.1,0.2-0.1,0.4v2.4h-1V79.8z"/>
	</g>
</g>
</svg>
