<?xml version="1.0" encoding="utf-8"?>
<!-- Generator: Adobe Illustrator 20.0.0, SVG Export Plug-In . SVG Version: 6.00 Build 0)  -->
<svg version="1.1" id="Layer_1" xmlns="http://www.w3.org/2000/svg" xmlns:xlink="http://www.w3.org/1999/xlink" x="0px" y="0px"
	 viewBox="0 0 110.5 95" style="enable-background:new 0 0 110.5 95;" xml:space="preserve">
<style type="text/css">
	.st0{display:none;}
	.st1{display:inline;}
	.st2{enable-background:new    ;}
	.st3{fill:#FFFFFF;}
</style>
<g id="Layer_2" class="st0">
	<rect y="0" class="st1" width="110.5" height="95"/>
</g>
<g id="Layer_1_1_">
	<g class="st2">
		<path class="st3" d="M48.1,36.9h-6.9l-0.6,4.6c0.2,0,0.5,0,0.8,0c1.1,0,3.4,0.6,4.9,2c1.4,1.4,2.2,3.4,2.2,6c0,5.1-3.4,9.2-9,9.2
			c-1.8,0-3.8-0.5-4.9-1l0.8-4.2c1,0.5,2.3,0.9,3.7,0.9c2.6,0,4.2-1.6,4.2-4.4c0-3.5-2.6-4.6-5.6-4.6c-0.7,0-1.3,0-1.8,0.1l1.4-13
			h10.8V36.9z"/>
		<path class="st3" d="M52.5,55.2c0-2,1.5-3.5,3.1-3.5c1.7,0,3,1.3,3,3.5c0,2.1-1.2,3.5-3.1,3.5C53.9,58.7,52.5,57.3,52.5,55.2z"/>
		<path class="st3" d="M67.1,37.3L67.1,37.3l-4.5,2.3l-0.9-4.1l6-3.1h4.6v26h-5.2V37.3z"/>
	</g>
	<g class="st2">
		<path class="st3" d="M21.7,72.1l-0.4,2.2h-1.8l2-9.4h2.2l1.8,9.4h-1.8l-0.4-2.2H21.7z M23.3,70.7l-0.3-2c-0.1-0.6-0.2-1.5-0.3-2.1
			h0c-0.1,0.6-0.2,1.6-0.3,2.2l-0.4,2H23.3z"/>
		<path class="st3" d="M31.5,72.2c0,0.7,0,1.4,0.1,2.1H30l-0.1-0.7h0c-0.3,0.5-0.9,0.8-1.6,0.8c-1.3,0-1.8-1-1.8-2.8v-4.1h1.8v4
			c0,0.9,0.2,1.5,0.7,1.5c0.3,0,0.5-0.2,0.6-0.5c0.1-0.1,0.1-0.4,0.1-0.6v-4.4h1.8V72.2z"/>
		<path class="st3" d="M37.8,64.6v7.7c0,0.7,0,1.4,0.1,2h-1.6l-0.1-0.8h0c-0.3,0.5-0.8,0.9-1.4,0.9c-1.5,0-2.1-1.6-2.1-3.5
			c0-2.4,1-3.5,2.2-3.5c0.6,0,1,0.3,1.1,0.7h0v-3.4H37.8z M35.9,70.1c0-0.1,0-0.3,0-0.4c-0.1-0.4-0.3-0.8-0.7-0.8
			c-0.6,0-0.9,0.9-0.9,2c0,1.3,0.4,2,0.9,2c0.2,0,0.5-0.1,0.6-0.6c0-0.1,0.1-0.3,0.1-0.4V70.1z"/>
		<path class="st3" d="M40.9,65.6c0,0.6-0.4,1-1,1c-0.5,0-0.9-0.4-0.9-1c0-0.6,0.4-1,0.9-1C40.5,64.6,40.9,65,40.9,65.6z M39.1,74.3
			v-6.8h1.8v6.8H39.1z"/>
		<path class="st3" d="M47.2,70.9c0,2.9-1.6,3.6-2.6,3.6c-1.6,0-2.6-1.3-2.6-3.5c0-2.5,1.3-3.6,2.6-3.6
			C46.2,67.3,47.2,68.7,47.2,70.9z M43.8,70.9c0,1.2,0.2,2.2,0.8,2.2c0.6,0,0.7-1.1,0.7-2.2c0-0.9-0.2-2.1-0.8-2.1
			C43.9,68.7,43.8,69.9,43.8,70.9z"/>
		<path class="st3" d="M50.6,65c0.6-0.1,1.3-0.2,2-0.2c1,0,1.9,0.1,2.5,0.7c0.6,0.5,0.7,1.1,0.7,2c0,1-0.5,1.9-1.5,2.4v0
			c0.6,0.3,1,0.9,1.1,1.9c0.2,1.1,0.4,2.2,0.6,2.6h-1.9c-0.1-0.3-0.3-1.2-0.5-2.3c-0.2-1.2-0.5-1.5-1.1-1.5h-0.3v3.8h-1.8V65z
			 M52.4,69.1h0.3c0.8,0,1.3-0.6,1.3-1.5c0-0.8-0.3-1.4-1.1-1.4c-0.2,0-0.3,0-0.4,0.1V69.1z"/>
		<path class="st3" d="M58.5,71.5c0,1.1,0.6,1.5,1.5,1.5c0.5,0,1-0.1,1.3-0.2l0.3,1.3c-0.5,0.2-1.2,0.3-1.9,0.3
			c-1.9,0-2.9-1.2-2.9-3.4c0-2.3,1.2-3.7,2.7-3.7c1.5,0,2.3,1.2,2.3,3.2c0,0.5,0,0.8-0.1,1H58.5z M60.1,70.2c0-0.9-0.2-1.6-0.8-1.6
			c-0.6,0-0.8,0.9-0.9,1.6H60.1z"/>
		<path class="st3" d="M66.6,74.2c-0.2,0.1-0.6,0.2-1.2,0.2c-1.7,0-2.9-1.2-2.9-3.4c0-2.1,1.2-3.6,3.1-3.6c0.4,0,0.8,0.1,1,0.2
			L66.5,69c-0.2-0.1-0.4-0.1-0.7-0.1c-0.9,0-1.4,0.8-1.4,2c0,1.2,0.5,2,1.4,2c0.3,0,0.5,0,0.7-0.1L66.6,74.2z"/>
		<path class="st3" d="M72.4,70.9c0,2.9-1.6,3.6-2.6,3.6c-1.6,0-2.6-1.3-2.6-3.5c0-2.5,1.3-3.6,2.6-3.6
			C71.4,67.3,72.4,68.7,72.4,70.9z M69,70.9c0,1.2,0.2,2.2,0.8,2.2c0.6,0,0.7-1.1,0.7-2.2c0-0.9-0.2-2.1-0.8-2.1
			C69.1,68.7,69,69.9,69,70.9z"/>
		<path class="st3" d="M78.4,64.6v7.7c0,0.7,0,1.4,0.1,2h-1.6l-0.1-0.8h0c-0.3,0.5-0.8,0.9-1.4,0.9c-1.5,0-2.1-1.6-2.1-3.5
			c0-2.4,1-3.5,2.2-3.5c0.6,0,1,0.3,1.1,0.7h0v-3.4H78.4z M76.5,70.1c0-0.1,0-0.3,0-0.4c-0.1-0.4-0.3-0.8-0.7-0.8
			c-0.6,0-0.9,0.9-0.9,2c0,1.3,0.4,2,0.9,2c0.2,0,0.5-0.1,0.6-0.6c0-0.1,0.1-0.3,0.1-0.4V70.1z"/>
		<path class="st3" d="M81.5,65.6c0,0.6-0.4,1-1,1c-0.5,0-0.9-0.4-0.9-1c0-0.6,0.4-1,0.9-1C81.1,64.6,81.5,65,81.5,65.6z M79.7,74.3
			v-6.8h1.8v6.8H79.7z"/>
		<path class="st3" d="M82.8,69.5c0-0.8,0-1.4-0.1-2.1h1.6l0.1,0.8h0c0.4-0.5,1-0.9,1.7-0.9c1.3,0,1.8,1,1.8,2.6v4.4h-1.8V70
			c0-0.6-0.1-1.1-0.7-1.1c-0.3,0-0.6,0.2-0.7,0.6c-0.1,0.1-0.1,0.4-0.1,0.6v4.2h-1.8V69.5z"/>
		<path class="st3" d="M94.3,67.5c0,0.6-0.1,1.3-0.1,2.2v3.9c0,1.5-0.3,2.3-0.8,2.8c-0.5,0.5-1.2,0.8-2.2,0.8
			c-0.6,0-1.2-0.1-1.7-0.3l0.3-1.4c0.3,0.2,0.8,0.3,1.3,0.3c0.9,0,1.3-0.6,1.3-1.7v-0.4h0c-0.2,0.4-0.7,0.7-1.2,0.7
			c-1.5,0-2.1-1.7-2.1-3.3c0-2.3,1-3.6,2.3-3.6c0.5,0,1,0.3,1.3,0.8h0l0.1-0.7H94.3z M92.4,69.9c0-0.2,0-0.4-0.1-0.5
			c-0.1-0.3-0.3-0.6-0.6-0.6c-0.7,0-0.9,0.9-0.9,2c0,1.3,0.4,1.9,0.9,1.9c0.2,0,0.5-0.1,0.6-0.5c0.1-0.2,0.1-0.4,0.1-0.5V69.9z"/>
	</g>
</g>
</svg>
