<?xml version="1.0" encoding="utf-8"?>
<!-- Generator: Adobe Illustrator 20.0.0, SVG Export Plug-In . SVG Version: 6.00 Build 0)  -->
<svg version="1.1" id="Layer_1" xmlns="http://www.w3.org/2000/svg" xmlns:xlink="http://www.w3.org/1999/xlink" x="0px" y="0px"
	 viewBox="0 0 110.5 95" style="enable-background:new 0 0 110.5 95;" xml:space="preserve">
<style type="text/css">
	.st0{display:none;}
	.st1{display:inline;}
	.st2{fill:url(#SVGID_1_);}
	.st3{fill:#E788FF;}
	.st4{enable-background:new    ;}
	.st5{fill:#FFFFFF;}
	.st6{fill:#00E4BB;}
	.st7{fill:#002620;}
	.st8{display:inline;fill:#FFFFFF;}
	.st9{font-family:'MyriadPro-BoldCond';}
	.st10{font-size:12px;}
	.st11{font-size:8px;}
</style>
<g id="Layer_2_2_" class="st0">
	<g id="Layer_2" class="st1">
		<rect width="110.5" height="95"/>
	</g>
</g>
<g id="Pr">
	<g>
		
			<radialGradient id="SVGID_1_" cx="392.2235" cy="-579.0541" r="24.6225" gradientTransform="matrix(1 0 0 -1 -340.75 -547.5)" gradientUnits="userSpaceOnUse">
			<stop  offset="0" style="stop-color:#180024;stop-opacity:0.85"/>
			<stop  offset="0.767" style="stop-color:#180024"/>
		</radialGradient>
		<path class="st2" d="M36.4,19.3h37.8V56H36.4V19.3z"/>
		<path class="st3" d="M34.7,17.6v40.2h41.2V17.6H34.7z M36.4,19.3h37.8V56H36.4V19.3z M45.4,27c0-0.1,0-0.2,0.2-0.2
			c1.1-0.1,2.7-0.1,4.4-0.1c4.8,0,6.8,2.6,6.8,5.9c0,4.4-3.2,6.2-7,6.2c-0.7,0-0.9,0-1.3,0v6.6c0,0.1-0.1,0.2-0.2,0.2h-2.7
			c-0.1,0-0.2-0.1-0.2-0.2C45.4,45.5,45.4,27,45.4,27z M48.4,36.1c0.4,0,0.7,0,1.4,0c2,0,3.9-0.7,3.9-3.4c0-2.2-1.3-3.3-3.6-3.3
			c-0.7,0-1.3,0-1.6,0.1C48.4,29.5,48.4,36.1,48.4,36.1z M59.4,34.6c0-0.2,0-0.7-0.1-1.7c0-0.1,0-0.2,0.1-0.2c1-0.4,3.5-1.2,6.3-1.2
			c0.1,0,0.2,0,0.2,0.2v2.5c0,0.1,0,0.2-0.2,0.2c-1.1-0.1-2.7,0.1-3.2,0.3v10.8c0,0.1-0.1,0.2-0.2,0.2h-2.7c-0.1,0-0.2-0.1-0.2-0.2
			V34.6L59.4,34.6z"/>
	</g>
	<g class="st4">
		<path class="st5" d="M28.6,66.5c0.4-0.1,1-0.2,1.6-0.2c0.9,0,1.7,0.1,2.2,0.6c0.5,0.4,0.7,1.1,0.7,1.8c0,0.9-0.3,1.5-0.7,1.9
			c-0.5,0.5-1.3,0.8-2,0.8c-0.1,0-0.2,0-0.3,0v3h-1.6V66.5z M30.2,70.2c0.1,0,0.2,0,0.3,0c0.8,0,1.2-0.6,1.2-1.3
			c0-0.7-0.3-1.3-1-1.3c-0.1,0-0.3,0-0.4,0.1V70.2z"/>
		<path class="st5" d="M33.9,70.4c0-0.6,0-1.2,0-1.8h1.4l0.1,0.9h0c0.3-0.6,0.7-0.9,1.2-0.9c0.2,0,0.2,0,0.3,0v1.6
			c-0.1,0-0.2,0-0.3,0c-0.3,0-0.8,0.2-1,0.8c0,0.1-0.1,0.3-0.1,0.6v3h-1.6V70.4z"/>
		<path class="st5" d="M38.7,72.1c0,0.9,0.6,1.2,1.2,1.2c0.4,0,0.8-0.1,1.1-0.2l0.2,1.1c-0.4,0.2-1,0.3-1.6,0.3
			c-1.6,0-2.5-1.1-2.5-2.9c0-2,1-3.1,2.4-3.1c1.3,0,2,1,2,2.8c0,0.4,0,0.6,0,0.8H38.7z M40.1,71c0-0.8-0.2-1.3-0.7-1.3
			c-0.5,0-0.7,0.8-0.7,1.3H40.1z"/>
		<path class="st5" d="M42.5,70.4c0-0.6,0-1.2,0-1.8h1.4l0.1,0.7h0c0.3-0.4,0.8-0.8,1.4-0.8c0.7,0,1.1,0.3,1.3,0.8h0
			c0.1-0.2,0.4-0.4,0.6-0.6c0.2-0.1,0.5-0.2,0.8-0.2c1,0,1.5,0.8,1.5,2.2v3.7h-1.6V71c0-0.7-0.1-1.2-0.6-1.2c-0.3,0-0.5,0.2-0.6,0.5
			c0,0.1,0,0.3,0,0.4v3.7h-1.6v-3.7c0-0.4,0-1-0.5-1c-0.2,0-0.5,0.2-0.6,0.5c0,0.1-0.1,0.3-0.1,0.4v3.7h-1.6V70.4z"/>
		<path class="st5" d="M52.2,67.1c0,0.5-0.3,0.9-0.8,0.9c-0.4,0-0.8-0.3-0.8-0.9c0-0.5,0.4-0.9,0.8-0.9
			C51.8,66.2,52.2,66.5,52.2,67.1z M50.6,74.5v-5.9h1.6v5.9H50.6z"/>
		<path class="st5" d="M54.6,72.1c0,0.9,0.6,1.2,1.2,1.2c0.4,0,0.8-0.1,1.1-0.2l0.2,1.1c-0.4,0.2-1,0.3-1.6,0.3
			c-1.6,0-2.5-1.1-2.5-2.9c0-2,1-3.1,2.4-3.1c1.3,0,2,1,2,2.8c0,0.4,0,0.6,0,0.8H54.6z M56,71c0-0.8-0.2-1.3-0.7-1.3
			c-0.5,0-0.7,0.8-0.7,1.3H56z"/>
		<path class="st5" d="M58.3,70.4c0-0.6,0-1.2,0-1.8h1.4l0.1,0.9h0c0.3-0.6,0.7-0.9,1.2-0.9c0.2,0,0.2,0,0.3,0v1.6
			c-0.1,0-0.2,0-0.3,0c-0.3,0-0.8,0.2-1,0.8c0,0.1-0.1,0.3-0.1,0.6v3h-1.6V70.4z"/>
		<path class="st5" d="M63.1,72.1c0,0.9,0.6,1.2,1.2,1.2c0.4,0,0.8-0.1,1.1-0.2l0.2,1.1c-0.4,0.2-1,0.3-1.6,0.3
			c-1.6,0-2.5-1.1-2.5-2.9c0-2,1-3.1,2.4-3.1c1.3,0,2,1,2,2.8c0,0.4,0,0.6,0,0.8H63.1z M64.5,71c0-0.8-0.2-1.3-0.7-1.3
			c-0.5,0-0.7,0.8-0.7,1.3H64.5z"/>
		<path class="st5" d="M68.9,66.5c0.4-0.1,1-0.2,1.6-0.2c0.9,0,1.7,0.1,2.2,0.6c0.5,0.4,0.7,1.1,0.7,1.8c0,0.9-0.3,1.5-0.7,1.9
			c-0.5,0.5-1.3,0.8-2,0.8c-0.1,0-0.2,0-0.3,0v3h-1.6V66.5z M70.5,70.2c0.1,0,0.2,0,0.3,0c0.8,0,1.2-0.6,1.2-1.3
			c0-0.7-0.3-1.3-1-1.3c-0.1,0-0.3,0-0.4,0.1V70.2z"/>
		<path class="st5" d="M74.2,70.4c0-0.6,0-1.2,0-1.8h1.4l0.1,0.9h0c0.3-0.6,0.7-0.9,1.2-0.9c0.2,0,0.2,0,0.3,0v1.6
			c-0.1,0-0.2,0-0.3,0c-0.3,0-0.8,0.2-1,0.8c0,0.1-0.1,0.3-0.1,0.6v3h-1.6V70.4z"/>
		<path class="st5" d="M82,71.5c0,2.4-1.4,3-2.2,3c-1.4,0-2.2-1.1-2.2-3c0-2.1,1.1-3,2.3-3C81.1,68.5,82,69.7,82,71.5z M79.1,71.5
			c0,1,0.2,1.8,0.7,1.8c0.5,0,0.6-1,0.6-1.8c0-0.8-0.1-1.8-0.7-1.8C79.2,69.7,79.1,70.7,79.1,71.5z"/>
	</g>
	<g class="st4">
		<path class="st5" d="M37.9,82.9l-1.2-5.4h1.2l0.4,2.3c0.1,0.6,0.2,1.2,0.3,1.9h0c0.1-0.6,0.2-1.3,0.3-1.9l0.4-2.3h1.2L39,82.9
			H37.9z"/>
		<path class="st5" d="M41.6,78c0,0.3-0.2,0.6-0.6,0.6c-0.3,0-0.5-0.2-0.5-0.6c0-0.4,0.2-0.6,0.5-0.6C41.4,77.4,41.6,77.6,41.6,78z
			 M40.6,82.9V79h1v3.9H40.6z"/>
		<path class="st5" d="M45.2,77.4v4.4c0,0.4,0,0.8,0,1.2h-0.9l-0.1-0.4h0c-0.1,0.3-0.5,0.5-0.8,0.5c-0.8,0-1.2-0.9-1.2-2
			c0-1.4,0.6-2,1.3-2c0.3,0,0.6,0.2,0.7,0.4h0v-2H45.2z M44.1,80.5c0-0.1,0-0.2,0-0.2c0-0.2-0.2-0.5-0.4-0.5c-0.4,0-0.5,0.5-0.5,1.2
			c0,0.7,0.2,1.1,0.5,1.1c0.1,0,0.3-0.1,0.4-0.3c0-0.1,0-0.1,0-0.2V80.5z"/>
		<path class="st5" d="M46.8,81.4c0,0.6,0.4,0.8,0.8,0.8c0.3,0,0.6-0.1,0.7-0.1l0.1,0.8c-0.3,0.1-0.7,0.2-1.1,0.2
			c-1.1,0-1.6-0.7-1.6-1.9c0-1.3,0.7-2.1,1.6-2.1c0.8,0,1.3,0.7,1.3,1.8c0,0.3,0,0.4,0,0.5H46.8z M47.7,80.6c0-0.5-0.1-0.9-0.4-0.9
			c-0.3,0-0.5,0.5-0.5,0.9H47.7z"/>
		<path class="st5" d="M52.1,81c0,1.6-0.9,2-1.5,2c-0.9,0-1.5-0.7-1.5-2c0-1.4,0.7-2,1.5-2C51.6,79,52.1,79.7,52.1,81z M50.2,81
			c0,0.7,0.1,1.2,0.5,1.2c0.3,0,0.4-0.7,0.4-1.2c0-0.5-0.1-1.2-0.4-1.2C50.3,79.8,50.2,80.4,50.2,81z"/>
		<path class="st5" d="M56.4,80.6h-1.2V82h1.4v0.9h-2.4v-5.4h2.3v0.9h-1.3v1.2h1.2V80.6z"/>
		<path class="st5" d="M59.9,77.4v4.4c0,0.4,0,0.8,0,1.2h-0.9L59,82.5h0c-0.1,0.3-0.5,0.5-0.8,0.5c-0.8,0-1.2-0.9-1.2-2
			c0-1.4,0.6-2,1.3-2c0.3,0,0.6,0.2,0.7,0.4h0v-2H59.9z M58.9,80.5c0-0.1,0-0.2,0-0.2c0-0.2-0.2-0.5-0.4-0.5c-0.4,0-0.5,0.5-0.5,1.2
			c0,0.7,0.2,1.1,0.5,1.1c0.1,0,0.3-0.1,0.4-0.3c0-0.1,0-0.1,0-0.2V80.5z"/>
		<path class="st5" d="M61.7,78c0,0.3-0.2,0.6-0.6,0.6c-0.3,0-0.5-0.2-0.5-0.6c0-0.4,0.2-0.6,0.5-0.6C61.5,77.4,61.7,77.6,61.7,78z
			 M60.7,82.9V79h1v3.9H60.7z"/>
		<path class="st5" d="M63.7,78V79h0.8v0.7h-0.8v1.8c0,0.5,0.2,0.6,0.4,0.6c0.1,0,0.2,0,0.3,0l0,0.8C64.2,83,64,83,63.7,83
			c-0.3,0-0.6-0.1-0.8-0.2c-0.2-0.2-0.3-0.5-0.3-1.1v-1.8h-0.5V79h0.5v-0.8L63.7,78z"/>
		<path class="st5" d="M66,78c0,0.3-0.2,0.6-0.6,0.6c-0.3,0-0.5-0.2-0.5-0.6c0-0.4,0.2-0.6,0.5-0.6C65.8,77.4,66,77.6,66,78z
			 M64.9,82.9V79h1v3.9H64.9z"/>
		<path class="st5" d="M66.7,80.2c0-0.4,0-0.8,0-1.2h0.9l0,0.4h0c0.2-0.3,0.5-0.5,1-0.5c0.7,0,1,0.6,1,1.5v2.5h-1v-2.4
			c0-0.3-0.1-0.6-0.4-0.6c-0.2,0-0.3,0.1-0.4,0.4c0,0.1-0.1,0.2-0.1,0.4v2.4h-1V80.2z"/>
		<path class="st5" d="M73.3,79c0,0.4,0,0.8,0,1.2v2.2c0,0.8-0.2,1.3-0.5,1.6c-0.3,0.3-0.7,0.4-1.3,0.4c-0.4,0-0.7-0.1-1-0.2
			l0.2-0.8c0.2,0.1,0.4,0.2,0.8,0.2c0.5,0,0.7-0.4,0.7-1v-0.2h0c-0.1,0.2-0.4,0.4-0.7,0.4c-0.9,0-1.2-1-1.2-1.9
			c0-1.3,0.6-2.1,1.3-2.1c0.3,0,0.6,0.2,0.7,0.5h0l0.1-0.4H73.3z M72.2,80.5c0-0.1,0-0.2,0-0.3c0-0.2-0.2-0.3-0.3-0.3
			c-0.4,0-0.5,0.5-0.5,1.2c0,0.7,0.2,1.1,0.5,1.1c0.1,0,0.3-0.1,0.4-0.3c0-0.1,0-0.2,0-0.3V80.5z"/>
	</g>
</g>
<g id="Au" class="st0">
	<g class="st1">
		<g id="XMLID_2_">
			<rect id="XMLID_11_" x="34.7" y="17.7" class="st6" width="41.2" height="40.1"/>
			<rect id="XMLID_10_" x="36.5" y="19.5" class="st7" width="37.6" height="36.6"/>
			<g id="XMLID_6_">
				<g id="XMLID_7_">
					<path id="XMLID_9_" class="st6" d="M46.3,40.4l-1.5,4.9c0,0.2-0.1,0.2-0.2,0.2h-2.5c-0.2,0-0.2-0.1-0.2-0.3
						c1.3-4.3,3.5-11.6,5.1-16.5c0.1-0.3,0.1-0.6,0.2-1.6c0-0.1,0.1-0.2,0.1-0.2h3.4c0.1,0,0.1,0,0.2,0.1c1.8,5.8,3.8,12.2,5.6,18.1
						c0,0.2,0,0.3-0.1,0.3h-2.7c-0.1,0-0.2-0.1-0.2-0.2l-1.6-5L46.3,40.4L46.3,40.4z M51.2,37.6c-0.5-1.9-1.7-5.7-2.2-7.7l0,0
						c-0.4,1.9-1.4,5.1-2.1,7.7H51.2z"/>
				</g>
			</g>
			<path id="XMLID_4_" class="st6" d="M68.3,42.8c0,0.2,0,0.8,0.1,1.7c0,0.1,0,0.2-0.1,0.2c-1.5,0.6-3.2,1.1-5.3,1.1
				c-2.6,0-5-1-5-4.8v-8.8c0-0.1,0.1-0.2,0.2-0.2h2.7c0.1,0,0.2,0.1,0.2,0.2v8.4c0,1.6,0.6,2.5,2.4,2.5c0.7,0,1.4-0.1,1.8-0.3V32.2
				c0-0.1,0.1-0.2,0.2-0.2H68c0.2,0,0.2,0.1,0.2,0.2L68.3,42.8L68.3,42.8z"/>
		</g>
	</g>
	<text transform="matrix(1 0 0 1 37.1701 74.5)" class="st8 st9 st10">Audition</text>
	<text transform="matrix(1 0 0 1 36.2878 82.9375)" class="st8 st9 st11">Sound Mixing</text>
</g>
</svg>
